<?xml version="1.0" encoding="utf-8"?>
<!-- Generator: Adobe Illustrator 25.4.1, SVG Export Plug-In . SVG Version: 6.00 Build 0)  -->
<svg version="1.1" id="livetype" xmlns="http://www.w3.org/2000/svg" xmlns:xlink="http://www.w3.org/1999/xlink" x="0px" y="0px"
	 viewBox="0 0 230 67" enable-background="new 0 0 230 67" xml:space="preserve">
<g>
	<g>
		<g>
			<path fill="#010101" d="M14.8,67c-0.6,0-1.2,0-1.8,0c-1.2,0-2.4-0.1-3.6-0.3c-1.1-0.2-2.2-0.5-3.2-1c-1-0.5-1.9-1.1-2.7-1.8
				c-0.8-0.7-1.5-1.5-2-2.4c-0.5-0.9-0.9-1.9-1.1-2.9C0.2,57.5,0,56.4,0,55.3c0-0.4,0-1.6,0-1.6V13.3c0,0,0-1.2,0-1.6
				c0-1.1,0.1-2.2,0.3-3.3c0.2-1,0.5-2,1.1-2.9c0.5-0.9,1.2-1.7,2-2.4c0.8-0.7,1.7-1.3,2.7-1.8c1-0.5,2.1-0.8,3.2-1
				C10.6,0.1,11.8,0,13,0l1.8,0h200.5l1.8,0c1.2,0,2.4,0.1,3.6,0.3c1.1,0.2,2.2,0.5,3.3,1c2,0.9,3.7,2.4,4.7,4.2
				c0.5,0.9,0.9,1.9,1,2.9c0.2,1.1,0.3,2.2,0.3,3.3c0,0.5,0,1,0,1.6c0,0.7,0,1.3,0,1.9v36.7c0,0.6,0,1.3,0,1.9c0,0.6,0,1.1,0,1.6
				c0,1.1-0.1,2.2-0.3,3.2c-0.2,1-0.5,2-1.1,2.9c-0.5,0.9-1.2,1.7-2,2.4c-0.8,0.7-1.7,1.3-2.7,1.8c-1,0.5-2.1,0.8-3.3,1
				c-1.2,0.2-2.4,0.3-3.6,0.3c-0.6,0-1.2,0-1.8,0l-2.1,0L14.8,67z"/>
		</g>
		<g id="_Group_">
			<g id="_Group_2">
				<g id="_Group_3">
					<path id="_Path_" fill="#FFFFFF" d="M46.6,34.1c0-3.3,1.8-6.4,4.6-8.1c-1.8-2.6-4.7-4.1-7.8-4.2c-3.3-0.3-6.5,2-8.1,2
						c-1.7,0-4.3-1.9-7-1.9c-3.6,0.1-7,2.1-8.7,5.3c-3.8,6.5-1,16.1,2.7,21.4c1.8,2.6,3.9,5.5,6.7,5.4c2.7-0.1,3.7-1.7,7-1.7
						c3.2,0,4.2,1.7,7,1.7c2.9,0,4.7-2.6,6.5-5.2c1.3-1.8,2.3-3.9,3-6C48.9,41.2,46.6,37.8,46.6,34.1z"/>
					<path id="_Path_2" fill="#FFFFFF" d="M41.3,18.3c1.6-1.9,2.4-4.3,2.2-6.8c-2.4,0.3-4.7,1.4-6.3,3.2c-1.6,1.8-2.4,4.2-2.2,6.6
						C37.4,21.3,39.7,20.2,41.3,18.3z"/>
				</g>
			</g>
			<g>
				<path fill="#FFFFFF" d="M80.8,47.4h-9.2L69.4,54h-3.9l8.7-24.2h4.1L87,54h-4L80.8,47.4z M72.5,44.4h7.3l-3.6-10.6h-0.1
					L72.5,44.4z"/>
				<path fill="#FFFFFF" d="M105.9,45.1c0,5.5-2.9,9-7.4,9c-2.3,0.1-4.4-1.1-5.6-3.1h-0.1v8.7h-3.6V36.3h3.5v2.9h0.1
					c1.2-2,3.3-3.2,5.6-3.1C102.9,36.1,105.9,39.7,105.9,45.1z M102.2,45.1c0-3.6-1.8-5.9-4.7-5.9c-2.8,0-4.6,2.4-4.6,5.9
					c0,3.6,1.9,5.9,4.6,5.9C100.3,51.1,102.2,48.7,102.2,45.1z"/>
				<path fill="#FFFFFF" d="M125.3,45.1c0,5.5-2.9,9-7.4,9c-2.3,0.1-4.4-1.1-5.6-3.1h-0.1v8.7h-3.6V36.3h3.5v2.9h0.1
					c1.2-2,3.3-3.2,5.6-3.1C122.4,36.1,125.3,39.7,125.3,45.1z M121.6,45.1c0-3.6-1.8-5.9-4.7-5.9c-2.8,0-4.6,2.4-4.6,5.9
					c0,3.6,1.9,5.9,4.6,5.9C119.7,51.1,121.6,48.7,121.6,45.1L121.6,45.1z"/>
				<path fill="#FFFFFF" d="M138.2,47.2c0.3,2.4,2.6,4,5.8,4c3.1,0,5.3-1.6,5.3-3.7c0-1.9-1.3-3-4.5-3.8l-3.1-0.8
					c-4.4-1.1-6.5-3.2-6.5-6.5c0-4.2,3.6-7,8.8-7c5.1,0,8.6,2.9,8.7,7H149c-0.2-2.4-2.2-3.9-5.1-3.9c-2.9,0-4.9,1.5-4.9,3.6
					c0,1.7,1.3,2.7,4.4,3.5l2.7,0.7c5,1.2,7,3.2,7,6.7c0,4.5-3.6,7.4-9.4,7.4c-5.4,0-9-2.8-9.2-7.2L138.2,47.2z"/>
				<path fill="#FFFFFF" d="M160.9,32.1v4.2h3.4v2.9h-3.4v9.7c0,1.5,0.7,2.2,2.1,2.2c0.4,0,0.8,0,1.2-0.1v2.9
					c-0.7,0.1-1.3,0.2-2,0.2c-3.6,0-5-1.3-5-4.8V39.2h-2.6v-2.9h2.6v-4.2H160.9z"/>
				<path fill="#FFFFFF" d="M166.2,45.1c0-5.6,3.3-9,8.4-9c5.1,0,8.4,3.5,8.4,9c0,5.6-3.2,9-8.4,9C169.4,54.2,166.2,50.7,166.2,45.1
					z M179.2,45.1c0-3.8-1.7-6.1-4.7-6.1c-2.9,0-4.7,2.3-4.7,6.1c0,3.8,1.7,6.1,4.7,6.1C177.5,51.2,179.2,49,179.2,45.1L179.2,45.1z
					"/>
				<path fill="#FFFFFF" d="M185.9,36.3h3.5v3h0.1c0.5-1.9,2.3-3.3,4.2-3.2c0.4,0,0.8,0,1.2,0.1v3.4c-0.5-0.2-1.1-0.2-1.6-0.2
					c-2-0.1-3.7,1.5-3.8,3.5c0,0.2,0,0.4,0,0.6V54h-3.6L185.9,36.3z"/>
				<path fill="#FFFFFF" d="M211.7,48.8c-0.5,3.2-3.6,5.4-7.6,5.4c-5.1,0-8.3-3.4-8.3-9c0-5.5,3.2-9.1,8.2-9.1c4.9,0,8,3.4,8,8.7V46
					h-12.5v0.2c-0.2,2.5,1.6,4.8,4.2,5c0.2,0,0.4,0,0.6,0c1.8,0.2,3.4-0.8,4.1-2.5L211.7,48.8z M199.4,43.5h8.8
					c0.1-2.3-1.7-4.3-4-4.5c-0.1,0-0.2,0-0.3,0C201.4,39,199.4,41,199.4,43.5C199.4,43.5,199.4,43.5,199.4,43.5z"/>
			</g>
		</g>
	</g>
	<g id="_Group_4">
		<g>
			<path fill="#FFFFFF" d="M72.1,11.5c2.8-0.2,5.3,1.9,5.5,4.8c0,0.3,0,0.7,0,1c0,3.7-2,5.9-5.5,5.9h-4.2V11.5H72.1z M69.7,21.5h2.2
				c2,0.1,3.8-1.4,3.9-3.4c0-0.3,0-0.5,0-0.8c0.3-2-1.1-3.9-3.1-4.1c-0.2,0-0.5,0-0.7,0h-2.2V21.5z"/>
			<path fill="#FFFFFF" d="M79.6,18.8c-0.2-2.3,1.5-4.3,3.7-4.5c2.3-0.2,4.3,1.5,4.5,3.7c0,0.3,0,0.5,0,0.8c0.2,2.3-1.5,4.3-3.7,4.5
				c-2.3,0.2-4.3-1.5-4.5-3.7C79.6,19.3,79.6,19,79.6,18.8z M86.1,18.8c0-1.9-0.9-3-2.4-3c-1.5,0-2.4,1.1-2.4,3c0,1.9,0.8,3,2.4,3
				C85.2,21.8,86.1,20.7,86.1,18.8L86.1,18.8z"/>
			<path fill="#FFFFFF" d="M98.9,23.2h-1.8l-1.8-6.5h-0.1l-1.8,6.5h-1.8l-2.4-8.8h1.8l1.6,6.7h0.1l1.8-6.7h1.7l1.8,6.7H98l1.6-6.7
				h1.7L98.9,23.2z"/>
			<path fill="#FFFFFF" d="M103.3,14.4h1.7v1.4h0.1c0.5-1,1.5-1.7,2.6-1.6c1.6-0.1,2.9,1.1,3.1,2.6c0,0.2,0,0.4,0,0.6v5.7h-1.7v-5.3
				c0-1.4-0.6-2.1-1.9-2.1c-1.1-0.1-2.1,0.8-2.1,1.9c0,0.1,0,0.2,0,0.3v5.1h-1.7L103.3,14.4z"/>
			<path fill="#FFFFFF" d="M113.6,10.9h1.7v12.2h-1.7V10.9z"/>
			<path fill="#FFFFFF" d="M117.7,18.8c-0.2-2.3,1.5-4.3,3.7-4.5c2.3-0.2,4.3,1.5,4.5,3.7c0,0.3,0,0.5,0,0.8
				c0.2,2.3-1.5,4.3-3.7,4.5c-2.3,0.2-4.3-1.5-4.5-3.7C117.7,19.3,117.7,19,117.7,18.8z M124.2,18.8c0-1.9-0.9-3-2.4-3
				c-1.5,0-2.4,1.1-2.4,3c0,1.9,0.8,3,2.4,3C123.3,21.8,124.2,20.7,124.2,18.8z"/>
			<path fill="#FFFFFF" d="M127.8,20.7c0-1.6,1.2-2.5,3.3-2.6l2.4-0.1v-0.8c0-0.9-0.6-1.5-1.8-1.5c-1,0-1.6,0.4-1.8,1h-1.7
				c0.2-1.5,1.6-2.5,3.6-2.5c2.2,0,3.4,1.1,3.4,3v6h-1.7v-1.2h-0.1c-0.6,0.9-1.6,1.4-2.6,1.4c-1.5,0.2-2.8-0.9-2.9-2.4
				C127.8,20.8,127.8,20.8,127.8,20.7z M133.5,19.9v-0.7l-2.1,0.1c-1.2,0.1-1.8,0.5-1.8,1.3c0,0.8,0.7,1.3,1.6,1.3
				C132.3,22,133.3,21.1,133.5,19.9C133.5,20,133.5,19.9,133.5,19.9z"/>
			<path fill="#FFFFFF" d="M137.5,18.8c0-2.8,1.4-4.5,3.6-4.5c1.1-0.1,2.2,0.5,2.7,1.5h0.1v-4.8h1.7v12.2H144v-1.4h-0.1
				c-0.6,1-1.6,1.6-2.8,1.5C138.9,23.3,137.5,21.5,137.5,18.8z M139.3,18.8c0,1.9,0.9,3,2.3,3c1.5,0,2.4-1.1,2.4-3
				c0-1.8-0.9-3-2.4-3C140.1,15.8,139.3,16.9,139.3,18.8L139.3,18.8z"/>
			<path fill="#FFFFFF" d="M152.8,18.8c-0.2-2.3,1.5-4.3,3.7-4.5c2.3-0.2,4.3,1.5,4.5,3.7c0,0.3,0,0.5,0,0.8
				c0.2,2.3-1.5,4.3-3.7,4.5c-2.3,0.2-4.3-1.5-4.5-3.7C152.8,19.3,152.8,19,152.8,18.8z M159.3,18.8c0-1.9-0.9-3-2.4-3
				c-1.5,0-2.4,1.1-2.4,3c0,1.9,0.8,3,2.4,3C158.5,21.8,159.3,20.7,159.3,18.8z"/>
			<path fill="#FFFFFF" d="M163.4,14.4h1.7v1.4h0.1c0.5-1,1.5-1.7,2.6-1.6c1.6-0.1,2.9,1.1,3.1,2.6c0,0.2,0,0.4,0,0.6v5.7h-1.7v-5.3
				c0-1.4-0.6-2.1-1.9-2.1c-1.1-0.1-2.1,0.8-2.1,1.9c0,0.1,0,0.2,0,0.3v5.1h-1.7V14.4z"/>
			<path fill="#FFFFFF" d="M180.7,12.2v2.2h1.9v1.5h-1.9v4.5c0,0.9,0.4,1.3,1.2,1.3c0.2,0,0.4,0,0.7,0v1.4c-0.3,0.1-0.6,0.1-0.9,0.1
				c-1.9,0-2.7-0.7-2.7-2.4v-5h-1.4v-1.5h1.4v-2.2H180.7z"/>
			<path fill="#FFFFFF" d="M185,10.9h1.7v4.8h0.1c0.5-1,1.5-1.7,2.7-1.6c1.6-0.1,3,1.1,3,2.7c0,0.2,0,0.4,0,0.5v5.7h-1.7v-5.2
				c0-1.4-0.7-2.1-1.9-2.1c-1.1-0.1-2.1,0.7-2.2,1.9c0,0.1,0,0.2,0,0.3v5.1H185L185,10.9z"/>
			<path fill="#FFFFFF" d="M202.6,20.8c-0.5,1.7-2.1,2.7-3.8,2.5c-2.2,0.1-4-1.7-4.1-3.9c0-0.2,0-0.4,0-0.7
				c-0.3-2.2,1.3-4.3,3.5-4.6c0.2,0,0.4,0,0.6,0c2.4,0,3.9,1.7,3.9,4.4v0.6h-6.2v0.1c-0.1,1.3,0.8,2.4,2.1,2.5c0.1,0,0.1,0,0.2,0
				c0.8,0.1,1.7-0.3,2.1-1.1L202.6,20.8z M196.5,18h4.4c0.1-1.2-0.8-2.2-2-2.3c-0.1,0-0.1,0-0.2,0C197.6,15.7,196.6,16.7,196.5,18
				C196.5,17.9,196.5,17.9,196.5,18L196.5,18z"/>
		</g>
	</g>
</g>
</svg>
