<?xml version="1.0" encoding="utf-8"?>
<!-- Generator: Adobe Illustrator 25.4.1, SVG Export Plug-In . SVG Version: 6.00 Build 0)  -->
<svg version="1.1" id="artwork" xmlns="http://www.w3.org/2000/svg" xmlns:xlink="http://www.w3.org/1999/xlink" x="0px" y="0px"
	 viewBox="0 0 230 67" enable-background="new 0 0 230 67" xml:space="preserve">
<g>
	<g>
		<path d="M221.5,67H8.5C3.7,67,0,63.3,0,58.6V8.4C0,3.7,3.7,0,8.5,0h213c4.8,0,8.5,3.7,8.5,8.4v50.2C230,63.3,226.3,67,221.5,67z"
			/>
	</g>
	<g>
		<path fill="#FFFFFF" stroke="#FFFFFF" stroke-width="0.2" stroke-miterlimit="10" d="M80.8,17.1c0,1.3-0.3,2.5-1.2,3.4
			c-1,1-2.2,1.5-3.7,1.5c-1.5,0-2.7-0.5-3.7-1.5c-1-1-1.5-2.2-1.5-3.7s0.5-2.7,1.5-3.7c1-1,2.2-1.5,3.7-1.5c0.7,0,1.4,0.2,2,0.5
			s1.2,0.7,1.5,1.2l-0.9,0.8c-0.7-0.8-1.5-1.2-2.7-1.2c-1,0-2,0.3-2.7,1.2c-0.9,0.7-1.2,1.7-1.2,2.8c0,1.2,0.3,2.2,1.2,2.8
			c0.9,0.7,1.7,1.2,2.7,1.2c1.2,0,2-0.3,2.9-1.2c0.5-0.5,0.9-1.2,0.9-2h-3.7v-1.3h4.9C80.8,16.6,80.8,16.9,80.8,17.1z"/>
		<path fill="#FFFFFF" stroke="#FFFFFF" stroke-width="0.2" stroke-miterlimit="10" d="M88.6,12.9H84v3.2h4.3v1.2H84v3.2h4.6v1.3h-6
			v-10h6V12.9z"/>
		<path fill="#FFFFFF" stroke="#FFFFFF" stroke-width="0.2" stroke-miterlimit="10" d="M94.2,21.8h-1.4v-8.9H90v-1.2h7.2v1.2h-2.9
			V21.8z"/>
		<path fill="#FFFFFF" stroke="#FFFFFF" stroke-width="0.2" stroke-miterlimit="10" d="M102.1,21.8v-10h1.4v10H102.1z"/>
		<path fill="#FFFFFF" stroke="#FFFFFF" stroke-width="0.2" stroke-miterlimit="10" d="M109.2,21.8h-1.4v-8.9h-2.9v-1.2h7v1.2H109
			v8.9H109.2z"/>
		<path fill="#FFFFFF" stroke="#FFFFFF" stroke-width="0.2" stroke-miterlimit="10" d="M125.4,20.4c-1,1-2.2,1.5-3.7,1.5
			c-1.5,0-2.7-0.5-3.7-1.5c-1-1-1.5-2.2-1.5-3.7s0.5-2.7,1.5-3.7c1-1,2.2-1.5,3.7-1.5c1.5,0,2.7,0.5,3.7,1.5c1,1,1.5,2.2,1.5,3.7
			S126.4,19.4,125.4,20.4z M118.9,19.6c0.7,0.7,1.7,1.2,2.7,1.2s2-0.3,2.7-1.2c0.7-0.7,1.2-1.7,1.2-2.8s-0.3-2.2-1.2-2.8
			c-0.7-0.7-1.7-1.2-2.7-1.2s-2,0.3-2.7,1.2c-0.7,0.7-1.2,1.7-1.2,2.8S118.1,18.9,118.9,19.6z"/>
		<path fill="#FFFFFF" stroke="#FFFFFF" stroke-width="0.2" stroke-miterlimit="10" d="M128.8,21.8v-10h1.5l4.9,7.9l0,0v-2v-5.9h1.4
			v10h-1.4l-5.3-8.2l0,0v2v6.2H128.8z"/>
	</g>
	<path fill="#FFFFFF" d="M116,36.5c-4.1,0-7.3,3-7.3,7.2c0,4,3.2,7.2,7.3,7.2c4.1,0,7.3-3,7.3-7.2C123.3,39.4,120.1,36.5,116,36.5z
		 M116,47.9c-2.2,0-4.1-1.8-4.1-4.4s1.9-4.4,4.1-4.4s4.1,1.7,4.1,4.4C120.1,46.1,118.2,47.9,116,47.9z M100.2,36.5
		c-4.1,0-7.3,3-7.3,7.2c0,4,3.2,7.2,7.3,7.2s7.3-3,7.3-7.2C107.5,39.4,104.3,36.5,100.2,36.5z M100.2,47.9c-2.2,0-4.1-1.8-4.1-4.4
		s1.9-4.4,4.1-4.4c2.2,0,4.1,1.7,4.1,4.4C104.3,46.1,102.4,47.9,100.2,47.9z M81.3,38.7v3h7.3c-0.2,1.7-0.9,3-1.7,3.9
		c-1,1-2.7,2.2-5.6,2.2c-4.6,0-8-3.5-8-8s3.6-8,8-8c2.4,0,4.3,1,5.6,2.2l2.2-2.2c-1.9-1.7-4.3-3-7.7-3c-6.1,0-11.4,5-11.4,11.1
		s5.3,11.1,11.4,11.1c3.4,0,5.8-1,7.8-3.2c2-2,2.7-4.9,2.7-7c0-0.7,0-1.3-0.2-1.8H81.3z M158.6,41c-0.7-1.7-2.4-4.5-6.1-4.5
		c-3.7,0-6.8,2.8-6.8,7.2c0,4,3.1,7.2,7.2,7.2c3.2,0,5.3-2,6-3.2l-2.4-1.7c-0.9,1.2-1.9,2-3.6,2s-2.7-0.7-3.6-2.2l9.7-4L158.6,41z
		 M148.7,43.4c0-2.7,2.2-4.2,3.7-4.2c1.2,0,2.4,0.7,2.7,1.5L148.7,43.4z M140.7,50.2h3.2V29.3h-3.2V50.2z M135.6,38L135.6,38
		c-0.9-0.8-2.2-1.7-3.9-1.7c-3.6,0-7,3.2-7,7.2s3.2,7,7,7c1.7,0,3.1-0.8,3.7-1.7h0.2v1c0,2.7-1.5,4.2-3.9,4.2
		c-1.9,0-3.2-1.3-3.6-2.5l-2.7,1.2c0.9,1.8,2.9,4.2,6.5,4.2c3.7,0,6.8-2.2,6.8-7.4V36.8h-3.1C135.6,36.8,135.6,38,135.6,38z
		 M131.9,47.9c-2.2,0-4.1-1.8-4.1-4.4s1.9-4.4,4.1-4.4s3.9,1.8,3.9,4.4S134.1,47.9,131.9,47.9z M173.4,29.3h-7.7v20.9h3.2v-7.9h4.4
		c3.6,0,7-2.5,7-6.5S177,29.3,173.4,29.3z M173.6,39.4H169v-7.2h4.6c2.4,0,3.7,2,3.7,3.5C177.2,37.5,175.8,39.4,173.6,39.4z
		 M193.2,36.3c-2.4,0-4.8,1-5.6,3.2l2.9,1.2c0.7-1.2,1.7-1.5,2.9-1.5c1.7,0,3.2,1,3.4,2.7V42c-0.5-0.3-1.9-0.8-3.2-0.8
		c-3.1,0-6.1,1.7-6.1,4.7c0,2.8,2.6,4.7,5.3,4.7c2.2,0,3.2-1,4.1-2h0.2v1.7h3.1v-8C199.7,38.5,196.8,36.3,193.2,36.3z M192.9,47.9
		c-1,0-2.6-0.5-2.6-1.8c0-1.7,1.9-2.2,3.4-2.2c1.4,0,2,0.3,2.9,0.7C196.3,46.6,194.6,47.9,192.9,47.9z M210.7,36.8l-3.6,9H207
		l-3.7-9h-3.4l5.6,12.7l-3.2,7h3.2l8.7-19.8H210.7z M182.1,50.2h3.2V29.3h-3.2V50.2z"/>
	<g>
		
			<linearGradient id="SVGID_1_" gradientUnits="userSpaceOnUse" x1="37.1479" y1="674.3085" x2="8.7965" y2="702.66" gradientTransform="matrix(1 0 0 1 0 -659.8896)">
			<stop  offset="0" style="stop-color:#00A0FF"/>
			<stop  offset="6.574450e-03" style="stop-color:#00A1FF"/>
			<stop  offset="0.2601" style="stop-color:#00BEFF"/>
			<stop  offset="0.5122" style="stop-color:#00D2FF"/>
			<stop  offset="0.7604" style="stop-color:#00DFFF"/>
			<stop  offset="1" style="stop-color:#00E3FF"/>
		</linearGradient>
		<path fill="url(#SVGID_1_)" d="M17.7,12.6c-0.5,0.5-0.7,1.3-0.7,2.3v37c0,1,0.3,1.8,0.9,2.3l0.2,0.2l21.1-20.8v-0.2v-0.2
			L17.7,12.6L17.7,12.6z"/>
		
			<linearGradient id="SVGID_00000058590631392369758540000016130173695349682822_" gradientUnits="userSpaceOnUse" x1="57.6436" y1="693.4734" x2="16.4193" y2="693.4734" gradientTransform="matrix(1 0 0 1 0 -659.8896)">
			<stop  offset="0" style="stop-color:#FFE000"/>
			<stop  offset="0.4087" style="stop-color:#FFBD00"/>
			<stop  offset="0.7754" style="stop-color:#FFA500"/>
			<stop  offset="1" style="stop-color:#FF9C00"/>
		</linearGradient>
		<path fill="url(#SVGID_00000058590631392369758540000016130173695349682822_)" d="M46,40.7l-7-6.9v-0.3v-0.2l7-6.9l0.2,0.2
			l8.3,4.7c2.4,1.3,2.4,3.5,0,4.9L46,40.7L46,40.7z"/>
		
			<linearGradient id="SVGID_00000168104564439574986570000009765566276627040904_" gradientUnits="userSpaceOnUse" x1="42.2202" y1="697.1001" x2="3.6637" y2="735.6567" gradientTransform="matrix(1 0 0 1 0 -659.8896)">
			<stop  offset="0" style="stop-color:#FF3A44"/>
			<stop  offset="1" style="stop-color:#C31162"/>
		</linearGradient>
		<path fill="url(#SVGID_00000168104564439574986570000009765566276627040904_)" d="M46.2,40.5l-7.2-7L17.7,54.4
			c0.9,0.8,2,0.8,3.6,0.2L46.2,40.5"/>
		
			<linearGradient id="SVGID_00000152961207890803549500000015942476472896503175_" gradientUnits="userSpaceOnUse" x1="12.4804" y1="660.0233" x2="29.6984" y2="677.2411" gradientTransform="matrix(1 0 0 1 0 -659.8896)">
			<stop  offset="0" style="stop-color:#32A071"/>
			<stop  offset="6.850000e-02" style="stop-color:#2DA771"/>
			<stop  offset="0.4762" style="stop-color:#15CF74"/>
			<stop  offset="0.8009" style="stop-color:#06E775"/>
			<stop  offset="1" style="stop-color:#00F076"/>
		</linearGradient>
		<path fill="url(#SVGID_00000152961207890803549500000015942476472896503175_)" d="M46.2,26.5L21.3,12.6c-1.5-0.8-2.7-0.7-3.6,0.2
			L39,33.5L46.2,26.5z"/>
		<g>
			<path opacity="0.2" enable-background="new    " d="M46,40.4L21.3,54.1c-1.4,0.8-2.6,0.7-3.4,0l0,0l-0.2,0.2l0,0l0.2,0.2l0,0
				c0.9,0.7,2,0.8,3.4,0L46,40.4L46,40.4z"/>
			<path opacity="0.12" enable-background="new    " d="M17.7,54.1c-0.5-0.5-0.7-1.3-0.7-2.3v0.2c0,1,0.3,1.8,0.9,2.3v-0.2H17.7z"/>
		</g>
		<path opacity="0.12" enable-background="new    " d="M54.5,35.7L46,40.4l0.2,0.2l8.3-4.7c1.2-0.7,1.7-1.5,1.7-2.3l0,0
			C56.2,34.3,55.5,35,54.5,35.7z"/>
		<path opacity="0.25" fill="#FFFFFF" enable-background="new    " d="M21.3,12.7l33.2,18.6c1,0.7,1.7,1.3,1.7,2.2l0,0
			c0-0.8-0.5-1.7-1.7-2.3L21.3,12.6c-2.4-1.3-4.3-0.3-4.3,2.3v0.2C17,12.6,18.9,11.4,21.3,12.7z"/>
	</g>
</g>
</svg>
