<svg width="69" height="69" viewBox="0 0 69 69" fill="none" xmlns="http://www.w3.org/2000/svg">
<g clip-path="url(#clip0_1733:15967)">
<path d="M57.1635 3.13732e-06C56.2994 -0.00173705 55.4631 0.305708 54.8059 0.866768C54.1487 1.42783 53.7139 2.20549 53.5801 3.05918C52.8488 7.75789 50.462 12.0404 46.8505 15.134C43.239 18.2275 38.6407 19.9282 33.8854 19.9291C29.13 19.9281 24.5315 18.2272 20.92 15.1334C17.3084 12.0397 14.9218 7.75679 14.1908 3.05784C14.0554 2.20175 13.6177 1.42253 12.9571 0.861513C12.2964 0.300498 11.4565 -0.00515249 10.5898 3.13732e-06H57.1635Z" fill="#28367B"/>
<path d="M68.9838 -0.000394851V68.9996H0V-0.000394851H10.5899C11.4568 -0.00550079 12.2968 0.300339 12.9575 0.861626C13.6182 1.42291 14.0558 2.20245 14.1908 3.05879C14.9221 7.75749 17.3089 12.04 20.9204 15.1336C24.5319 18.2271 29.1302 19.9278 33.8855 19.9287C38.6409 19.9277 43.2394 18.2268 46.8509 15.133C50.4625 12.0393 52.8491 7.75639 53.5801 3.05744C53.7142 2.20399 54.1492 1.42665 54.8064 0.865858C55.4635 0.30507 56.2996 -0.00218511 57.1635 -0.000394851H68.9838Z" fill="#B6CD1E"/>
<path d="M69.0001 52.1705H0.00683594V62.6256H69.0001V52.1705Z" fill="white"/>
<path d="M26.1109 30.4705C21.9251 30.4705 18.5195 33.8275 18.5195 37.9541C18.5195 42.0806 21.9251 45.4376 26.1109 45.4376H42.8892C47.075 45.4376 50.4805 42.0806 50.4805 37.9541C50.4805 33.8275 47.075 30.4705 42.8892 30.4705H26.1109Z" fill="white"/>
<path d="M26.1104 30.4705C21.9246 30.4705 18.5191 33.8275 18.5191 37.9541C18.5191 42.0806 21.9246 45.4376 26.1104 45.4376H42.8888C47.0746 45.4376 50.4815 42.0806 50.4815 37.9541C50.4815 33.8275 47.0746 30.4705 42.8888 30.4705H26.1104ZM42.8888 46.0508H26.1104C21.581 46.0508 17.8965 42.4188 17.8965 37.9541C17.8965 33.4893 21.581 29.8573 26.1104 29.8573H42.8888C47.4182 29.8573 51.1027 33.4893 51.1027 37.9541C51.1027 42.4188 47.4182 46.0508 42.8888 46.0508Z" fill="#28367B"/>
<path d="M36.2101 36.039C35.7074 36.039 35.3503 36.2317 35.132 36.663C34.8247 36.2075 34.5646 36.039 34.0215 36.039C33.4784 36.039 33.1226 36.1994 32.8544 36.7128V36.1374H31.8652V40.0698H32.9191V37.6858C32.9191 37.1737 33.1388 36.919 33.5592 36.919C34.0215 36.919 34.1926 37.078 34.1926 37.7087V40.0752H35.2465V37.7249C35.2465 37.2452 35.5295 36.8867 35.9203 36.8867C36.3112 36.8867 36.5443 37.2222 36.5443 37.6953V40.0766H37.5739V37.3503C37.5739 36.6144 37.0146 36.039 36.2128 36.039" fill="#28367B"/>
<path d="M40.2949 39.3313C39.7922 39.3313 39.4028 38.8677 39.4028 38.2047C39.4028 37.3503 39.7033 36.9271 40.2868 36.9271C40.9027 36.9271 41.1952 37.3314 41.1952 38.14C41.1952 38.8435 40.8219 39.33 40.2949 39.33V39.3313ZM40.6264 36.0377C40.3932 36.0318 40.1623 36.0853 39.9554 36.193C39.7484 36.3007 39.5722 36.4592 39.4432 36.6535V34.7048H38.4082V40.0752H39.4216L39.4297 39.5955C39.5447 39.7841 39.7087 39.938 39.9043 40.0408C40.0998 40.1435 40.3196 40.1913 40.5402 40.179C41.5455 40.179 42.2679 39.396 42.2679 38.0686C42.2679 36.8786 41.6588 36.039 40.6291 36.039" fill="#28367B"/>
<path d="M44.472 36.8624C44.8844 36.8624 45.2806 37.1414 45.29 37.7249H43.6553C43.6957 37.1859 44.0448 36.8624 44.4639 36.8624H44.472ZM44.5124 39.3556C43.9936 39.3556 43.6526 38.9715 43.6203 38.3812H46.3681C46.3681 36.822 45.7199 36.039 44.4962 36.039C43.2726 36.039 42.5664 36.822 42.5664 38.0376C42.5664 39.4594 43.2308 40.179 44.5609 40.179C45.4113 40.179 46.069 39.7235 46.3129 38.9162H45.2267C45.1539 39.1858 44.8534 39.3556 44.5138 39.3556" fill="#28367B"/>
<path d="M26.9562 34.0364L22.6289 34.6819L22.7691 35.5983L24.3728 35.3598L25.0372 39.6885L26.1517 39.5227L25.4859 35.1927L27.0977 34.9528L26.9562 34.0364Z" fill="#28367B"/>
<path d="M29.7393 38.6454C29.6328 39.1548 29.2784 39.4648 28.7541 39.3583C28.3175 39.2694 28.145 38.989 28.2461 38.5039L28.7461 36.1253L27.7137 35.915L27.1814 38.45C27.0035 39.295 27.4321 39.9782 28.2097 40.1372C28.7488 40.2464 29.1975 40.1265 29.5573 39.7424L29.4441 40.2814C29.383 40.5573 29.236 40.8066 29.0242 40.9937C28.8125 41.1807 28.5468 41.2957 28.2655 41.3222C27.9843 41.3487 27.7018 41.2854 27.4588 41.1412C27.2158 40.997 27.0248 40.7796 26.9132 40.52L25.9941 40.8987C26.1893 41.3525 26.5234 41.7328 26.9484 41.9848C27.3733 42.2368 27.8672 42.3475 28.3591 42.3011C28.8509 42.2546 29.3154 42.0534 29.6857 41.7264C30.056 41.3993 30.313 40.9633 30.4198 40.4809L31.2284 36.6306L30.2042 36.4218L29.7393 38.6454Z" fill="#28367B"/>
</g>
<defs>
<clipPath id="clip0_1733:15967">
<rect width="69" height="69" rx="3" fill="white"/>
</clipPath>
</defs>
</svg>
