<svg width="69" height="69" viewBox="0 0 69 69" fill="none" xmlns="http://www.w3.org/2000/svg">
<path d="M69 0H0V69H69V0Z" fill="#B6CD1E"/>
<path d="M26.1097 46.0496C21.9225 46.0496 18.5156 49.4066 18.5156 53.5344C18.5156 57.6623 21.9225 61.0193 26.1097 61.0193H42.8907C47.0779 61.0193 50.4847 57.661 50.4847 53.5344C50.4847 49.4079 47.0779 46.0496 42.8907 46.0496H26.1097Z" fill="white"/>
<path d="M26.1094 46.0495C21.9222 46.0495 18.5153 49.4065 18.5153 53.5343C18.5153 57.6622 21.9222 61.0192 26.1094 61.0192H42.8904C47.0775 61.0192 50.4844 57.6609 50.4844 53.5343C50.4844 49.4078 47.0775 46.0495 42.8904 46.0495H26.1094ZM42.8904 61.6324H26.1094C21.5786 61.6324 17.8887 57.9937 17.8887 53.5343C17.8887 49.075 21.5732 45.4363 26.1094 45.4363H42.8904C47.4212 45.4363 51.1111 49.075 51.1111 53.5343C51.1111 57.9937 47.4266 61.6324 42.8904 61.6324Z" fill="#28367B"/>
<path d="M36.2101 51.6152C35.7074 51.6152 35.3503 51.8066 35.132 52.2392C34.8247 51.7837 34.5646 51.6152 34.0215 51.6152C33.4784 51.6152 33.1213 51.7756 32.8544 52.2891V51.723H31.8652V55.6582H32.9191V53.2661C32.9191 52.754 33.1374 52.4993 33.5592 52.4993C34.0215 52.4993 34.1926 52.6583 34.1926 53.2904V55.6582H35.2465V53.3052C35.2465 52.8268 35.5295 52.467 35.9203 52.467C36.3112 52.467 36.5443 52.8025 36.5443 53.2755V55.6582H37.5739V52.9305C37.5739 52.1947 37.0146 51.6193 36.2128 51.6193" fill="#28367B"/>
<path d="M40.2949 54.913C39.7922 54.913 39.4041 54.4494 39.4041 53.785C39.4041 52.9306 39.7033 52.5074 40.2868 52.5074C40.9041 52.5074 41.1952 52.9117 41.1952 53.7203C41.1952 54.4238 40.8232 54.9117 40.2949 54.9117V54.913ZM40.6332 51.6153C40.3999 51.6092 40.1689 51.6625 39.9619 51.7703C39.755 51.878 39.5788 52.0366 39.4499 52.2312V50.2852H38.4082V55.6583H39.4216L39.4297 55.1785C39.5441 55.3677 39.7079 55.5221 39.9037 55.625C40.0994 55.7278 40.3195 55.7752 40.5402 55.762C41.5455 55.762 42.2679 54.979 42.2679 53.6516C42.2679 52.4616 41.6588 51.622 40.6291 51.622" fill="#28367B"/>
<path d="M44.4727 52.4426C44.8864 52.4426 45.2813 52.7229 45.2921 53.3051H43.6641C43.7045 52.766 44.0536 52.4426 44.4727 52.4426ZM44.5212 54.9357C44.0024 54.9357 43.6614 54.553 43.6291 53.9614H46.3783C46.3783 52.4021 45.7301 51.6191 44.505 51.6191C43.28 51.6191 42.5752 52.4021 42.5752 53.6177C42.5752 55.0395 43.2396 55.7591 44.5697 55.7591C45.4214 55.7591 46.0778 55.3036 46.3217 54.4964H45.2355C45.1613 54.7659 44.8622 54.9357 44.5212 54.9357Z" fill="#28367B"/>
<path d="M26.9546 49.6167L22.626 50.2622L22.7661 51.1786L24.3698 50.9387L25.0356 55.2701L26.1501 55.103L25.4844 50.773L27.0962 50.5318L26.9546 49.6167Z" fill="#28367B"/>
<path d="M29.7387 54.2271C29.6309 54.7351 29.2764 55.0464 28.7522 54.9386C28.3155 54.8497 28.143 54.5694 28.2441 54.0842L28.7441 51.7056L27.7118 51.4954L27.1795 54.0303C27.0016 54.8753 27.4301 55.5585 28.2077 55.7176C28.7468 55.8281 29.1956 55.7068 29.5554 55.3241L29.4422 55.8631C29.3803 56.1384 29.233 56.387 29.0212 56.5734C28.8095 56.7598 28.5442 56.8744 28.2633 56.9009C27.9824 56.9274 27.7004 56.8643 27.4576 56.7207C27.2147 56.5772 27.0235 56.3605 26.9113 56.1017L25.9922 56.4803C26.1874 56.9345 26.5217 57.3151 26.9469 57.5672C27.3721 57.8194 27.8663 57.9303 28.3585 57.8839C28.8507 57.8374 29.3154 57.6361 29.686 57.3088C30.0565 56.9816 30.3137 56.5452 30.4206 56.0626L31.2292 52.2123L30.205 52.0034L29.7387 54.2271Z" fill="#28367B"/>
<path d="M53.1716 40.9782H15.8281C15.1975 40.9782 14.5731 40.854 13.9905 40.6126C13.408 40.3713 12.8786 40.0176 12.4328 39.5718C11.5323 38.6713 11.0264 37.4499 11.0264 36.1765V15.2878C11.0264 14.0143 11.5323 12.793 12.4328 11.8925C13.3332 10.992 14.5546 10.4861 15.8281 10.4861H53.1716C54.4451 10.4861 55.6664 10.992 56.5669 11.8925C57.4674 12.793 57.9733 14.0143 57.9733 15.2878V36.1765C57.9733 37.4499 57.4674 38.6713 56.5669 39.5718C55.6664 40.4723 54.4451 40.9782 53.1716 40.9782Z" fill="white"/>
<path d="M57.9889 17.444L57.5186 17.0882C57.1699 16.8249 56.9105 16.4609 56.7755 16.0453C56.6405 15.6298 56.6365 15.1828 56.7639 14.7648L56.9351 14.2015C57.03 13.8864 57.0507 13.5537 56.9955 13.2293C56.9404 12.9049 56.8109 12.5976 56.6172 12.3316C56.4235 12.0656 56.1708 11.848 55.879 11.6959C55.5872 11.5439 55.2641 11.4614 54.9351 11.455L54.3462 11.4442C53.9085 11.4359 53.4839 11.2931 53.1302 11.0351C52.7765 10.7771 52.5108 10.4165 52.3692 10.0022L52.1778 9.44429C52.07 9.13289 51.8915 8.85071 51.6563 8.61992C51.421 8.38914 51.1355 8.21602 50.8221 8.11416C50.5087 8.01231 50.176 7.98449 49.85 8.03289C49.524 8.08129 49.2137 8.20459 48.9435 8.39312L48.461 8.73138C48.1027 8.98143 47.6763 9.11551 47.2393 9.11551C46.8024 9.11551 46.376 8.98143 46.0177 8.73138L45.5352 8.39312C45.265 8.20459 44.9546 8.08129 44.6287 8.03289C44.3027 7.98449 43.97 8.01231 43.6566 8.11416C43.3432 8.21602 43.0576 8.38914 42.8224 8.61992C42.5872 8.85071 42.4087 9.13289 42.3009 9.44429L42.1095 10.0022C41.9668 10.4152 41.7006 10.7744 41.347 11.0311C40.9933 11.2878 40.5694 11.4297 40.1325 11.4375L39.5436 11.4483C39.2138 11.4544 38.8899 11.5369 38.5975 11.6893C38.305 11.8418 38.0519 12.0601 37.858 12.3269C37.6642 12.5938 37.5349 12.902 37.4804 13.2272C37.4258 13.5525 37.4475 13.886 37.5436 14.2015L37.7161 14.7648C37.8434 15.1829 37.8392 15.63 37.7039 16.0456C37.5687 16.4611 37.309 16.8251 36.9601 17.0882L36.4898 17.444C36.297 17.5935 36.1323 17.776 36.0033 17.983H17.3733C17.2771 17.983 17.1849 18.0212 17.1169 18.0892C17.0489 18.1572 17.0107 18.2494 17.0107 18.3456C17.0107 18.4417 17.0489 18.5339 17.1169 18.6019C17.1849 18.6699 17.2771 18.7081 17.3733 18.7081H35.6852C35.6013 19.1037 35.6319 19.515 35.7734 19.8938C35.915 20.2726 36.1616 20.6032 36.4844 20.8468L36.9547 21.2012C37.3037 21.4643 37.5633 21.8283 37.6986 22.2439C37.8338 22.6595 37.838 23.1065 37.7107 23.5246L37.5382 24.0879C37.4123 24.5067 37.4208 24.9545 37.5625 25.3682H17.3733C17.3257 25.3682 17.2785 25.3776 17.2345 25.3958C17.1905 25.414 17.1506 25.4407 17.1169 25.4744C17.0833 25.508 17.0566 25.548 17.0383 25.592C17.0201 25.636 17.0107 25.6831 17.0107 25.7307C17.0107 25.7783 17.0201 25.8255 17.0383 25.8694C17.0566 25.9134 17.0833 25.9534 17.1169 25.9871C17.1506 26.0207 17.1905 26.0474 17.2345 26.0656C17.2785 26.0839 17.3257 26.0932 17.3733 26.0932H37.9722C38.1649 26.3223 38.4043 26.5075 38.6743 26.6365C38.9444 26.7654 39.2389 26.8352 39.5382 26.8412L40.1271 26.852C40.564 26.8598 40.9879 27.0016 41.3416 27.2583C41.6952 27.515 41.9614 27.8742 42.1041 28.2872L42.2955 28.8452C42.4033 29.1566 42.5818 29.4387 42.817 29.6695C43.0523 29.9003 43.3378 30.0734 43.6512 30.1753C43.9646 30.2771 44.2973 30.305 44.6233 30.2566C44.9493 30.2082 45.2596 30.0848 45.5298 29.8963L46.0123 29.5581C46.3706 29.308 46.797 29.1739 47.234 29.1739C47.6709 29.1739 48.0973 29.308 48.4556 29.5581L48.9381 29.8963C49.2084 30.0848 49.5187 30.2082 49.8446 30.2566C50.1706 30.305 50.5033 30.2771 50.8167 30.1753C51.1301 30.0734 51.4157 29.9003 51.6509 29.6695C51.8861 29.4387 52.0646 29.1566 52.1724 28.8452L52.3638 28.2872C52.5065 27.8742 52.7727 27.515 53.1263 27.2583C53.48 27.0016 53.9039 26.8598 54.3408 26.852L54.9297 26.8412C55.2595 26.8351 55.5834 26.7526 55.8758 26.6001C56.1683 26.4476 56.4214 26.2294 56.6153 25.9625C56.8091 25.6957 56.9384 25.3875 56.9929 25.0622C57.0475 24.7369 57.0258 24.4034 56.9297 24.0879L56.7585 23.5246C56.6311 23.1067 56.6351 22.6597 56.7701 22.2441C56.9051 21.8286 57.1645 21.4645 57.5132 21.2012L57.9835 20.8468C58.2473 20.6487 58.4614 20.3919 58.6091 20.0969C58.7567 19.8019 58.8338 19.4766 58.8344 19.1467C58.8349 18.8168 58.7588 18.4913 58.6121 18.1958C58.4654 17.9004 58.252 17.643 57.9889 17.444Z" fill="#28367B"/>
<path d="M48.0958 31.0972L47.6147 30.7535C47.5041 30.6747 47.3717 30.6323 47.236 30.6323C47.1002 30.6323 46.9678 30.6747 46.8573 30.7535L46.3748 31.0972C45.8329 31.4816 45.1941 31.7063 44.5309 31.7458C43.8677 31.7854 43.2067 31.6382 42.6229 31.3209V32.7548H17.3733C17.2771 32.7548 17.1849 32.793 17.1169 32.861C17.0489 32.9289 17.0107 33.0212 17.0107 33.1173C17.0107 33.2134 17.0489 33.3057 17.1169 33.3736C17.1849 33.4416 17.2771 33.4798 17.3733 33.4798H42.6229V42.9404C42.6231 43.0379 42.651 43.1334 42.7034 43.2157C42.7557 43.298 42.8304 43.3637 42.9186 43.4052C43.0069 43.4467 43.1051 43.4623 43.2019 43.4502C43.2987 43.438 43.39 43.3986 43.4652 43.3366L46.926 40.6345C47.0152 40.567 47.1241 40.5304 47.236 40.5304C47.3479 40.5304 47.4567 40.567 47.5459 40.6345L51.0229 43.3366C51.0973 43.3977 51.1875 43.4362 51.2831 43.4478C51.3786 43.4593 51.4754 43.4433 51.5622 43.4017C51.649 43.3601 51.7221 43.2946 51.7729 43.2129C51.8237 43.1311 51.8501 43.0366 51.849 42.9404V31.3209C51.265 31.6381 50.6038 31.7853 49.9404 31.7458C49.277 31.7062 48.6379 31.4815 48.0958 31.0972Z" fill="#28367B"/>
<path d="M45.4418 24.0827H45.3852C44.933 24.0737 44.4871 23.9744 44.0737 23.7907C43.6604 23.6069 43.288 23.3424 42.9783 23.0127L40.8113 20.6961C40.6417 20.5237 40.5083 20.3192 40.419 20.0945C40.3298 19.8699 40.2864 19.6296 40.2914 19.3879C40.2965 19.1462 40.3498 18.9079 40.4484 18.6871C40.547 18.4664 40.6888 18.2676 40.8654 18.1025C41.042 17.9374 41.2499 17.8093 41.4768 17.7258C41.7037 17.6424 41.945 17.6051 42.1865 17.6164C42.428 17.6276 42.6648 17.6871 42.8829 17.7913C43.1011 17.8955 43.2962 18.0423 43.4567 18.2231L45.4485 20.3497L51.0629 14.7354C51.231 14.5673 51.4306 14.4339 51.6503 14.3429C51.8699 14.2519 52.1054 14.2051 52.3432 14.2051C52.5809 14.2051 52.8164 14.2519 53.036 14.3429C53.2557 14.4339 53.4553 14.5673 53.6234 14.7354C53.7916 14.9035 53.9249 15.1031 54.0159 15.3228C54.1069 15.5424 54.1537 15.7779 54.1537 16.0157C54.1537 16.2534 54.1069 16.4889 54.0159 16.7085C53.9249 16.9282 53.7916 17.1278 53.6234 17.2959L47.8285 23.0909C47.1952 23.7237 46.3372 24.0803 45.4418 24.0827Z" fill="#B6CD1E"/>
</svg>
