<svg version="1.0" xmlns="http://www.w3.org/2000/svg" width="682.667" height="682.667" viewBox="0 0 512 512"><path d="M111.3 132.1C55.4 138.7 9.8 182.5 1.5 237.7c-5.4 35.4 5.2 71.9 28.8 99 18.6 21.5 43.1 35.7 72.7 42 8 1.7 17.2 1.8 152.5 1.8 157.7 0 149.7.3 169.3-6.1 66.3-21.6 102.5-92 80.8-156.9-14.5-43.4-49-73.6-96-84.3-6.3-1.4-22.4-1.6-149.1-1.8-78.1-.1-145.2.2-149.2.7zm303 12.1c21.4 5.9 39.2 16.2 54.2 31.2 14.6 14.7 24.9 32.5 30.2 52.3 2.4 8.9 2.7 11.5 2.7 28.3s-.3 19.4-2.7 28.3c-5.3 19.7-15.6 37.5-30.2 52.2-15 15.1-32.2 25-54.3 31.3l-9.7 2.7-143.5.3c-123.5.2-144.8.1-153-1.2-45.5-7.2-82.7-40.7-94.7-85.1-2.4-9.2-2.7-11.6-2.7-28.5s.3-19.3 2.7-28.5c10.2-37.9 38.9-68.2 76.7-80.9 16.8-5.6 11.3-5.4 169-5.3l145.5.2 9.8 2.7z"/><path d="M106.5 200.3c-18.1 2.7-33.2 5.1-33.4 5.3-.4.4 1.6 13.4 2.1 14 .4.3 18.3-2.1 22.4-3.1 1.9-.4 2.2 1 7 32.1 2.7 17.9 5.1 33 5.4 33.4.3.5 4.2.3 8.8-.3 6.8-.9 8.2-1.4 8.2-2.8 0-1-2-15.2-4.5-31.6-2.5-16.4-4.6-30.7-4.8-31.8-.2-1.7.9-2.1 11.6-3.6 6.5-1 12.1-1.9 12.3-2.2.4-.4-1.4-14-1.9-14.3-.1 0-15 2.1-33.2 4.9zM316 247.5V289h16v-3.7c0-3.7 0-3.7 1.6-1.5 6.3 9 26 8.3 34.1-1.2 9.8-11.5 11-33.1 2.7-45.9-7.2-11-23.4-13.7-33.6-5.6l-3.8 3V206h-17v41.5zm36.7-4.9c4.5 2.9 5.8 6.2 5.8 15.4 0 9.8-1.6 13.9-6.8 17-9.6 5.9-19.7-2.4-19.6-16 0-6.1 1.8-12.1 4.5-15.1 3.5-3.8 11.1-4.5 16.1-1.3zm-201.7-18c0 .1-2.1 10-4.6 22.1-4.9 23.5-5 26.7-1.2 33.5 5.6 9.9 21.6 13.3 31 6.6l3.1-2.1-.7 3.9c-2.8 15.8-17.9 23.7-30.8 16.1-2.6-1.5-5.5-4.1-6.5-5.7-.9-1.7-2.3-3-3-3-1.2 0-12.3 4.6-13.1 5.5-.9.8 4.8 9.3 8.3 12.4 2 1.7 5.9 4.3 8.8 5.9 4.7 2.4 6.2 2.7 15.7 2.7 10 0 10.8-.1 16.8-3.4 7.4-4 12.6-9.4 15.7-16.5 1.3-2.8 5.1-18.1 8.4-34.1 3.4-16 6.3-29.9 6.6-31 .4-1.9-.4-2.2-7.3-3.7-4.2-.9-8-1.3-8.3-.9-.4.3-2.4 8.9-4.5 19-3.3 16-4.2 18.9-6.7 21.8-3.7 4.2-8.3 5.1-13.4 2.7-6.7-3.3-6.8-4.8-2.7-24.6 1.9-9.5 3.8-18.9 4.1-20.8l.5-3.6-8.1-1.5c-4.5-.9-8.1-1.5-8.1-1.3zm93.5 1.9c-.5.2-2.2.6-3.7.9-1.5.4-4.3 2.2-6.3 4.1l-3.5 3.6V228h-16v61h16.9l.3-21.9c.3-19.7.5-22.1 2.2-23.9 4.2-4.7 13.6-3.5 15.5 2 .7 1.8 1.1 11.5 1.1 23.4V289h17v-20.8c0-21.8.3-23.2 5-26.9 1.9-1.5 6.5-1.6 9.1-.3 4.3 2.4 4.9 5.7 4.9 27.5v20.6l8.3-.3 8.2-.3V265c0-22.1-.1-23.7-2.1-27.5-2.5-4.5-4.5-6.6-9-8.9-7.9-3.9-16.9-2.8-23.3 2.9l-3.8 3.4-3.3-3.4c-4.3-4.4-12.4-6.7-17.5-5zm157.8.5c-15.8 3.3-24.5 18.4-21.5 37.6 2.8 17.6 11.9 25.5 29.7 25.6 8.2.1 12.9-1.2 18.4-5.1 3.1-2.2 7.5-8.4 8.6-11.9.6-2.2.5-2.2-7.6-2.2-7.8 0-8.5.2-10.4 2.6-1.5 1.9-3.3 2.7-6.8 3.1-8 .9-13.5-2.9-15.2-10.5l-.7-3.2h42.5l-.6-7.3c-1.1-13.3-6.1-22.3-15-26.6-4.9-2.3-15.3-3.4-21.4-2.1zm15.4 15.2c1.6 1.3 4.3 6.8 4.3 8.8 0 .6-4.5 1-12.1 1h-12.1l.6-3.2c1.3-6.4 7.6-10.2 14.4-8.7 1.8.4 4 1.3 4.9 2.1z"/></svg>