<svg xmlns="http://www.w3.org/2000/svg" viewBox="0 0 230 67"><path fill="#010101" d="M14.8 67H13c-1.2 0-2.4-.1-3.6-.3-1.1-.2-2.2-.5-3.2-1s-1.9-1.1-2.7-1.8c-.8-.7-1.5-1.5-2-2.4-.5-.9-.9-1.9-1.1-2.9-.2-1.1-.4-2.2-.4-3.3V11.7c0-1.1.1-2.2.3-3.3.2-1 .5-2 1.1-2.9.5-.9 1.2-1.7 2-2.4s1.7-1.3 2.7-1.8c1-.5 2.1-.8 3.2-1C10.6.1 11.8 0 13 0h204.1c1.2 0 2.4.1 3.6.3 1.1.2 2.2.5 3.3 1 2 .9 3.7 2.4 4.7 4.2.5.9.9 1.9 1 2.9.2 1.1.3 2.2.3 3.3v43.7c0 1.1-.1 2.2-.3 3.2-.2 1-.5 2-1.1 2.9-.5.9-1.2 1.7-2 2.4s-1.7 1.3-2.7 1.8c-1 .5-2.1.8-3.3 1-1.2.2-2.4.3-3.6.3H14.8z"/><path d="M46.6 34.1c0-3.3 1.8-6.4 4.6-8.1-1.8-2.6-4.7-4.1-7.8-4.2-3.3-.3-6.5 2-8.1 2-1.7 0-4.3-1.9-7-1.9-3.6.1-7 2.1-8.7 5.3-3.8 6.5-1 16.1 2.7 21.4 1.8 2.6 3.9 5.5 6.7 5.4 2.7-.1 3.7-1.7 7-1.7 3.2 0 4.2 1.7 7 1.7 2.9 0 4.7-2.6 6.5-5.2 1.3-1.8 2.3-3.9 3-6-3.6-1.6-5.9-5-5.9-8.7zm-5.3-15.8c1.6-1.9 2.4-4.3 2.2-6.8-2.4.3-4.7 1.4-6.3 3.2-1.6 1.8-2.4 4.2-2.2 6.6 2.4 0 4.7-1.1 6.3-3zm39.5 29.1h-9.2L69.4 54h-3.9l8.7-24.2h4.1L87 54h-4l-2.2-6.6zm-8.3-3h7.3l-3.6-10.6h-.1l-3.6 10.6zm33.4.7c0 5.5-2.9 9-7.4 9-2.3.1-4.4-1.1-5.6-3.1h-.1v8.7h-3.6V36.3h3.5v2.9h.1c1.2-2 3.3-3.2 5.6-3.1 4.5 0 7.5 3.6 7.5 9zm-3.7 0c0-3.6-1.8-5.9-4.7-5.9-2.8 0-4.6 2.4-4.6 5.9 0 3.6 1.9 5.9 4.6 5.9 2.8.1 4.7-2.3 4.7-5.9zm23.1 0c0 5.5-2.9 9-7.4 9-2.3.1-4.4-1.1-5.6-3.1h-.1v8.7h-3.6V36.3h3.5v2.9h.1c1.2-2 3.3-3.2 5.6-3.1 4.6 0 7.5 3.6 7.5 9zm-3.7 0c0-3.6-1.8-5.9-4.7-5.9-2.8 0-4.6 2.4-4.6 5.9 0 3.6 1.9 5.9 4.6 5.9 2.8.1 4.7-2.3 4.7-5.9zm16.6 2.1c.3 2.4 2.6 4 5.8 4 3.1 0 5.3-1.6 5.3-3.7 0-1.9-1.3-3-4.5-3.8l-3.1-.8c-4.4-1.1-6.5-3.2-6.5-6.5 0-4.2 3.6-7 8.8-7 5.1 0 8.6 2.9 8.7 7H149c-.2-2.4-2.2-3.9-5.1-3.9-2.9 0-4.9 1.5-4.9 3.6 0 1.7 1.3 2.7 4.4 3.5l2.7.7c5 1.2 7 3.2 7 6.7 0 4.5-3.6 7.4-9.4 7.4-5.4 0-9-2.8-9.2-7.2h3.7zm22.7-15.1v4.2h3.4v2.9h-3.4v9.7c0 1.5.7 2.2 2.1 2.2.4 0 .8 0 1.2-.1v2.9c-.7.1-1.3.2-2 .2-3.6 0-5-1.3-5-4.8V39.2h-2.6v-2.9h2.6v-4.2h3.7zm5.3 13c0-5.6 3.3-9 8.4-9 5.1 0 8.4 3.5 8.4 9 0 5.6-3.2 9-8.4 9-5.2.1-8.4-3.4-8.4-9zm13 0c0-3.8-1.7-6.1-4.7-6.1-2.9 0-4.7 2.3-4.7 6.1s1.7 6.1 4.7 6.1 4.7-2.2 4.7-6.1zm6.7-8.8h3.5v3h.1c.5-1.9 2.3-3.3 4.2-3.2.4 0 .8 0 1.2.1v3.4c-.5-.2-1.1-.2-1.6-.2-2-.1-3.7 1.5-3.8 3.5V54h-3.6V36.3zm25.8 12.5c-.5 3.2-3.6 5.4-7.6 5.4-5.1 0-8.3-3.4-8.3-9 0-5.5 3.2-9.1 8.2-9.1 4.9 0 8 3.4 8 8.7V46h-12.5v.2c-.2 2.5 1.6 4.8 4.2 5h.6c1.8.2 3.4-.8 4.1-2.5l3.3.1zm-12.3-5.3h8.8c.1-2.3-1.7-4.3-4-4.5h-.3c-2.5 0-4.5 2-4.5 4.5zm-127.3-32c2.8-.2 5.3 1.9 5.5 4.8v1c0 3.7-2 5.9-5.5 5.9h-4.2V11.5h4.2zm-2.4 10h2.2c2 .1 3.8-1.4 3.9-3.4v-.8c.3-2-1.1-3.9-3.1-4.1h-2.9v8.3zm9.9-2.7c-.2-2.3 1.5-4.3 3.7-4.5 2.3-.2 4.3 1.5 4.5 3.7v.8c.2 2.3-1.5 4.3-3.7 4.5-2.3.2-4.3-1.5-4.5-3.7v-.8zm6.5 0c0-1.9-.9-3-2.4-3s-2.4 1.1-2.4 3 .8 3 2.4 3c1.5 0 2.4-1.1 2.4-3zm12.8 4.4h-1.8l-1.8-6.5h-.1l-1.8 6.5h-1.8l-2.4-8.8H91l1.6 6.7h.1l1.8-6.7h1.7l1.8 6.7 1.6-6.7h1.7l-2.4 8.8zm4.4-8.8h1.7v1.4h.1c.5-1 1.5-1.7 2.6-1.6 1.6-.1 2.9 1.1 3.1 2.6v6.3h-1.7v-5.3c0-1.4-.6-2.1-1.9-2.1-1.1-.1-2.1.8-2.1 1.9V23h-1.7l-.1-8.6zm10.3-3.5h1.7v12.2h-1.7V10.9zm4.1 7.9c-.2-2.3 1.5-4.3 3.7-4.5 2.3-.2 4.3 1.5 4.5 3.7v.8c.2 2.3-1.5 4.3-3.7 4.5-2.3.2-4.3-1.5-4.5-3.7v-.8zm6.5 0c0-1.9-.9-3-2.4-3s-2.4 1.1-2.4 3 .8 3 2.4 3c1.5 0 2.4-1.1 2.4-3zm3.6 1.9c0-1.6 1.2-2.5 3.3-2.6l2.4-.1v-.8c0-.9-.6-1.5-1.8-1.5-1 0-1.6.4-1.8 1h-1.7c.2-1.5 1.6-2.5 3.6-2.5 2.2 0 3.4 1.1 3.4 3v6h-1.7V22h-.1c-.6.9-1.6 1.4-2.6 1.4-1.5.2-2.8-.9-2.9-2.4-.1-.2-.1-.2-.1-.3zm5.7-.8v-.7l-2.1.1c-1.2.1-1.8.5-1.8 1.3s.7 1.3 1.6 1.3c1.1.1 2.1-.8 2.3-2 0 .1 0 0 0 0zm4-1.1c0-2.8 1.4-4.5 3.6-4.5 1.1-.1 2.2.5 2.7 1.5h.1V11h1.7v12.2H144v-1.4h-.1c-.6 1-1.6 1.6-2.8 1.5-2.2 0-3.6-1.8-3.6-4.5zm1.8 0c0 1.9.9 3 2.3 3 1.5 0 2.4-1.1 2.4-3 0-1.8-.9-3-2.4-3s-2.3 1.1-2.3 3zm13.5 0c-.2-2.3 1.5-4.3 3.7-4.5 2.3-.2 4.3 1.5 4.5 3.7v.8c.2 2.3-1.5 4.3-3.7 4.5-2.3.2-4.3-1.5-4.5-3.7v-.8zm6.5 0c0-1.9-.9-3-2.4-3s-2.4 1.1-2.4 3 .8 3 2.4 3c1.6 0 2.4-1.1 2.4-3zm4.1-4.4h1.7v1.4h.1c.5-1 1.5-1.7 2.6-1.6 1.6-.1 2.9 1.1 3.1 2.6v6.3h-1.7v-5.3c0-1.4-.6-2.1-1.9-2.1-1.1-.1-2.1.8-2.1 1.9V23h-1.7v-8.6zm17.3-2.2v2.2h1.9v1.5h-1.9v4.5c0 .9.4 1.3 1.2 1.3h.7v1.4c-.3.1-.6.1-.9.1-1.9 0-2.7-.7-2.7-2.4v-5h-1.4v-1.5h1.4v-2.2h1.7zm4.3-1.3h1.7v4.8h.1c.5-1 1.5-1.7 2.7-1.6 1.6-.1 3 1.1 3 2.7V23h-1.7v-5.2c0-1.4-.7-2.1-1.9-2.1-1.1-.1-2.1.7-2.2 1.9V23H185V10.9zm17.6 9.9c-.5 1.7-2.1 2.7-3.8 2.5-2.2.1-4-1.7-4.1-3.9v-.7c-.3-2.2 1.3-4.3 3.5-4.6h.6c2.4 0 3.9 1.7 3.9 4.4v.6h-6.2v.1c-.1 1.3.8 2.4 2.1 2.5h.2c.8.1 1.7-.3 2.1-1.1l1.7.2zm-6.1-2.8h4.4c.1-1.2-.8-2.2-2-2.3h-.2c-1.1 0-2.1 1-2.2 2.3 0-.1 0-.1 0 0z" fill="#FFF"/></svg>