<svg xmlns="http://www.w3.org/2000/svg" viewBox="0 0 230 67"><path d="M221.5 67H8.5C3.7 67 0 63.3 0 58.6V8.4C0 3.7 3.7 0 8.5 0h213c4.8 0 8.5 3.7 8.5 8.4v50.2c0 4.7-3.7 8.4-8.5 8.4z"/><path d="M80.8 17.1c0 1.3-.3 2.5-1.2 3.4-1 1-2.2 1.5-3.7 1.5s-2.7-.5-3.7-1.5-1.5-2.2-1.5-3.7.5-2.7 1.5-3.7 2.2-1.5 3.7-1.5c.7 0 1.4.2 2 .5s1.2.7 1.5 1.2l-.9.8c-.7-.8-1.5-1.2-2.7-1.2-1 0-2 .3-2.7 1.2-.9.7-1.2 1.7-1.2 2.8 0 1.2.3 2.2 1.2 2.8.9.7 1.7 1.2 2.7 1.2 1.2 0 2-.3 2.9-1.2.5-.5.9-1.2.9-2h-3.7v-1.3h4.9v.7zm7.8-4.2H84v3.2h4.3v1.2H84v3.2h4.6v1.3h-6v-10h6v1.1zm5.6 8.9h-1.4v-8.9H90v-1.2h7.2v1.2h-2.9v8.9zm7.9 0v-10h1.4v10h-1.4zm7.1 0h-1.4v-8.9h-2.9v-1.2h7v1.2H109v8.9h.2zm16.2-1.4c-1 1-2.2 1.5-3.7 1.5s-2.7-.5-3.7-1.5-1.5-2.2-1.5-3.7.5-2.7 1.5-3.7 2.2-1.5 3.7-1.5 2.7.5 3.7 1.5 1.5 2.2 1.5 3.7-.5 2.7-1.5 3.7zm-6.5-.8c.7.7 1.7 1.2 2.7 1.2s2-.3 2.7-1.2c.7-.7 1.2-1.7 1.2-2.8s-.3-2.2-1.2-2.8c-.7-.7-1.7-1.2-2.7-1.2s-2 .3-2.7 1.2c-.7.7-1.2 1.7-1.2 2.8s.4 2.1 1.2 2.8zm9.9 2.2v-10h1.5l4.9 7.9h0v-7.9h1.4v10h-1.4l-5.3-8.2h0v8.2h-1.1z" fill="#FFF" stroke="#FFF" stroke-width=".2" stroke-miterlimit="10"/><path fill="#FFF" d="M116 36.5c-4.1 0-7.3 3-7.3 7.2 0 4 3.2 7.2 7.3 7.2s7.3-3 7.3-7.2c0-4.3-3.2-7.2-7.3-7.2zm0 11.4c-2.2 0-4.1-1.8-4.1-4.4s1.9-4.4 4.1-4.4 4.1 1.7 4.1 4.4c0 2.6-1.9 4.4-4.1 4.4zm-15.8-11.4c-4.1 0-7.3 3-7.3 7.2 0 4 3.2 7.2 7.3 7.2s7.3-3 7.3-7.2c0-4.3-3.2-7.2-7.3-7.2zm0 11.4c-2.2 0-4.1-1.8-4.1-4.4s1.9-4.4 4.1-4.4c2.2 0 4.1 1.7 4.1 4.4 0 2.6-1.9 4.4-4.1 4.4zm-18.9-9.2v3h7.3c-.2 1.7-.9 3-1.7 3.9-1 1-2.7 2.2-5.6 2.2-4.6 0-8-3.5-8-8s3.6-8 8-8c2.4 0 4.3 1 5.6 2.2l2.2-2.2c-1.9-1.7-4.3-3-7.7-3-6.1 0-11.4 5-11.4 11.1S75.3 51 81.4 51c3.4 0 5.8-1 7.8-3.2 2-2 2.7-4.9 2.7-7 0-.7 0-1.3-.2-1.8H81.3zm77.3 2.3c-.7-1.7-2.4-4.5-6.1-4.5-3.7 0-6.8 2.8-6.8 7.2 0 4 3.1 7.2 7.2 7.2 3.2 0 5.3-2 6-3.2l-2.4-1.7c-.9 1.2-1.9 2-3.6 2s-2.7-.7-3.6-2.2l9.7-4-.4-.8zm-9.9 2.4c0-2.7 2.2-4.2 3.7-4.2 1.2 0 2.4.7 2.7 1.5l-6.4 2.7zm-8 6.8h3.2V29.3h-3.2v20.9zM135.6 38c-.9-.8-2.2-1.7-3.9-1.7-3.6 0-7 3.2-7 7.2s3.2 7 7 7c1.7 0 3.1-.8 3.7-1.7h.2v1c0 2.7-1.5 4.2-3.9 4.2-1.9 0-3.2-1.3-3.6-2.5l-2.7 1.2c.9 1.8 2.9 4.2 6.5 4.2 3.7 0 6.8-2.2 6.8-7.4V36.8h-3.1V38zm-3.7 9.9c-2.2 0-4.1-1.8-4.1-4.4s1.9-4.4 4.1-4.4 3.9 1.8 3.9 4.4-1.7 4.4-3.9 4.4zm41.5-18.6h-7.7v20.9h3.2v-7.9h4.4c3.6 0 7-2.5 7-6.5s-3.3-6.5-6.9-6.5zm.2 10.1H169v-7.2h4.6c2.4 0 3.7 2 3.7 3.5-.1 1.8-1.5 3.7-3.7 3.7zm19.6-3.1c-2.4 0-4.8 1-5.6 3.2l2.9 1.2c.7-1.2 1.7-1.5 2.9-1.5 1.7 0 3.2 1 3.4 2.7v.1c-.5-.3-1.9-.8-3.2-.8-3.1 0-6.1 1.7-6.1 4.7 0 2.8 2.6 4.7 5.3 4.7 2.2 0 3.2-1 4.1-2h.2v1.7h3.1v-8c-.5-3.8-3.4-6-7-6zm-.3 11.6c-1 0-2.6-.5-2.6-1.8 0-1.7 1.9-2.2 3.4-2.2 1.4 0 2 .3 2.9.7-.3 2-2 3.3-3.7 3.3zm17.8-11.1l-3.6 9h-.1l-3.7-9h-3.4l5.6 12.7-3.2 7h3.2l8.7-19.8h-3.5zm-28.6 13.4h3.2V29.3h-3.2v20.9z"/><linearGradient id="a" gradientUnits="userSpaceOnUse" x1="37.148" y1="674.308" x2="8.796" y2="702.66" gradientTransform="translate(0 -659.89)"><stop offset="0" stop-color="#00a0ff"/><stop offset=".007" stop-color="#00a1ff"/><stop offset=".26" stop-color="#00beff"/><stop offset=".512" stop-color="#00d2ff"/><stop offset=".76" stop-color="#00dfff"/><stop offset="1" stop-color="#00e3ff"/></linearGradient><path fill="url(#a)" d="M17.7 12.6c-.5.5-.7 1.3-.7 2.3v37c0 1 .3 1.8.9 2.3l.2.2 21.1-20.8v-.4L17.7 12.6z"/><linearGradient id="b" gradientUnits="userSpaceOnUse" x1="57.644" y1="693.473" x2="16.419" y2="693.473" gradientTransform="translate(0 -659.89)"><stop offset="0" stop-color="#ffe000"/><stop offset=".409" stop-color="#ffbd00"/><stop offset=".775" stop-color="orange"/><stop offset="1" stop-color="#ff9c00"/></linearGradient><path fill="url(#b)" d="M46 40.7l-7-6.9v-.5l7-6.9.2.2 8.3 4.7c2.4 1.3 2.4 3.5 0 4.9L46 40.7z"/><linearGradient id="c" gradientUnits="userSpaceOnUse" x1="42.22" y1="697.1" x2="3.664" y2="735.657" gradientTransform="translate(0 -659.89)"><stop offset="0" stop-color="#ff3a44"/><stop offset="1" stop-color="#c31162"/></linearGradient><path fill="url(#c)" d="M46.2 40.5l-7.2-7-21.3 20.9c.9.8 2 .8 3.6.2l24.9-14.1"/><linearGradient id="d" gradientUnits="userSpaceOnUse" x1="12.48" y1="660.023" x2="29.698" y2="677.241" gradientTransform="translate(0 -659.89)"><stop offset="0" stop-color="#32a071"/><stop offset=".069" stop-color="#2da771"/><stop offset=".476" stop-color="#15cf74"/><stop offset=".801" stop-color="#06e775"/><stop offset="1" stop-color="#00f076"/></linearGradient><path fill="url(#d)" d="M46.2 26.5L21.3 12.6c-1.5-.8-2.7-.7-3.6.2L39 33.5l7.2-7z"/><path opacity=".2" d="M46 40.4L21.3 54.1c-1.4.8-2.6.7-3.4 0l-.2.2.2.2c.9.7 2 .8 3.4 0L46 40.4z"/><path opacity=".12" d="M17.7 54.1c-.5-.5-.7-1.3-.7-2.3v.2c0 1 .3 1.8.9 2.3v-.2h-.2zm36.8-18.4L46 40.4l.2.2 8.3-4.7c1.2-.7 1.7-1.5 1.7-2.3 0 .7-.7 1.4-1.7 2.1z"/><path opacity=".25" fill="#FFF" d="M21.3 12.7l33.2 18.6c1 .7 1.7 1.3 1.7 2.2 0-.8-.5-1.7-1.7-2.3L21.3 12.6c-2.4-1.3-4.3-.3-4.3 2.3v.2c0-2.5 1.9-3.7 4.3-2.4z"/></svg>