<svg id="Vrstva_1" data-name="Vrstva 1" xmlns="http://www.w3.org/2000/svg" viewBox="0 0 550 550"><defs><style>.cls-3,.cls-8{fill:none;stroke:#2e3c77}.cls-3{stroke-miterlimit:10;stroke-width:10px}.cls-4{opacity:.42}.cls-5{fill:#fff}.cls-7{fill:#a4bd00}.cls-8{stroke-linecap:round;stroke-linejoin:round;stroke-width:9px}</style></defs><path d="M114.48 256.8s-16 8.14-16.42 8.72S95 305.66 95 305.66l1.3 61.26s8.13 4.7 8.46 4.67 10.86-3.42 10.86-3.42l173.13-62.51 55-81.25-3.81-42.8h-14.89z" fill="#d6e1fa"/><path d="M67.72 360.55l28.54 6.37v-93.79l7.59-10.84 15.65-5.81s212.81-76.77 212.16-77-43-9.8-43-9.8l-214.88 77.1L63.64 256v97.58zM292.67 23.36L69.55 103a15.76 15.76 0 00-10.13 14.72v87.3a9.42 9.42 0 0012.78 8.8l223.12-79.67a15.76 15.76 0 0010.13-14.72V32.16a9.42 9.42 0 00-12.78-8.8z" fill="#b9cbec"/><path class="cls-3" d="M328.23 180.47l-223.12 79.67A15.77 15.77 0 0095 274.86v87.3a9.42 9.42 0 0012.79 8.8l223.12-79.67A15.76 15.76 0 00341 276.57v-87.3a9.42 9.42 0 00-12.77-8.8zM297 22L73.84 101.7a15.77 15.77 0 00-10.13 14.73v87.29a9.42 9.42 0 0012.78 8.8l223.12-79.67a15.76 15.76 0 0010.13-14.72v-87.3A9.42 9.42 0 00297 22z"/><path class="cls-3" d="M100.84 370.88l-33.12-10.33a9.37 9.37 0 01-4.08-7.76V261.5a15.74 15.74 0 0110.14-14.72l213-76c3.08-1.18 8.88-1.52 12.17-.29l35.66 9.83"/><g class="cls-4"><path class="cls-5" d="M407.1 364.89c.43-.36.47-.4.12-.14.22-.17.45-.33.68-.48.42-.28.85-.54 1.28-.8a21.91 21.91 0 002.71-1.89 8.08 8.08 0 002.67-7.61 4.07 4.07 0 00-3-3 11.3 11.3 0 00-1.13-.15 4.17 4.17 0 00-3.68 2.11 7.76 7.76 0 00-.62 1.38c-.15.43-.17.48-.05.15.33-.52-.3.34-.36.45l.24-.33a4.37 4.37 0 01-.44.42c0-.24.78-.55-.1 0a39.81 39.81 0 00-4.77 3.41 4.54 4.54 0 106.42 6.42z"/></g><g class="cls-4"><path class="cls-5" d="M412.25 318.59c2.64.89 5.87-.13 8-1.79a9.69 9.69 0 003.92-7 3 3 0 00-3.78-2.88 13.56 13.56 0 00-4.78 3c-.48.42-1.42 1.31-1.66 1.49.41-.31-1 .52-.47.25s.28 0-.28-.09a3.55 3.55 0 00-3.52 3.11 3.63 3.63 0 002.57 3.94z"/></g><path d="M266.91 438.15s21.88-16.25 40.44 0 41.75 18.79 54.93 5.67c2.84-2.83 9.55-5.1 10.35-9.43 2.92-15.69-11.75-36.57-25.82-48.92l-8.32-7.25s-16.87 13.78-36.11 10.83a46.86 46.86 0 01-29-16.16 157.67 157.67 0 01-4.8-25.51s-39.48-7.72-50.92-14.76-25.38-20.91-15-40.93 45.85-20.53 57.07-16.8 30.27 5.7 30.27 5.7 5.65-13.69 25.89-19c0 0 21.47-27.24 59.86-28 0 0 67.22-1.53 92.66 72 0 0 47.26 66.63.15 161.09 0 0-52.61 79.13-132.1 56 .02.05-103.52-28.46-69.55-84.53z" fill="#aece00"/><path class="cls-7" d="M268.58 480.06s14.21 15.62 35.31 20.4c29.58 6.69 93.45 1 124.24-34.59 19.95-23.05 60.3-113.94-9.13-206.13 0 0 72.61 21.81 69 139.24 0 0-3.84 106.22-97.93 124.91s-121.49-43.83-121.49-43.83z"/><path class="cls-7" d="M317.84 288.53c1 0 77.48 20.61 89.45 43.89s7.33 21.49-20 2.66-69.45-46.55-69.45-46.55zm-44.46 61.01c-1.7-.4 35.82 22.49 34.65 39.93 0 0 16.82 3.54 27.45-9.13 0 0-31.73-23.65-62.1-30.8z"/><g class="cls-4"><path class="cls-5" d="M231.57 296.59c11.13.5 22.2-.42 33.08 2.29a198.73 198.73 0 0133.27 11.54c11.43 5.15 22.16 11.8 32.84 18.35a146.21 146.21 0 0116.7 11.43c4.86 4 10.16 10.49 16.35 12.24a2.66 2.66 0 003.23-3.23c-1.43-6.31-8.22-11.63-12.81-15.78-5.26-4.76-10.61-9.49-16.27-13.77-10.91-8.25-23.32-13.9-36-18.74a172.56 172.56 0 00-36-9.37c-11.4-1.68-22.91-.5-34.4-.67-3.69-.06-3.66 5.55 0 5.71z"/></g><g class="cls-4"><path class="cls-5" d="M283.43 445.32c-2.61 2-5.06 2.84-7.08 5.78a14.38 14.38 0 00-2.16 11.45c1.79 8.23 8.14 16.75 16 19.87 4.16 1.65 8.36-4.07 5.88-7.64-3-4.3-6.83-8-10-12.11-1.67-2.15-3.69-4.12-3.63-7 .05-2.34 2.37-5.74 4-7.4 2-2-.91-4.62-3-3z"/></g><g class="cls-4"><path class="cls-5" d="M335.48 284.36c3.65.42 7 2.16 10.53 3.19a93.11 93.11 0 019.35 3c7.36 3 13.66 6.74 21.7 7.92 3.72.54 8.22-4.29 4.29-7.36-7.27-5.7-14.64-7.74-23.61-9.2a86.67 86.67 0 00-10.74-1.42c-3.88-.15-7.63.9-11.49.87-2 0-1.87 2.79 0 3z"/></g><g class="cls-4"><path class="cls-5" d="M383.18 260.67c3.37 1.49 6.1 4.05 9.07 6.2 3.21 2.33 6.51 4.55 9.68 6.92 6 4.49 11.2 10.23 17.67 14.09 2 1.22 5.32-.85 4.34-3.33-3-7.67-9.45-13.14-16.2-17.58a49.08 49.08 0 00-10.69-5.54c-4.3-1.52-8.67-1.61-13-2.73-1.14-.29-2 1.46-.83 2z"/></g><g class="cls-4"><path class="cls-5" d="M406.16 363.41c4.76-.67 14.12-6.29 10.66-12.19a3 3 0 00-4.69-.61c-.71.72-1.16 1.52-2 2.49a10.51 10.51 0 01-5.84 3.53 3.55 3.55 0 00-2.46 4.32c.56 2 2.44 2.73 4.33 2.46z"/></g><g class="cls-4"><path class="cls-5" d="M420.25 314.53a6.34 6.34 0 006.3-1.88 12.88 12.88 0 00.94-1.26 2.12 2.12 0 00.25-.36l-.35.45a2.6 2.6 0 00.74-1.16c0-.06.47-1.38.22-.74a7.91 7.91 0 00.35-1.09 2.91 2.91 0 00-2.38-3.11 4.48 4.48 0 00-4.17 1.12 11.58 11.58 0 00-1.17 1.34l-.25.25c.5-.35.62-.46.39-.3s-.1.07.18-.06c.69-.19-.05-.07-.12 0 .23-.23.81 0 0-.11a3.52 3.52 0 00-.93 6.91z"/></g><path class="cls-8" d="M387.32 335.08s-59.91-46.2-110-56.31-75.67 4.42-76.21 25.27 20.64 38.67 46.55 38.52 81.76 21.51 109.07 57.7c24.1 31.92 23.43 37.46-2.91 49.17-20.5 9.11-32.48-.88-46.48-11.28s-40.41-10.49-47.6 11.28 21.21 66 81.88 74.28C411.72 533.27 481 488.87 487.19 409c5.72-74.2-19.26-110.9-37.84-128.9-21.61-20.95-62.32-35.78-87.62-33.42-14.3 1.33-42.4 2-64.4 27.35"/><path class="cls-8" d="M290 280.59c2.59-4.87 25.13-23.49 69.83-12 17.58 4.52 33.67 11.61 42.56 22.46m-133.81 56.33s-4.33 30.18 22 39.6c22.22 7.95 35.59 3.28 44.9-6.64m-13.55-125.05c.34-.08 17.08-23.74 58.76-21.52 30.1 1.6 66.94 25.49 81.34 60.91m-95.38 119.76a66.32 66.32 0 0113.74 33.26"/></svg>