<svg id="Vrstva_1" data-name="Vrstva 1" xmlns="http://www.w3.org/2000/svg" viewBox="0 0 550 550"><defs><style>.cls-1{fill:#d6e1fa}.cls-2{fill:none;stroke:#2e3c77;stroke-linecap:round;stroke-linejoin:round;stroke-width:9px}.cls-3{fill:#b9cbec}.cls-6{opacity:.42}.cls-7{fill:#fff}</style></defs><rect class="cls-1" x="132.14" y="130.43" width="331.13" height="236.47" rx="6.9"/><rect class="cls-2" x="131.06" y="130.43" width="333.3" height="236.47" rx="14.39"/><path class="cls-3" d="M429.88 206v124a6.12 6.12 0 01-6.11 6.11H171.64a6.12 6.12 0 01-6.11-6.11V167.4a6.12 6.12 0 016.11-6.11h222.71l2.81 36.48s15.16 7.6 15.55 7.5 17.17.73 17.17.73z"/><rect class="cls-2" x="395.45" y="153.83" width="49.78" height="49.78" rx="13.58"/><path class="cls-2" d="M429.12 171.11l-16.31 15.22m15.76.54l-15.22-16.31"/><path d="M414.31 351s9.29 74.4-21 112.2-76.1 52.13-128.06 36.27-97.82-86.13-93.64-123.69c2-18.41 19.15-40.77 24.79-38.14 3.82 1.79 10.59 34.9 10.59 34.9s-29.39-80.47 32.54-85c0 0 35.69-26.64 56.16-1.7 0 0 29.91-25.5 59.83 8.5.01 0 45.15-39.1 58.79 56.66z" fill="#aece00"/><path d="M204.92 378.33s-15.54-4.88-16.83-13.75-16.24 2.91-16.24 2.91 16.55-28.13 22.1-33.2l4.85 1.32s-3.67 31.19 6.12 42.72zm-33.07 15.81s25.79 51.14 51.16 50.7 34.23-40.06 73.54-25.35 99.84 43.08 119.27-31.85c0 0 2.2 84.56-71.75 106.7s-119-8.35-137.53-32.26-34.64-56-34.69-67.94z" fill="#a4bd00"/><g class="cls-6"><path class="cls-7" d="M253.94 296.22c3.57-5.24 9.31-7.2 15.55-7.06 5.08.1 9.75 2.94 14.83 2.22a1.92 1.92 0 001.15-2.82c-3.93-5.52-13.13-7.9-19.61-6.31-6.18 1.51-11 7.51-13.62 13a1 1 0 001.7 1z"/></g><g class="cls-6"><path class="cls-7" d="M305.79 297a19.37 19.37 0 0118.21-5.47c5.33 1.15 8.4 5.47 13.26 7.26 2.74 1 4.44-2.31 3.44-4.47-2.86-6.18-12.38-9.92-18.82-9.68-7.55.29-13.76 4.8-18 10.83-.8 1.15 1 2.46 1.91 1.48z"/></g><g class="cls-6"><path class="cls-7" d="M215.14 319.25c.81-4 4.28-8.15 7-11.13 3-3.34 6.75-4.65 10.61-6.67 3-1.59 1.58-6.41-1.73-6.37-5.72.07-11 3.9-14.56 8.16-4.09 4.89-4.28 9.59-4 15.65.07 1.48 2.39 2 2.71.36z"/></g><g class="cls-6"><path class="cls-7" d="M361.15 305.59c6.12-3.11 16.46-2.57 21.74 1.83 4.35 3.62 4.69 9.58 6.6 14.53.95 2.47 5 3.13 5.7 0a21 21 0 00-9.1-22.15 21.6 21.6 0 00-14-3.21c-5.53.61-8.35 3.92-12.17 7.42-.88.81.23 2.08 1.22 1.58z"/></g><g class="cls-6"><path class="cls-7" d="M231.6 369.25c2.07 3.58 6.12 3.38 9.63 2.53 2.42-.59 6.77-1.56 5.69-5a1.63 1.63 0 00-2.38-1c-1.24.84-2.13.61-3.52.37a24.67 24.67 0 00-2.56-.26 8.45 8.45 0 00-1.33 0c-.71.07-.61-.39-.19.21-2.25-3.2-7.36-.38-5.34 3.13z"/></g><g class="cls-6"><path class="cls-7" d="M280.86 366.33a11.27 11.27 0 003.83 2.4 4.5 4.5 0 002.44.09 11.59 11.59 0 011.33-.33 2.26 2.26 0 001.54-3.79 4.13 4.13 0 00-1.19-1.13 7 7 0 00-1.94-.53 3.62 3.62 0 01-.67-.35 5 5 0 01-1-.74 3.17 3.17 0 00-4.37 0 3.12 3.12 0 000 4.38z"/></g><g class="cls-6"><path class="cls-7" d="M340.81 360c2 2.2 3.9 4 7.11 2.86a7.48 7.48 0 005-5 1.64 1.64 0 00-1.13-2c-1.28-.47-2.82.49-4.06.81l-.91.22c-.33.08-1.19.05-.7.29s-.08-.27-.17-.39a9 9 0 00-.93-1c-2.68-2.73-6.72 1.38-4.18 4.18z"/></g><path class="cls-2" d="M199.51 329.23c-70.31 49.12.5 146.65 51.79 164.29 37.5 12.89 87.22 16.32 128.05-18.73 24.4-21 32.81-50.13 35.25-83.69a246.58 246.58 0 00-2.76-56.53c-5.26-32.19-18.19-49.66-35.82-48.87s-30.37 5.61-28.56 50"/><path class="cls-2" d="M353 290.94c-8.82-12.89-21-17.48-33.62-17.57-15.53-.1-23.95 12.84-28 28.21-4 15-4.25 26.87-4.05 42.37m8.23-58.95c-5.88-11.87-20.21-14.15-31.33-11.63-9.45 2.15-16.08 8.8-21.38 18.36-3.3 6-4.41 18.47-5.14 25.38-1.83 17.44-1.33 16.54-.6 32m7.21-62.11c-11.13-5.9-25.08-1.31-33.1 9.06-5.75 7.45-7.59 14.81-9.83 24.14-4.58 19-2.57 35.16 1.94 53.9"/><path class="cls-1" d="M44 180.48s132.3-26.54 132.78-26.87 96-102.45 96-102.45L134.42 79.52z"/><path class="cls-3" d="M98.17 171.61l23.49 27.23s87.33-21.25 126-77.45l-13.34-27.83-57.54 60.05z"/><path class="cls-3" d="M106 180.82s77.09 2.17 134.18-77.21l-5.84-10-56.54 56.6-1 3.45-78.61 18zm28.41-101.3l15.29 30.83 123.1-59.19"/><path class="cls-3" d="M176.78 153.61l-27.08-43.26L44 180.48"/><path class="cls-2" d="M97.67 172.31l22.9 26.9S197 185 248.78 121l-13.06-26.81"/><path class="cls-2" d="M177.26 153.28L41.91 182.42l93.25-102.31 137.56-28.89-95.46 102.06z"/></svg>