<svg id="Vrstva_1" data-name="Vrstva 1" xmlns="http://www.w3.org/2000/svg" viewBox="0 0 550 550"><defs><style>.cls-1{fill:#d6e1fa}.cls-2{fill:#b9cbec}.cls-3{opacity:.42}.cls-4{fill:#fff}.cls-5{fill:none;stroke:#2e3c77;stroke-linecap:round;stroke-linejoin:round;stroke-width:9px}</style></defs><path class="cls-1" d="M301.73 176.6s-8.91 66.13 20.14 99.72 73 46.34 122.89 32.23 66.46-43.17 62.45-76.55-6.55-36.26-6.55-36.26 28.2-71.51-31.22-75.54c0 0-34.25-23.67-53.89-1.51 0 0-28.71-22.67-57.41 7.55 0 0-43.32-34.75-56.41 50.36z"/><path class="cls-2" d="M330.37 225.55s14.55 37.56 42.72 45.07 51.64-9.39 51.64-9.39S451 276.72 467 254.66c0 0-23-25.35-49.29-28.64 0 0-25.35 33.33-55.4-4.23-.02 0-17.39 11.27-31.94 3.76zm53.05-44.13S420 152.78 469.8 158s33.33 43.66 33.33 43.66-29.57-50.76-119.71-20.24z"/><g class="cls-3"><path class="cls-4" d="M327.25 144.94c3.32-5.74 10.1-5 13.37-.25 2.37 3.45 3.23 8 3.88 12 1.31 8.22 1.32 16.53 2.9 24.72.41 2.13 3.21 1.31 3.45-.47 1.51-11.28 1.54-23.38-2.72-34.15-1.81-4.58-4.42-8.55-9.3-10.1a11.37 11.37 0 00-7.94.32c-3.6 1.54-4.43 3.66-5.63 7.06-.42 1.18 1.38 1.89 2 .84z"/></g><g class="cls-3"><path class="cls-4" d="M384.91 131.27c5.9-4.69 8.16 5.66 9.36 9.75 1.48 5 2 11.82 5.89 15.68 1.08 1.07 3.43.72 3.7-1 1.7-10.74-7.14-41.94-21.93-27.43-2 2 .91 4.63 3 3z"/></g><g class="cls-3"><path class="cls-4" d="M436.66 127.39c4.35-2.24 8 3.51 9.89 6.66 2 3.41 2.75 7.48 5.1 10.61 1.21 1.62 4 1.67 4.56-.59 1.57-6-2.73-13.66-6.7-18.07s-10.52-5.72-15.32-1.81c-1.87 1.52.52 4.21 2.47 3.2z"/></g><g class="cls-3"><path class="cls-4" d="M404.77 197.61c3.8-3.66 12.74-3.49 17.55-3.17 6.61.43 13.33.81 19.9 1.54a120.77 120.77 0 0125.32 5.2 33.86 33.86 0 019.66 4.82c2.67 2 4.35 4.89 7 6.86 1.59 1.18 3.9-.42 3.86-2.22-.18-7.68-9.69-12.51-15.8-15.09a101.67 101.67 0 00-29.12-7.3 110.31 110.31 0 00-24 .41c-6.67.79-11.84 2.29-15.95 7.77-.69.91.76 1.94 1.54 1.19z"/></g><path class="cls-5" d="M465.64 253.14c0-3.53-28.47-29.39-63.7-28s-38.75-35.83-9.56-45.7c35.26-11.92 96.07-12.45 109.46 22.79s4.66 88.43-44.67 102.52c-36.31 10.38-83.69 14.51-122.87-16.64-23.42-18.62-31.49-44.55-33.83-74.38a203.6 203.6 0 012.64-50.24c5.05-28.61 17.46-44.14 34.38-43.44s29.14 5 27.41 44.48 4.66 57.78-17.89 59.89-36.84-14.89-36.34-49.6"/><path class="cls-5" d="M359.62 124.73c8.46-11.46 20.17-15.54 32.26-15.61 14.91-.09 23 11.4 26.9 25.07 3.84 13.36 4.09 23.88 3.89 37.66m-60.79 48.26s3.35 12.83 19.93 17.43c10 2.78 26.69 3.53 33.74-10.57m-.85-107.52c5.64-10.55 19.39-12.57 30.06-10.33 9.07 1.9 15.43 7.82 20.51 16.32 3.17 5.3 4.24 16.41 4.94 22.55 1.76 15.5 1.28 14.69.57 28.44m-6.92-55.22c10.69-5.24 24.07-1.16 31.76 8 5.53 6.62 7.29 13.17 9.44 21.45 4.39 16.89 2.47 31.26-1.86 47.91M401.45 312.08s17.12-2 23.67-19.14"/><path class="cls-1" d="M58 188.65s-8.13 60.34 18.38 91 66.62 42.27 112.14 29.4 60.64-39.39 57-69.85-6-33.09-6-33.09 25.73-65.25-28.49-68.93c0 0-31.25-21.59-49.17-1.37 0 0-26.2-20.68-52.39 6.89.01 0-39.47-31.7-51.47 45.95z"/><path class="cls-2" d="M84.14 233.31s13.28 34.27 39 41.13 47.12-8.57 47.12-8.57 24 14.13 38.55-6c0 0-21-23.13-45-26.13 0 0-23.13 30.42-50.55-3.85.01 0-15.84 10.28-29.12 3.42zm48.41-40.26s33.41-26.13 78.82-21.42 30.41 39.84 30.41 39.84-26.98-46.27-109.23-18.42z"/><g class="cls-3"><path class="cls-4" d="M81.38 159.81c3.27-4.93 9-4.52 12-.06 2.18 3.26 2.93 7.51 3.51 11.31 1.12 7.35 1.16 14.74 2.68 22 .34 1.63 3.13 1.73 3.39 0 1.57-10.43 1.65-21.57-2.27-31.56-1.65-4.21-4-7.93-8.49-9.39-6.06-2-11 1.07-12.77 6.82-.38 1.22 1.33 1.84 2 .84z"/></g><g class="cls-3"><path class="cls-4" d="M134 147.42c5.15-4 7.08 5.43 8.12 8.93 1.34 4.56 1.82 10.93 5.53 14.27 1.16 1 3.34.75 3.7-1 2.16-10.15-6.78-38.63-20.33-25.22-2 2 .91 4.62 3 3z"/></g><g class="cls-3"><path class="cls-4" d="M181.22 143.9c6.94-3.49 11 12.84 13.79 16.22 1.26 1.52 3.66.55 4.17-1.1 1.7-5.49-2.48-12.76-6.11-16.76s-9.89-5.25-14.32-1.56c-1.86 1.55.51 4.19 2.47 3.2z"/></g><g class="cls-3"><path class="cls-4" d="M152.09 207.88c3.63-3.39 12-3 16.54-2.63 5.9.48 11.85.78 17.72 1.44a111 111 0 0122.42 4.53 32.88 32.88 0 018.56 4c2.74 1.9 4.42 4.72 7.06 6.67 1.59 1.17 3.92-.41 3.86-2.22-.2-7-8.36-11.38-14-13.83a92.14 92.14 0 00-27-6.91 97 97 0 00-22.53.49c-6.11.77-10.49 2.28-14.21 7.24-.7.92.76 1.92 1.54 1.19z"/></g><path class="cls-5" d="M207.58 258.48c0-3.21-26-26.81-58.13-25.52s-35.36-32.69-8.72-41.7c32.17-10.88 87.65-11.36 99.87 20.79s4.25 80.69-40.76 93.55c-33.13 9.47-76.36 13.23-112.11-15.19-21.37-17-28.73-40.65-30.87-67.87a185.55 185.55 0 012.42-45.84c4.6-26.1 15.93-40.27 31.36-39.63s26.59 4.55 25 40.58 4.25 52.72-16.32 54.65-33.61-13.59-33.15-45.3"/><path class="cls-5" d="M110.83 141.32c7.73-10.45 18.41-14.18 29.44-14.25 13.6-.08 21 10.41 24.55 22.88 3.5 12.19 3.72 21.79 3.54 34.36m-55.46 44.04s3 11.71 18.18 15.91c9.15 2.53 24.35 3.21 30.79-9.65m-.78-98.11c5.15-9.62 17.69-11.47 27.43-9.43 8.28 1.74 14.08 7.14 18.72 14.89 2.89 4.84 3.86 15 4.5 20.58 1.61 14.15 1.17 13.41.52 26M206 138.11c9.75-4.78 22-1.07 29 7.35 5 6 6.65 12 8.62 19.57 4 15.4 2.25 28.52-1.71 43.71M149 312.27s15.62-1.84 21.6-17.47"/><path d="M152.77 325s-10.85 80.46 24.51 121.34 88.86 56.38 149.53 39.22 80.87-52.53 76-93.15-8-44.13-8-44.13 34.32-87-38-91.92c0 0-41.67-28.8-65.57-1.84 0 0-34.94-27.58-69.87 9.19.03-.01-52.67-42.29-68.6 61.29z" fill="#aece00"/><path d="M187.62 384.54s17.71 45.71 52 54.85S302.44 428 302.44 428s32 18.85 51.41-8c0 0-28-30.85-60-34.84 0 0-30.85 40.56-67.41-5.15.02-.01-21.11 13.67-38.82 4.53zm64.55-53.69s44.56-34.85 105.11-28.57 40.56 53.13 40.56 53.13-35.99-61.7-145.67-24.56z" fill="#a4bd00"/><g class="cls-3"><path class="cls-4" d="M183.62 286.34c3.58-7 12.28-6.83 16.52-1.21 3.19 4.23 4.38 9.95 5.24 15.06 1.7 10.13 1.67 20.43 3.33 30.58.34 2.1 3.26 1.34 3.45-.47 1.39-13.31 1.55-27.38-3.08-40.16-2-5.44-4.82-10.67-10.47-12.86a13.43 13.43 0 00-9.47-.29c-4.55 1.59-5.9 4.41-7.52 8.51-.45 1.15 1.44 1.93 2 .84z"/></g><g class="cls-3"><path class="cls-4" d="M253.66 269.5c7.47-6.11 10.62 5.54 12.26 11.07 1.9 6.41 2.53 14.6 7 19.85 1.34 1.58 3.67.18 3.78-1.57.81-12.14-8.56-49.28-26-32.34-2 1.94.92 4.67 3 3z"/></g><g class="cls-3"><path class="cls-4" d="M316.74 264.72c10.25-5.54 15.5 15.69 18.92 21.13 1 1.65 4.19 1.64 4.56-.6 2-12-12.62-34.2-26-23.73-1.88 1.47.51 4.25 2.47 3.2z"/></g><g class="cls-3"><path class="cls-4" d="M278 350.39c4.43-4.47 14.05-4.57 19.89-4.44 7.81.16 15.94.78 23.71 1.54a153.51 153.51 0 0131.4 6.09 48.94 48.94 0 0112 5.35c3.93 2.54 6.06 6.45 9.57 9.28 1.58 1.28 4.51.61 4.38-1.81-.46-9.06-12-14.8-19.23-17.81a124.15 124.15 0 00-35.36-8.59 140.39 140.39 0 00-28.4.29c-7.87.84-14.57 2.47-19.51 9-.68.9.78 2 1.55 1.19z"/></g><path class="cls-5" d="M352.22 418.11c0-4.28-34.64-35.75-77.51-34s-47.16-43.59-11.64-55.61C306 314 380 313.31 396.27 356.19S401.93 463.8 341.91 481c-44.18 12.62-101.84 17.65-149.51-20.26-28.5-22.66-38.31-54.21-41.17-90.51a247.77 247.77 0 013.22-61.13c6.14-34.81 21.25-53.71 41.83-52.85s35.47 6.07 33.36 54.11 5.66 70.32-21.77 72.89-44.87-18.18-44.23-60.41"/><path class="cls-5" d="M223.2 261.87c10.31-14 24.56-18.91 39.26-19 18.14-.11 28 13.88 32.74 30.5 4.67 16.26 5 29.06 4.73 45.83M226 377.93s4.07 15.61 24.25 21.21c12.2 3.38 32.48 4.29 41.06-12.87m-1.08-130.83c6.86-12.84 23.6-15.3 36.58-12.57 11 2.32 18.78 9.51 25 19.85 3.86 6.46 5.16 20 6 27.44 2.14 18.87 1.55 17.89.7 34.61m-8.45-67.19c13-6.38 29.28-1.42 38.65 9.8 6.72 8.05 8.86 16 11.48 26.1 5.34 20.55 3 38-2.27 58.3M274.11 489.84s20.83-2.45 28.8-23.29"/></svg>