<?xml version="1.0" encoding="utf-8"?>
<!-- Generator: Adobe Illustrator 25.4.1, SVG Export Plug-In . SVG Version: 6.00 Build 0)  -->
<svg version="1.1" id="Vrstva_1" xmlns="http://www.w3.org/2000/svg" xmlns:xlink="http://www.w3.org/1999/xlink" x="0px" y="0px"
	 viewBox="0 0 17.3 18" style="enable-background:new 0 0 17.3 18;" xml:space="preserve">
<style type="text/css">
	.st0{fill-rule:evenodd;clip-rule:evenodd;}
</style>
<path class="st0" d="M2.3,2c0-1.1,0.9-2,2-2h8.8c1.1,0,2,0.9,2,2v15c0,0,0,0.1,0,0.1h1.8c0.2,0,0.5,0.2,0.5,0.5
	c0,0.2-0.2,0.5-0.5,0.5h-2.8l0,0H3.3l0,0H0.4C0.2,18,0,17.8,0,17.5c0-0.2,0.2-0.5,0.4-0.5h1.8c0,0,0-0.1,0-0.1V2z M5.7,2.9
	c-0.6,0-1,0.4-1,1v0.9c0,0.6,0.4,1,1,1h0.9c0.6,0,1-0.4,1-1V3.9c0-0.6-0.4-1-1-1H5.7z M4.7,8.7c0-0.6,0.4-1,1-1h0.9c0.6,0,1,0.4,1,1
	v0.9c0,0.6-0.4,1-1,1H5.7c-0.6,0-1-0.4-1-1V8.7z M10.5,7.7c-0.6,0-1,0.4-1,1v0.9c0,0.6,0.4,1,1,1h0.9c0.6,0,1-0.4,1-1V8.7
	c0-0.6-0.4-1-1-1H10.5z M9.5,3.9c0-0.6,0.4-1,1-1h0.9c0.6,0,1,0.4,1,1v0.9c0,0.6-0.4,1-1,1h-0.9c-0.6,0-1-0.4-1-1V3.9z M6.9,12.4
	c-0.6,0-1,0.4-1,1v3.7h5.6v-3.7c0-0.6-0.4-1-1-1H6.9z"/>
</svg>
