<?xml version="1.0" encoding="utf-8"?>
<!-- Generator: Adobe Illustrator 25.4.1, SVG Export Plug-In . SVG Version: 6.00 Build 0)  -->
<svg version="1.1" id="Vrstva_1" xmlns="http://www.w3.org/2000/svg" xmlns:xlink="http://www.w3.org/1999/xlink" x="0px" y="0px"
	 viewBox="0 0 15 15" style="enable-background:new 0 0 15 15;" xml:space="preserve">
<path fill-rule="evenodd" clip-rule="evenodd" fill="currentColor" d="M0,7.5C0,3.6,3.2,0,7.5,0C11.8,0,15,3.5,15,7.5c0,4.6-3.8,7.5-7.5,7.5c-1.2,0-2.6-0.3-3.7-1
	c-0.4-0.2-0.7-0.4-1.1-0.3l-1.5,0.5c-0.4,0.1-0.7-0.2-0.6-0.6l0.5-1.7c0.1-0.2,0.1-0.5-0.1-0.7C0.4,10.1,0,8.8,0,7.5z M6.5,7.5
	c0,0.5,0.4,1,1,1c0.5,0,1-0.4,1-1c0-0.5-0.4-1-1-1C7,6.5,6.5,7,6.5,7.5z M10,7.5c0,0.5,0.4,1,1,1s1-0.4,1-1c0-0.5-0.4-1-1-1
	S10,7,10,7.5z M4,8.5c-0.5,0-1-0.4-1-1c0-0.5,0.4-1,1-1s1,0.4,1,1C5,8,4.6,8.5,4,8.5z"/>
</svg>
