<svg xmlns="http://www.w3.org/2000/svg" viewBox="0 0 17 17" style="enable-background:new 0 0 17 17" xml:space="preserve"><path d="M8.5 0c.6 0 1.2.1 1.8.2.5.1.7.7.3 1.1-.4.4-.6.9-.6 1.5 0 1 .7 1.9 1.6 2.1.3.1.5.4.5.7v.2c0 1.2 1 2.1 2.1 2.1.6 0 1.2-.3 1.6-.7.4-.4 1-.2 1.1.3 0 .3.1.7.1 1 0 4.7-3.8 8.5-8.5 8.5S0 13.2 0 8.5 3.8 0 8.5 0zm0 1.3c-4 0-7.2 3.2-7.2 7.2s3.2 7.2 7.2 7.2c3.8 0 6.9-2.9 7.2-6.6V8.8l-.2.1c-.2.1-.5.2-.8.2h-.4c-1.7 0-3.1-1.3-3.4-2.9v-.4l-.1-.1c-1.1-.5-1.9-1.5-2-2.7v-.4c0-.4.1-.8.2-1.1v-.2h-.5zm2.6 10.6c.5 0 .8.4.8.9s-.4.9-.8.9c-.5 0-.9-.4-.9-.9s.4-.9.9-.9zm-6-.8c.5 0 .8.4.8.8s-.4.9-.8.9c-.5 0-.8-.4-.8-.9s.3-.8.8-.8zm3.4-3.4c.5 0 .9.3.9.8s-.4.9-.9.9-.8-.4-.8-.9.3-.8.8-.8zM4.2 5.1c.5 0 .8.4.8.8 0 .5-.4.9-.8.9s-.8-.4-.8-.9c0-.4.4-.8.8-.8z"/></svg>
