<?xml version="1.0" encoding="utf-8"?>
<!-- Generator: Adobe Illustrator 26.0.1, SVG Export Plug-In . SVG Version: 6.00 Build 0)  -->
<svg version="1.1" id="Vrstva_1" xmlns="http://www.w3.org/2000/svg" xmlns:xlink="http://www.w3.org/1999/xlink" x="0px" y="0px"
	 viewBox="0 0 28 28" style="enable-background:new 0 0 28 28;" xml:space="preserve">
<circle fill="#D5E0F9" cx="14" cy="14" r="14"/>
<path fill="#28367B" d="M14,28C6.3,28,0,21.7,0,14S6.3,0,14,0s14,6.3,14,14S21.7,28,14,28z M14,2C7.4,2,2,7.4,2,14c0,6.6,5.4,12,12,12
	s12-5.4,12-12C26,7.4,20.6,2,14,2z"/>
<path fill="#28367B" d="M14,21.3c-1.1,0-2.2-0.2-3.2-0.4c-1.1-0.3-2-0.8-2.7-1.4c-0.4-0.4-0.5-1-0.1-1.4c0.4-0.4,1-0.5,1.4-0.1
	c0.5,0.4,1.1,0.7,2,1c1.6,0.5,3.7,0.5,5.3,0c0.8-0.2,1.5-0.6,2-1c0.4-0.4,1-0.3,1.4,0.1c0.4,0.4,0.3,1-0.1,1.4
	c-0.7,0.6-1.6,1.1-2.7,1.4C16.2,21.2,15.1,21.3,14,21.3z"/>
<path fill="#28367B" d="M10,9.5c-1,0-1.8,0.8-1.8,1.8c0,1,0.8,1.8,1.8,1.8c1,0,1.8-0.8,1.8-1.8C11.8,10.3,11,9.5,10,9.5z"/>
<path fill="#28367B" d="M18,9.5c-1,0-1.8,0.8-1.8,1.8c0,1,0.8,1.8,1.8,1.8c1,0,1.8-0.8,1.8-1.8C19.8,10.3,19,9.5,18,9.5z"/>
</svg>
