<?xml version="1.0" encoding="utf-8"?>
<!-- Generator: Adobe Illustrator 26.0.1, SVG Export Plug-In . SVG Version: 6.00 Build 0)  -->
<svg version="1.1" id="Vrstva_1" xmlns="http://www.w3.org/2000/svg" xmlns:xlink="http://www.w3.org/1999/xlink" x="0px" y="0px"
	 viewBox="0 0 24.3 32.2" style="enable-background:new 0 0 24.3 32.2;" xml:space="preserve">
<path fill="#D5E0F9" d="M18.9,8.1c0-3.7-3-6.8-6.8-6.8s-6.8,3-6.8,6.8s3,6.8,6.8,6.8S18.9,11.9,18.9,8.1z"/>
<path fill="#2D3B77" d="M12.1,2.7c-3,0-5.5,2.4-5.5,5.5c0,3,2.4,5.5,5.5,5.5c3,0,5.5-2.4,5.5-5.5C17.6,5.1,15.2,2.7,12.1,2.7z
	 M12.1,16.2C7.7,16.2,4,12.6,4,8.1C4,3.6,7.7,0,12.1,0c4.5,0,8.1,3.6,8.1,8.1C20.3,12.6,16.6,16.2,12.1,16.2z"/>
<path fill="#D5E0F9" d="M1.3,30.9l10.8-12l10.8,12"/>
<path fill="#2D3B77" d="M4.3,29.5H20l-7.8-8.7L4.3,29.5z M23,32.2H1.3c-0.5,0-1-0.3-1.2-0.8c-0.2-0.5-0.1-1,0.2-1.4l10.8-12
	c0.3-0.3,0.6-0.4,1-0.4c0.4,0,0.7,0.2,1,0.4l10.8,12c0.4,0.4,0.4,1,0.2,1.4C24,31.9,23.5,32.2,23,32.2z"/>
</svg>
