<?xml version="1.0" encoding="utf-8"?>
<!-- Generator: Adobe Illustrator 25.4.1, SVG Export Plug-In . SVG Version: 6.00 Build 0)  -->
<svg version="1.1" id="Vrstva_1" xmlns="http://www.w3.org/2000/svg" xmlns:xlink="http://www.w3.org/1999/xlink" x="0px" y="0px"
	 viewBox="0 0 14.5 14.5" style="enable-background:new 0 0 14.5 14.5;" xml:space="preserve">
<path fill="currentColor" d="M1.8,0.3L1.8,0.3c0.4-0.4,1.1-0.4,1.5-0.1l2.1,2.1c0.4,0.4,0.4,1,0,1.4L3.9,5.4C3.6,5.6,3.5,6,3.7,6.4
	c1,1.9,2.5,3.5,4.5,4.5c0.3,0.2,0.7,0.1,1-0.2l1.5-1.5c0.4-0.4,1-0.4,1.4,0l2.1,2.1c0.4,0.4,0.4,1,0,1.4l-0.1,0.1
	c-2.1,2.1-5.5,2.3-7.8,0.6L6,13.1c-1.7-1.3-3.3-2.9-4.6-4.6L1.2,8.2C-0.6,5.8-0.4,2.5,1.8,0.3z"/>
</svg>
