<?xml version="1.0" encoding="utf-8"?>
<!-- Generator: Adobe Illustrator 25.4.1, SVG Export Plug-In . SVG Version: 6.00 Build 0)  -->
<svg version="1.1" id="Vrstva_1" xmlns="http://www.w3.org/2000/svg" xmlns:xlink="http://www.w3.org/1999/xlink" x="0px" y="0px"
	 viewBox="0 0 16 16" style="enable-background:new 0 0 16 16;" xml:space="preserve">
<path fill-rule="evenodd" clip-rule="evenodd" fill="currentColor" d="M8,16c4.4,0,8-3.6,8-8c0-4.4-3.6-8-8-8C3.6,0,0,3.6,0,8C0,12.4,3.6,16,8,16z M7.2,8.1C7.1,8.4,7,8.8,7,9.4h1.5
	l0-0.4c0-0.4,0.2-0.7,0.5-1l0.5-0.5c0.4-0.4,0.6-0.7,0.8-1c0.1-0.3,0.2-0.6,0.2-0.9c0-0.7-0.2-1.3-0.7-1.7C9.4,3.6,8.8,3.4,7.9,3.4
	C7.1,3.4,6.5,3.6,6,4C5.5,4.4,5.3,5,5.3,5.7H7C7,5.4,7.1,5.2,7.2,5c0.2-0.2,0.4-0.3,0.7-0.3c0.6,0,0.9,0.3,0.9,1
	c0,0.2-0.1,0.4-0.2,0.6C8.6,6.5,8.3,6.8,8,7.1C7.6,7.4,7.4,7.8,7.2,8.1z M7.1,10.5c-0.2,0.2-0.3,0.4-0.3,0.6c0,0.3,0.1,0.5,0.3,0.6
	c0.2,0.2,0.4,0.3,0.7,0.3s0.5-0.1,0.7-0.3c0.2-0.2,0.3-0.4,0.3-0.6c0-0.3-0.1-0.5-0.3-0.6c-0.2-0.2-0.4-0.3-0.7-0.3
	S7.3,10.4,7.1,10.5z"/>
</svg>
