<?xml version="1.0" encoding="utf-8"?>
<!-- Generator: Adobe Illustrator 25.4.1, SVG Export Plug-In . SVG Version: 6.00 Build 0)  -->
<svg version="1.1" id="Vrstva_1" xmlns="http://www.w3.org/2000/svg" xmlns:xlink="http://www.w3.org/1999/xlink" x="0px" y="0px"
	 viewBox="0 0 16 16" style="enable-background:new 0 0 16 16;" xml:space="preserve">
<style type="text/css">
	.st0{fill-rule:evenodd;clip-rule:evenodd;}
</style>
<path class="st0" d="M0,8c0-3.8,0-5.7,1.2-6.8C2.3,0,4.2,0,8,0c3.8,0,5.7,0,6.8,1.2C16,2.3,16,4.2,16,8c0,3.8,0,5.7-1.2,6.8
	C13.7,16,11.8,16,8,16c-3.8,0-5.7,0-6.8-1.2C0,13.7,0,11.8,0,8z M4.8,11.8c0.9-0.7,2.1-1.1,3.2-1.1s2.3,0.4,3.2,1.1
	c0.9,0.7,1.6,1.7,1.9,2.8c0.1,0.3-0.1,0.5-0.4,0.6c-0.3,0.1-0.5-0.1-0.6-0.4c-0.2-0.9-0.8-1.7-1.5-2.3C9.9,12,8.9,11.7,8,11.7
	S6.1,12,5.4,12.6c-0.8,0.6-1.3,1.4-1.5,2.3c-0.1,0.3-0.3,0.4-0.6,0.4c-0.3-0.1-0.4-0.3-0.4-0.6C3.2,13.5,3.8,12.5,4.8,11.8z
	 M6.1,5.6c0-1,0.9-1.9,1.9-1.9s1.9,0.9,1.9,1.9S9,7.5,8,7.5S6.1,6.6,6.1,5.6z M8,2.7C6.4,2.7,5.1,4,5.1,5.6c0,1.6,1.3,2.9,2.9,2.9
	c1.6,0,2.9-1.3,2.9-2.9C10.9,4,9.6,2.7,8,2.7z"/>
</svg>
