<svg xmlns="http://www.w3.org/2000/svg" viewBox="0 0 17.33 15.75"><path d="M9.55,1.5H7.77a.5.5,0,0,0-.5.5v.17h2.78V2A.5.5,0,0,0,9.55,1.5Z" transform="translate(0 0)" style="fill:none"/><path d="M9.25,14H8.08a1.5,1.5,0,0,1-1.5-1.5V12H1v2.8a1,1,0,0,0,1,1h13.4a1,1,0,0,0,1-1V12H10.75v.58A1.5,1.5,0,0,1,9.25,14Z" transform="translate(0 0)" fill="currentColor"/><path d="M15.83,2.17H11.55V2a2,2,0,0,0-2-2H7.77a2,2,0,0,0-2,2v.17H1.5A1.5,1.5,0,0,0,0,3.67V9.36a1.5,1.5,0,0,0,1.5,1.5H6.58v-.58a1.5,1.5,0,0,1,1.5-1.5H9.25a1.5,1.5,0,0,1,1.5,1.5v.58h5.08a1.5,1.5,0,0,0,1.5-1.5V3.67A1.5,1.5,0,0,0,15.83,2.17Zm-5.78,0H7.27V2a.5.5,0,0,1,.5-.5H9.55a.5.5,0,0,1,.5.5Z" transform="translate(0 0)" fill="currentColor"/><rect x="7.58" y="9.78" width="2.17" height="3.26" rx="0.5" fill="currentColor"/><path d="M9.25,8.78H8.08a1.5,1.5,0,0,0-1.5,1.5v2.25A1.5,1.5,0,0,0,8.08,14H9.25a1.5,1.5,0,0,0,1.5-1.5V10.28A1.5,1.5,0,0,0,9.25,8.78Zm0,4.25H8.08a.5.5,0,0,1-.5-.5V10.28a.5.5,0,0,1,.5-.5H9.25a.5.5,0,0,1,.5.5v2.25A.5.5,0,0,1,9.25,13Z" transform="translate(0 0)" style="fill:none"/></svg>
