<svg width="69" height="69" viewBox="0 0 69 69" fill="none" xmlns="http://www.w3.org/2000/svg"><g clip-path="url(#clip0_1733:15967)"><path d="M57.163 0a3.62 3.62 0 00-3.583 3.06 19.936 19.936 0 01-19.695 16.87A19.936 19.936 0 0114.191 3.057 3.624 3.624 0 0010.59 0h46.574z" fill="#28367B"/><path d="M68.984 0v69H0V0h10.59a3.624 3.624 0 013.6 3.059 19.936 19.936 0 0019.696 16.87A19.936 19.936 0 0053.58 3.057 3.62 3.62 0 0157.164 0h11.82z" fill="#B6CD1E"/><path d="M69 52.17H.007v10.456H69V52.17zm-42.89-21.7c-4.185 0-7.59 3.358-7.59 7.484 0 4.127 3.405 7.484 7.59 7.484h16.78c4.185 0 7.59-3.357 7.59-7.484s-3.405-7.483-7.59-7.483H26.11z" fill="#fff"/><path d="M26.11 30.47c-4.185 0-7.59 3.358-7.59 7.484 0 4.127 3.405 7.484 7.59 7.484h16.78c4.186 0 7.592-3.357 7.592-7.484s-3.406-7.483-7.592-7.483H26.11zm16.78 15.58H26.11c-4.529 0-8.213-3.631-8.213-8.096s3.684-8.097 8.213-8.097h16.78c4.53 0 8.214 3.632 8.214 8.097s-3.685 8.097-8.214 8.097z" fill="#28367B"/><path d="M36.21 36.039c-.503 0-.86.193-1.078.624-.307-.455-.567-.624-1.11-.624-.544 0-.9.16-1.168.674v-.576h-.989v3.933h1.054v-2.384c0-.512.22-.767.64-.767.463 0 .634.159.634.79v2.366h1.053v-2.35c0-.48.283-.838.674-.838.391 0 .624.335.624.808v2.382h1.03V37.35c0-.736-.56-1.311-1.361-1.311m4.082 3.292c-.503 0-.892-.463-.892-1.126 0-.855.3-1.278.884-1.278.616 0 .908.404.908 1.213 0 .703-.373 1.19-.9 1.19v.001zm.331-3.293a1.378 1.378 0 00-1.183.616v-1.95h-1.035v5.371h1.014l.008-.48a1.221 1.221 0 001.11.584c1.005 0 1.728-.783 1.728-2.11 0-1.19-.61-2.03-1.639-2.03m3.843.823c.412 0 .809.28.818.863h-1.635c.04-.54.39-.863.809-.863h.008zm.04 2.494c-.518 0-.86-.385-.892-.975h2.748c0-1.559-.648-2.342-1.872-2.342-1.223 0-1.93.783-1.93 1.999 0 1.421.665 2.141 1.995 2.141.85 0 1.508-.456 1.752-1.263h-1.086c-.073.27-.374.44-.713.44m-17.558-5.32l-4.327.646.14.916 1.604-.238.664 4.328 1.115-.165-.666-4.33 1.612-.24-.142-.917zm2.784 4.609c-.107.51-.462.82-.986.713-.437-.089-.609-.369-.508-.854l.5-2.379-1.032-.21-.533 2.535c-.178.845.251 1.528 1.029 1.687.539.11.988-.01 1.347-.395l-.113.54a1.336 1.336 0 01-2.53.238l-.92.379a2.336 2.336 0 004.426-.418l.808-3.85-1.024-.21-.465 2.224z" fill="#28367B"/></g><defs><clipPath id="clip0_1733:15967"><rect width="69" height="69" rx="3" fill="#fff"/></clipPath></defs></svg>