<svg width="69" height="69" viewBox="0 0 69 69" fill="none" xmlns="http://www.w3.org/2000/svg"><path d="M69 0H0v69h69V0z" fill="#B6CD1E"/><path d="M26.11 46.05c-4.188 0-7.594 3.357-7.594 7.484 0 4.128 3.407 7.485 7.594 7.485h16.78c4.188 0 7.595-3.358 7.595-7.485 0-4.126-3.407-7.484-7.594-7.484H26.11z" fill="#fff"/><path d="M26.11 46.05c-4.188 0-7.595 3.357-7.595 7.484 0 4.128 3.407 7.485 7.594 7.485H42.89c4.188 0 7.594-3.358 7.594-7.485 0-4.126-3.407-7.484-7.594-7.484H26.11zm16.78 15.582H26.11c-4.531 0-8.221-3.638-8.221-8.098 0-4.459 3.684-8.098 8.22-8.098H42.89c4.531 0 8.221 3.639 8.221 8.098 0 4.46-3.684 8.098-8.22 8.098z" fill="#28367B"/><path d="M36.21 51.615c-.503 0-.86.192-1.078.624-.307-.455-.567-.624-1.11-.624-.544 0-.9.16-1.168.674v-.566h-.989v3.935h1.054v-2.392c0-.512.218-.767.64-.767.463 0 .634.16.634.791v2.368h1.053v-2.353c0-.478.283-.838.674-.838.391 0 .624.336.624.809v2.382h1.03v-2.727c0-.736-.56-1.312-1.361-1.312m4.082 3.294c-.503 0-.89-.464-.89-1.128 0-.854.298-1.278.882-1.278.617 0 .908.405.908 1.213 0 .704-.372 1.192-.9 1.192v.001zm.338-3.298a1.375 1.375 0 00-1.183.616v-1.946h-1.042v5.373h1.014l.008-.48a1.214 1.214 0 001.11.584c1.005 0 1.728-.783 1.728-2.11 0-1.19-.61-2.03-1.639-2.03m3.844.821c.413 0 .808.28.82.862h-1.629c.04-.539.39-.862.809-.862zm.048 2.493c-.519 0-.86-.383-.892-.975h2.75c0-1.559-.649-2.342-1.874-2.342s-1.93.783-1.93 1.999c0 1.421.665 2.141 1.995 2.141.851 0 1.508-.455 1.752-1.263h-1.087c-.074.27-.373.44-.714.44zm-17.566-5.319l-4.329.645.14.917 1.604-.24.666 4.331 1.114-.167-.666-4.33 1.612-.241-.141-.915zm2.784 4.61c-.108.508-.463.82-.987.712-.436-.09-.609-.37-.508-.855l.5-2.378-1.032-.21-.532 2.534c-.178.845.25 1.529 1.028 1.688.539.11.988-.011 1.347-.394l-.113.54a1.337 1.337 0 01-2.53.238l-.92.378a2.336 2.336 0 004.429-.417l.808-3.85-1.024-.21-.466 2.224z" fill="#28367B"/><path d="M53.172 40.978H15.828a4.8 4.8 0 01-4.802-4.802V15.288a4.802 4.802 0 014.802-4.802h37.344a4.802 4.802 0 014.801 4.802v20.888a4.802 4.802 0 01-4.801 4.802z" fill="#fff"/><path d="M57.989 17.444l-.47-.356a2.132 2.132 0 01-.755-2.323l.171-.564a2.131 2.131 0 00-2-2.746l-.589-.01a2.132 2.132 0 01-1.977-1.443l-.191-.558a2.132 2.132 0 00-3.234-1.05l-.483.337a2.135 2.135 0 01-2.443 0l-.483-.338a2.132 2.132 0 00-3.234 1.051l-.192.558a2.132 2.132 0 01-1.977 1.435l-.588.011a2.132 2.132 0 00-2 2.753l.172.564a2.132 2.132 0 01-.756 2.323l-.47.356c-.193.15-.358.332-.487.539h-18.63a.363.363 0 100 .725h18.312a2.127 2.127 0 00.8 2.139l.47.354a2.132 2.132 0 01.756 2.324l-.173.563c-.126.419-.117.866.025 1.28h-20.19a.363.363 0 000 .725h20.6a2.1 2.1 0 001.565.748l.59.011a2.132 2.132 0 011.976 1.435l.191.558a2.132 2.132 0 003.235 1.051l.482-.338a2.134 2.134 0 012.444 0l.482.338a2.133 2.133 0 003.234-1.05l.192-.559a2.132 2.132 0 011.977-1.435l.589-.01a2.131 2.131 0 002-2.754l-.172-.563a2.132 2.132 0 01.755-2.324l.47-.354a2.13 2.13 0 00.006-3.403zm-9.893 13.653l-.481-.344a.653.653 0 00-.758 0l-.482.344a3.552 3.552 0 01-3.752.224v1.434h-25.25a.363.363 0 100 .725h25.25v9.46a.515.515 0 00.842.397l3.461-2.703a.514.514 0 01.62 0l3.477 2.703a.506.506 0 00.826-.397V31.32a3.556 3.556 0 01-3.753-.223z" fill="#28367B"/><path d="M45.442 24.083h-.057a3.396 3.396 0 01-2.407-1.07l-2.167-2.317a1.812 1.812 0 112.646-2.473l1.992 2.127 5.614-5.615a1.81 1.81 0 112.56 2.56l-5.794 5.796a3.39 3.39 0 01-2.387.992z" fill="#B6CD1E"/></svg>