<svg version="1.1" id="Vrstva_1" xmlns="http://www.w3.org/2000/svg" x="0" y="0" viewBox="0 0 119.1 40" style="enable-background:new 0 0 119.1 40" xml:space="preserve"><style>.st0{fill:#222}</style><path id="Path" class="st0" d="M0 20.1V20C-.1 14.6 2 9.5 5.8 5.7s9-5.8 14.3-5.7c5.7-.3 11.2 1.9 15.2 6L30 12.2c-2.6-2.7-6.1-4.3-9.9-4.4-6.5 0-11.2 5.4-11.2 12v.2c0 6.6 4.6 12.1 11.2 12.1 4.4 0 7.1-1.8 10.2-4.5l5.4 5.5c-3.9 4.6-9.8 7.2-15.8 6.9-5.3.1-10.4-2-14.1-5.7S-.1 25.4 0 20.1z"/><path id="Path_00000147914866332558796810000009916982362919927938_" class="st0" d="M41.7 20.1V20c-.1-5.4 2-10.5 5.8-14.3 3.8-3.8 9-5.8 14.3-5.7C67.5-.3 73 1.9 77 6l-5.4 6.2c-2.6-2.7-6.1-4.3-9.9-4.4-6.5 0-11.2 5.4-11.2 12v.2c0 6.6 4.6 12.1 11.2 12.1 4.4 0 7.1-1.8 10.2-4.5l5.4 5.5c-3.9 4.6-9.8 7.2-15.8 6.9-5.3.1-10.4-2-14.1-5.7s-5.8-8.9-5.7-14.2z"/><path id="Path_00000026862877272634872220000005166007040387057031_" class="st0" d="M83.4 20.1V20c-.1-5.4 2-10.5 5.8-14.3s9-5.8 14.3-5.7c5.7-.3 11.2 1.9 15.2 6l-5.4 6.2c-2.6-2.7-6.1-4.3-9.9-4.4-6.5 0-11.2 5.4-11.2 12v.2c0 6.6 4.6 12.1 11.2 12.1 4.4 0 7.1-1.8 10.2-4.5l5.4 5.5c-3.9 4.6-9.8 7.2-15.8 6.9-5.3.1-10.4-2-14.1-5.7-3.7-3.8-5.8-8.9-5.7-14.2z"/></svg>