<svg version="1.1" id="layer" xmlns="http://www.w3.org/2000/svg" x="0" y="0" viewBox="0 0 148.7 40" style="enable-background:new 0 0 148.7 40" xml:space="preserve"><style>.st1{fill-rule:evenodd;clip-rule:evenodd;fill:#001652}</style><path style="fill:#001652" d="m114.3 6.8-6.3 33h15.3l1.5-8.2h-6.9l4.8-24.8z"/><path class="st1" d="M142.7 14.1c1.4 0 3.3.3 4.6.7l1.4-7.6c-1.8-.3-3.6-.5-5.7-.5-9.1 0-13.4 5.5-13.4 11.6 0 8 8.1 7.9 8.1 11.3 0 1.7-1.2 2.7-3.8 2.7-1.8 0-4.3-.4-5.7-1l-1.6 8.2c1.7.3 4.1.5 6.5.5 8.1 0 13.9-5.4 13.9-12 0-7.8-8.2-7.9-8.2-11.3-.1-1.5.9-2.6 3.9-2.6M101.3 6.8c-12.6 0-20.6 9.4-20.6 20.9 0 7.2 3.8 12.2 13.4 12.2 3.8 0 7.8-.7 11-2.1l3.1-16h-8.4L98 31.5c-.7.2-1.6.2-2.3.2-4.2 0-5.7-2.4-5.7-5.4 0-5.7 3.5-11.7 10.7-11.7 2 0 4.2.4 6.2 1 .2 0 .4.1.6.2.7.2 1.3.5 1.8.7l1.7-8.6c-3-.6-6.5-1.1-9.7-1.1"/><path d="m38.2 6.8-2.3 11h15.6C38.6 37 13 33.7 6.2 25.8.4 19 5.4 7.3 22.7 0 5.6 5.2-4 18.9 1.6 28.1 8 38.6 28 43 45.7 37.9c11.9-4.2 16.9-10 18.8-13.2l-2.9 15.2h11.7l6.3-33H38.2z" style="fill-rule:evenodd;clip-rule:evenodd;fill:#febe10"/></svg>