<svg version="1.1" id="Vrstva_1" xmlns="http://www.w3.org/2000/svg" x="0" y="0" viewBox="0 0 53.8 40" style="enable-background:new 0 0 53.8 40" xml:space="preserve"><style>.st0{fill:#e30613}.st1{fill-rule:evenodd;clip-rule:evenodd}.st1,.st2{fill:#fff}</style><path class="st0" d="M53.8 38H0v2h53.8v-2zM53.8 0H0v30.8h53.8V0z"/><path d="M53.8 31.4H0v5.9h53.8v-5.9z"/><path class="st1" d="M36.6 13.5v4.1h3.2c2.6 0 3.9-.8 3.8-2.3-.1-1.3-1.4-1.9-4-1.9l-3 .1zM5 10.1h6.4v7.5h8v-7.5h6.4v17.1h-6.4V21h-8v6.2H5V10.1zm25 0h11.2c5.2 0 9.2 1.7 9.2 5.5 0 5.2-5.1 5.5-9.2 5.5h-4.6v6.2H30V10.1zM38.5 32.5v3.9h.8v-3.9h-.8zm-7.8.4 4.8 3.5h1.1v-3.9h-.8v3.6l-4.7-3.5H30v3.9h.7v-3.6zm-6 3.2H23c-.9 0-1.1-.4-1.1-1.1v-1.2c0-.7.1-1 1.1-1h3.2c1.2 0 1.2.4 1.2 1V35c0 .6-.2 1-1.1 1-.4.1-1 .1-1.6.1zm0 .4h1.9c.6 0 1.2 0 1.4-.5.2-.5.2-2.4.1-3-.1-.5-.8-.6-1.4-.6h-3.9c-.5 0-1.3.1-1.4.6-.2.7-.2 2.5.1 3 .3.5.9.5 1.4.5h1.8zM48 35.1c0 .3-.1.6-.2.9-.3.4-.8.5-1.3.5h-3.6c-.5 0-1.1 0-1.4-.5-.3-.6-.3-2.2 0-2.9.2-.4.9-.6 1.4-.6h3.8c.8 0 1 .2 1.3.5.1.2.2.5.1.7h-.8c0-.5-.1-.8-.9-.8h-3.1c-.8 0-1.1.4-1.1.9V35c0 .5.1 1 .9 1.1h3.3c.6 0 .9-.2.9-1h.7zM8.5 33h2.8v-.4H4.9v.4h2.7v3.5h.8l.1-3.5zm4.4-.5v3.9h.8v-1.6h3.8c.8 0 1 .2 1 .7v.9h.8v-1.1c0-.5-.4-.6-1.1-.7 1-.1 1.2-.4 1.2-1 0-.9-.7-1.2-1.9-1.2h-4.6zm.7 1.9V33h3.7c.8 0 1.2.1 1.2.7 0 .5-.3.7-1.2.7h-3.7z"/><path class="st2" d="M48.4 24.3c-.2 0-.5 0-.7.1-.2.1-.4.2-.6.4s-.3.4-.4.6c-.1.2-.1.4-.1.7 0 .2 0 .5.1.7.1.2.2.4.4.6.2.2.4.3.6.4.2.1.5.1.7.1.2 0 .5 0 .7-.1.2-.1.4-.2.6-.4.2-.2.3-.4.4-.6.1-.2.1-.5.1-.7 0-.2 0-.5-.1-.7-.1-.2-.2-.4-.4-.6-.2-.2-.4-.3-.6-.4-.2-.1-.5-.1-.7-.1zm0 3.2c-.2 0-.4 0-.6-.1-.2-.1-.3-.2-.5-.3-.1-.1-.2-.3-.3-.5-.1-.2-.1-.4-.1-.6 0-.3.1-.6.3-.8.2-.2.4-.4.7-.5.3-.1.6-.1.8-.1.3.1.5.2.7.4.2.2.3.5.4.7.1.3 0 .6-.1.8-.1.3-.3.5-.5.6-.2.4-.5.4-.8.4z"/><path class="st2" d="M49.2 25.6c0-.4-.2-.6-.7-.6h-.8v2h.3v-.9h.4l.5.9h.4l-.6-.9h.2c.1 0 .1-.1.2-.1 0-.1.1-.1.1-.2v-.2zm-1.2.3v-.6h.4c.2 0 .5 0 .5.3s-.2.3-.5.3H48z"/></svg>