<svg width="136" height="30" viewBox="0 0 136 30" fill="none" xmlns="http://www.w3.org/2000/svg">
<path d="M22.6973 18.3245V4.14725C22.6973 2.68219 23.5312 1.82569 24.8611 1.82569H29.6394C34.4629 1.82569 37.1676 3.96693 37.1676 8.00148C37.1676 12.0586 34.5981 14.1547 29.6394 14.1547H26.8671V18.302C26.8671 19.4966 26.236 20.1953 25.0639 20.1953H24.4328C23.3509 20.2178 22.6973 19.5642 22.6973 18.3245ZM26.822 11.0443H29.5943C31.8708 11.0443 33.0879 9.98495 33.0879 8.04656C33.0879 6.13072 31.8708 5.0939 29.5718 5.0939H26.822V11.0443ZM38.5425 2.006C38.5425 0.766338 39.399 0 40.7739 0C42.1713 0 43.0053 0.743798 43.0053 2.006C43.0053 3.26821 42.1488 4.03455 40.7739 4.03455C39.399 4.03455 38.5425 3.29075 38.5425 2.006ZM38.7679 18.3245V8.11418C38.7679 6.67166 39.5342 6.19833 40.5485 6.19833H40.9768C42.0361 6.19833 42.7574 6.64912 42.7574 8.11418V18.3245C42.7574 19.767 42.0136 20.2178 41.0218 20.2178H40.5936C39.5342 20.2178 38.7679 19.8121 38.7679 18.3245ZM45.417 18.3245V0.924116C45.417 0.766341 46.1157 0.473329 46.9046 0.473329C48.0992 0.473329 49.384 1.10443 49.384 3.67392V18.3245C49.384 19.767 48.6402 20.2178 47.6259 20.2178H47.2202C46.1834 20.2178 45.417 19.8121 45.417 18.3245ZM61.4876 18.0541C60.5184 19.474 59.121 20.4883 56.9572 20.4883C53.3509 20.4883 51.8408 17.9414 51.8408 14.7858V8.11418C51.8408 6.67166 52.5846 6.19833 53.5988 6.19833H54.0271C55.0639 6.19833 55.8302 6.64912 55.8302 8.11418V14.1773C55.8302 16.003 56.7544 17.1299 58.4448 17.1299C59.7746 17.1299 60.834 16.3861 61.3975 15.3268V8.11418C61.3975 6.67166 62.1413 6.19833 63.1781 6.19833H63.5613C64.6206 6.19833 65.3644 6.64912 65.3644 8.11418V19.767C65.3644 19.9023 64.6882 20.2178 63.8768 20.2178C62.9076 20.2178 61.8032 19.8121 61.4876 18.0541ZM67.9565 18.3245V0.924116C67.9565 0.766341 68.6552 0.473329 69.4441 0.473329C70.6387 0.473329 71.9234 1.10443 71.9234 3.67392V18.3245C71.9234 19.767 71.1796 20.2178 70.1653 20.2178H69.7596C68.7228 20.2178 67.9565 19.8121 67.9565 18.3245ZM74.5154 18.3245V0.924116C74.5154 0.766341 75.2142 0.473329 76.003 0.473329C77.1976 0.473329 78.4824 1.10443 78.4824 3.67392V12.3065L82.3592 7.41546C83.0128 6.49134 83.8468 6.15325 84.568 6.15325C85.8302 6.15325 86.7994 7.30276 86.6867 7.50561L82.3366 12.8925L87.2502 18.9105C87.3629 19.1134 86.3486 20.2629 85.0864 20.2629C84.3426 20.2629 83.5312 19.9474 82.8325 19.0007L78.5275 13.7716V18.3245C78.5275 19.767 77.7837 20.2178 76.7694 20.2178H76.3411C75.2367 20.2178 74.5154 19.8121 74.5154 18.3245ZM87.7686 16.4538C87.7686 13.2757 90.5861 11.8557 96.6266 11.7656H97.0774C97.0774 9.98495 96.0857 9.01575 94.26 9.01575C92.3441 9.01575 91.3524 10.0526 90.8565 11.1345C90.8565 11.2021 88.287 11.2697 88.287 9.444C88.287 7.73101 90.3156 6.04055 94.5305 6.04055C98.8806 6.04055 101.022 8.02402 101.022 11.7205V19.8347C101.022 20.0375 100.278 20.2854 99.5342 20.2854C98.272 20.2854 97.4155 19.6093 97.1901 18.1217C96.1984 19.5642 94.4403 20.3981 92.4117 20.3981C89.5267 20.4207 87.7686 18.7978 87.7686 16.4538ZM97.0999 14.7182V13.9293L96.3561 13.9519C93.2232 14.042 91.5778 14.6731 91.5778 16.1607C91.5778 17.175 92.4117 17.8287 93.719 17.8287C95.7025 17.8287 97.0999 16.5214 97.0999 14.7182ZM103.073 18.4372V18.0541C103.073 16.8144 103.704 16.1833 104.944 16.1833H105.44C106.747 16.1833 107.355 16.8144 107.355 18.0541V18.4372C107.355 19.6769 106.724 20.308 105.44 20.308H104.944C103.727 20.308 103.073 19.6769 103.073 18.4372ZM108.843 13.2306C108.843 9.06084 111.886 6.06309 116.101 6.06309C120.316 6.06309 121.961 8.45227 121.961 9.78209C121.961 11.3824 119.842 11.6754 119.752 11.5402C119.211 10.2103 118.197 9.26369 116.258 9.26369C114.095 9.26369 112.494 10.9316 112.494 13.2532C112.494 15.6198 114.072 17.3102 116.258 17.3102C118.152 17.3102 119.211 16.3411 119.752 15.0338C119.82 14.8535 121.961 15.1239 121.961 16.8144C121.961 18.1217 120.203 20.5108 116.101 20.5108C111.818 20.4883 108.843 17.4906 108.843 13.2306ZM122.885 18.7077V18.4823C122.885 17.5807 123.133 17.2877 123.764 16.589L129.917 9.42146H124.576C123.471 9.42146 122.975 8.97067 122.975 7.97894V7.77609C122.975 6.85197 123.471 6.33357 124.576 6.33357H133.434C134.493 6.33357 134.966 7.00975 134.966 7.73101V7.93387C134.966 8.79036 134.718 9.08337 134.087 9.75955L127.754 17.0398H133.591C134.696 17.0398 135.192 17.4906 135.192 18.4823V18.6626C135.192 19.6318 134.696 20.1277 133.591 20.1277H124.35C123.313 20.1051 122.885 19.4064 122.885 18.7077Z" fill="#E6007E"/>
<path d="M15.5973 8.40739H12.036V4.62075C12.036 3.08806 10.7738 1.84839 9.24116 1.84839C7.68594 1.84839 6.44627 3.08806 6.44627 4.62075V8.40739H2.77235C1.21713 8.40739 0 9.66961 0 11.2023C0 12.7575 1.23967 13.9972 2.77235 13.9972H6.44627V17.4457C6.44627 18.9784 7.70848 20.2181 9.24116 20.2181C10.7738 20.2181 12.036 18.9784 12.036 17.4457V13.9972H15.6198C17.1525 13.9972 18.3922 12.735 18.3922 11.2023C18.3696 9.66961 17.13 8.40739 15.5973 8.40739Z" fill="#4EAD33"/>
<path d="M22.8545 29.3013V25.2442C22.8545 24.8835 23.0348 24.7032 23.3504 24.7032H23.5307C23.8688 24.7032 24.0491 24.8835 24.0491 25.2442V28.9181H26.01C26.3706 28.9181 26.5735 29.0984 26.5735 29.414V29.459C26.5735 29.7971 26.3932 29.9774 26.01 29.9774H23.4856C23.0799 29.9324 22.8545 29.707 22.8545 29.3013ZM28.9176 29.3013V25.3794C28.9176 24.9511 29.143 24.7257 29.5487 24.7257H32.4788C32.8395 24.7257 33.0423 24.9061 33.0423 25.2216V25.2667C33.0423 25.6048 32.862 25.7626 32.4788 25.7626H30.1347V26.7994H31.8477C32.2309 26.7994 32.4112 26.9797 32.4112 27.2727V27.3178C32.4112 27.6333 32.2309 27.7911 31.8477 27.7911H30.1347V28.9406H32.5239C32.8845 28.9406 33.0874 29.0984 33.0874 29.414V29.459C33.0874 29.7746 32.9071 29.9774 32.5239 29.9774H29.5712C29.143 29.9324 28.9176 29.707 28.9176 29.3013ZM31.1941 22.9226C31.3293 22.8324 31.4646 22.7874 31.5998 22.7874C31.8928 22.7874 32.1182 22.9902 32.1182 23.2381C32.1182 23.4635 31.9604 23.7115 31.735 23.8467C31.1039 24.2299 30.3376 24.2073 30.27 24.1172C30.2024 24.0045 30.6531 23.2381 31.1941 22.9226ZM35.454 29.4365V25.2216C35.454 24.861 35.6344 24.6807 35.9499 24.6807H36.1302C36.4683 24.6807 36.6486 24.861 36.6486 25.2216V27.0924L38.3616 25.0638C38.587 24.7708 38.8124 24.6807 39.0153 24.6807C39.4661 24.6807 39.714 25.1089 39.6689 25.154L37.9108 27.2727L39.7365 29.5041C39.7816 29.5717 39.5111 29.9774 39.0378 29.9774C38.8124 29.9774 38.587 29.8873 38.3842 29.6168L36.6486 27.5206V29.4365C36.6486 29.7971 36.4683 29.9774 36.1302 29.9774H35.9499C35.6344 29.9774 35.454 29.7971 35.454 29.4365ZM45.2587 28.6025H43.3428L43.0273 29.4365C42.8695 29.8647 42.6441 30 42.3736 30C42.0356 30 41.72 29.752 41.7425 29.6393L43.5457 25.0188C43.6133 24.7934 43.7711 24.6581 44.312 24.6581C44.8755 24.6581 45.0108 24.7934 45.0784 25.0188L46.9041 29.6168C46.9492 29.707 46.6111 29.9774 46.2504 29.9774C46.0025 29.9774 45.732 29.8422 45.5517 29.414L45.2587 28.6025ZM43.5908 27.7235H45.0333L44.312 25.8302L43.5908 27.7235ZM44.6952 22.9226C44.8304 22.8324 44.9657 22.7874 45.1009 22.7874C45.3939 22.7874 45.6193 22.9902 45.6193 23.2381C45.6193 23.4635 45.4616 23.7115 45.2362 23.8467C44.6051 24.2299 43.8387 24.2073 43.7711 24.1172C43.726 24.0045 44.1768 23.2381 44.6952 22.9226ZM51.9078 29.4816L50.7809 28.0616H50.3301V29.414C50.3301 29.752 50.1498 29.9549 49.8117 29.9549H49.6313C49.3158 29.9549 49.1355 29.7295 49.1355 29.3013V25.3568C49.1355 24.9286 49.3609 24.7032 49.7666 24.7032H51.3218C52.6742 24.7032 53.3954 25.2667 53.3954 26.326C53.3954 27.16 52.9221 27.746 52.0431 27.8813L53.3954 29.5266C53.4405 29.5943 53.2151 29.9774 52.6967 29.9774C52.3586 29.9774 52.1558 29.8422 51.9078 29.4816ZM50.3301 27.2051H51.2316C51.8628 27.2051 52.1783 26.9121 52.1783 26.4162C52.1783 25.9203 51.8628 25.6273 51.2091 25.6273H50.3301V27.2051ZM55.8297 29.4365V25.2667C55.8297 24.8835 56.0326 24.6807 56.3481 24.6807H56.5059C56.8214 24.6807 56.9341 24.7934 57.1144 25.0188L59.3684 28.1292V25.2216C59.3684 24.861 59.5487 24.6807 59.8643 24.6807H59.977C60.315 24.6807 60.4728 24.861 60.4728 25.2216V29.3914C60.4728 29.7746 60.27 29.9774 59.977 29.9774H59.8868C59.5712 29.9774 59.4811 29.8873 59.3008 29.6844L56.9341 26.4613V29.4365C56.9341 29.7971 56.7538 29.9774 56.4157 29.9774H56.303C56.01 29.9774 55.8297 29.7971 55.8297 29.4365ZM66.2655 28.6025H64.3496L64.0341 29.4365C63.8763 29.8647 63.6509 30 63.3804 30C63.0423 30 62.7268 29.752 62.7493 29.6393L64.5525 25.0188C64.6201 24.7934 64.7779 24.6581 65.3188 24.6581C65.8823 24.6581 66.0175 24.7934 66.0851 25.0188L67.9108 29.6168C67.9559 29.707 67.6178 29.9774 67.2572 29.9774C67.0093 29.9774 66.7388 29.8422 66.5585 29.414L66.2655 28.6025ZM64.575 27.7235H66.0175L65.2963 25.8302L64.575 27.7235Z" fill="#4EAD33"/>
</svg>
