<svg version="1.1" id="Vrstva_1" xmlns="http://www.w3.org/2000/svg" xmlns:xlink="http://www.w3.org/1999/xlink" x="0" y="0" viewBox="0 0 107 44" style="enable-background:new 0 0 107 44" xml:space="preserve"><style>.st1{fill:#004982}.st3{fill:#00a4c3}</style><defs><path id="SVGID_1_" d="M0 0h107v44H0z"/></defs><clipPath id="SVGID_00000098906212287163117400000002203908468618281652_"><use xlink:href="#SVGID_1_" style="overflow:visible"/></clipPath><g style="clip-path:url(#SVGID_00000098906212287163117400000002203908468618281652_)"><path class="st1" d="M0 13.6c0-.3 0-.6.1-.9.5-.5 4.7-1 7.8-1 2.2 0 6.2.1 8.9 2.6 1.2 1 2.7 3 2.7 6.3 0 1.3-.1 3.9-2.6 6.2-2.3 2.2-5.8 3.2-10 3.2-1 0-1.7 0-2.5-.1v12.7c0 .6-.3.8-.8.8H.9c-.6 0-.9-.1-.9-.8v-29zm4.4 13.7c.6.1 1.2.1 2.1.1 3 0 8.4-.5 8.4-6.9S8.8 14.1 7 14.1c-1.3 0-1.9.1-2.7.3v12.9h.1zM44.8 35.8v-23c0-.5.1-.8.4-.9h2.3c.5 0 .6.1.6.8v29.8c0 .8-.1.8-.8.8h-1.7c-.4 0-.5-.1-1-.6L27.1 18.1v24.3c0 .5 0 .8-.4.8h-2.3c-.6 0-.8-.3-.8-.9V12.8c0-.6.1-.9.9-.9h2.6c.5 0 .6 0 1 .6l16.7 23.3zM65.8 26.1c2.2 1.2 6.7 3.4 6.7 9.1 0 5.2-4 8.9-9.8 8.9-7.1 0-9.8-4.8-9.8-6.7 0-1.4 1-2.2 2.1-2.2 1.3 0 1.8 1 2.3 1.9.6 1.4 2.1 4.1 5.8 4.1 3.2 0 5.4-2.3 5.4-5.2 0-3.9-3.1-5.3-6.5-6.9L59.6 28c-1.8-.9-6.2-3-6.2-8.3 0-4.8 3.5-8.3 9.2-8.3 5.3 0 8.8 3.1 8.8 5.4 0 1.2-.8 2.1-1.9 2.1-1.2 0-1.7-.8-2.1-1.6-.9-1.4-2.1-3.2-4.9-3.2-3 0-4.9 2.2-4.9 4.8 0 3.4 2.7 4.7 6.1 6.2l2.1 1z"/><path d="M76.6 11.3h16.6L84.7.1l-8.1 11.2z" style="fill:#e88a00"/><path class="st3" d="M95.9 0v16.6L107 8.3 95.9 0zM106.9 19.4H90.3l8.4 11.1 8.2-11.1zM87.6 30.5V14l-11.1 8.4 11.1 8.1z"/></g></svg>