<svg version="1.1" id="Vrstva_1" xmlns="http://www.w3.org/2000/svg" x="0" y="0" viewBox="0 0 135.7 40" style="enable-background:new 0 0 135.7 40" xml:space="preserve"><style>.st0{fill:#10191c}.st1{fill:#76b82a}</style><path class="st0" d="M120.5 17.6c.6-2 1.8-3.7 3.5-4.8 1.7-1.3 3.9-1.9 6-1.9 2.6 0 4.3.7 5.2 2.2.7 1.2.8 2.7.2 4.4-.6 2-1.8 3.7-3.5 4.8-1.8 1.3-3.9 1.9-6.1 1.9-2.1 0-3.6-.5-4.6-1.6-1.1-1.2-1.4-2.9-.7-5m4.9 0c-.4 1.1-.4 2-.1 2.5.3.5.9.9 1.5.8.7 0 1.5-.3 2-.8.6-.5 1.1-1.4 1.5-2.6.3-1.1.4-1.9.1-2.5-.3-.5-.9-.9-1.5-.8-.8 0-1.5.3-2.1.8-.6.7-1.1 1.6-1.4 2.6M113.6 18.9l4.6.5c-.5 1-1.2 1.8-2.1 2.5-.8.7-1.8 1.3-2.8 1.7-1.2.4-2.4.6-3.7.6-1.1 0-2.2-.1-3.3-.4-1.5-.4-2.7-1.7-2.9-3.2-.1-.8 0-1.8.4-3 .6-2.1 1.8-3.8 3.6-5 .7-.5 1.4-.9 2.1-1.1 1.3-.4 2.6-.6 3.9-.6 2.1 0 3.6.4 4.5 1.1.9.7 1.3 1.8 1.3 3.3l-4.9.6c.1-.5-.1-.9-.4-1.2-.4-.3-.9-.5-1.4-.4-.8 0-1.6.3-2.3.9-.8.7-1.3 1.6-1.6 2.7-.3 1.1-.3 1.9 0 2.4s.9.8 1.7.8c.6 0 1.3-.2 1.8-.5.7-.5 1.2-1.1 1.5-1.7"/><path class="st1" d="M101.7 18.8h-10c-.2.8-.1 1.4.1 1.8.3.6.8.8 1.6.8.5 0 1-.1 1.5-.4.4-.2.8-.5 1.1-.8l4.8.4c-1 1.2-2.2 2.1-3.6 2.8-1.2.6-2.8.8-4.8.8-1.7 0-3-.2-3.8-.7-.9-.5-1.5-1.3-1.7-2.3-.3-1-.3-2.3.2-3.7.6-2 1.8-3.7 3.5-4.9 1.7-1.3 3.8-1.9 6-1.9 1.9 0 3.2.3 4.1.8.9.5 1.5 1.4 1.7 2.4.2 1.1.1 2.4-.4 4.1m-4.6-1.6c.2-1 .1-1.6-.1-2.1-.4-.4-.9-.7-1.5-.6-.8 0-1.6.3-2.2.9-.5.5-.9 1.1-1.1 1.7l4.9.1z"/><path class="st0" d="M73 11.1h4.6l-.6 2.1c.8-.7 1.7-1.4 2.7-1.8.9-.4 1.8-.6 2.8-.5 1.4 0 2.3.4 2.9 1.2.5.8.5 2.1 0 3.7L82.7 24h-5l2.2-7.1c.2-.8.3-1.4.1-1.7-.2-.4-.7-.6-1.1-.5-.6 0-1.2.3-1.7.7-.5.4-1 1.3-1.3 2.4L74 24h-5M57.8 6.3h5l-2 6.5c.7-.6 1.6-1.1 2.5-1.5.8-.3 1.6-.5 2.5-.5 1.3 0 2.3.4 2.8 1.2.5.8.5 2.1 0 3.7l-2.5 8.2h-5l2.2-7.1c.3-.8.3-1.4.1-1.7-.2-.4-.7-.6-1.1-.5-.6 0-1.2.3-1.7.7-.5.5-1 1.3-1.3 2.4l-2 6.3h-5M47.3 18.9l4.6.5c-.5 1-1.2 1.8-2.1 2.5-.8.8-1.8 1.4-2.8 1.8-1.2.4-2.4.6-3.7.6-1.1 0-2.2-.1-3.3-.4-1.5-.4-2.7-1.7-2.9-3.2-.1-.8 0-1.8.4-3 .6-2.1 1.8-3.8 3.6-5 .7-.5 1.4-.9 2.1-1.1 1.3-.4 2.6-.6 3.9-.6 2.1 0 3.6.4 4.5 1.1s1.3 1.8 1.3 3.3L48 16c.1-.5-.1-.9-.4-1.2-.4-.3-.9-.5-1.4-.4-.8 0-1.6.3-2.3.9-.8.7-1.3 1.6-1.6 2.7-.3 1.1-.3 1.9 0 2.4s.9.8 1.7.8c.6 0 1.3-.2 1.8-.5.6-.6 1.1-1.2 1.5-1.8M93 34.6h2.9l-.7 2.2c-.2.7-.6 1.4-1.1 1.9-.6.6-1.4 1-2.1 1.2l-.3-1.2c.5-.2.9-.4 1.3-.7.3-.2.5-.5.6-.8h-1.4M88.9 34c-.4.1-.8.3-1.3.3-.4.1-.8.2-1.2.4-.2.1-.3.3-.4.5-.1.2 0 .4.1.5.2.2.4.2.6.2.3 0 .6-.1.9-.2.3-.1.5-.3.7-.5.2-.2.3-.5.4-.8l.2-.4zM87 32.5l-2.5-.3c.2-.4.4-.7.8-1.1.3-.3.6-.5 1-.7.4-.2.7-.3 1.1-.3.5-.1 1-.1 1.4-.1.6 0 1.3 0 1.9.1.4.1.8.3 1.1.6.2.2.3.5.3.8 0 .3 0 .7-.1 1l-1 3.1c-.1.3-.1.5-.2.8 0 .2 0 .5.1.7h-2.5l-.1-.4v-.4c-.4.3-.8.5-1.3.7-.6.2-1.2.3-1.8.3-.8 0-1.4-.2-1.7-.6-.3-.4-.4-.9-.2-1.4.2-.5.5-1 .9-1.3.6-.4 1.3-.7 2-.8 1.1-.2 1.8-.3 2.1-.4.3-.1.7-.2 1.1-.3.1-.2.1-.5 0-.7-.2-.2-.4-.2-.7-.2-.4 0-.7.1-1.1.2-.3.3-.5.5-.6.7m-10.1-4.9h2.7l-1.1 3.6c.4-.3.9-.6 1.4-.8.4-.2.9-.3 1.4-.2.7 0 1.3.2 1.5.7.3.5.3 1.1 0 2.1l-1.4 4.5h-2.7l1.2-3.9c.1-.3.2-.6 0-.9-.1-.2-.4-.3-.6-.3-.3 0-.7.1-.9.4-.4.4-.6.8-.7 1.3l-1.1 3.4h-2.7l3-9.9zM70.7 34c-.4.1-.8.3-1.3.3-.4.1-.8.2-1.2.4-.2.1-.3.3-.4.5-.1.2 0 .4.1.5.2.2.4.2.6.2.3 0 .6-.1.9-.2.3-.1.5-.3.7-.5.2-.2.3-.5.4-.8l.2-.4zm-2-1.5-2.5-.3c.2-.4.4-.7.8-1.1.3-.3.6-.5 1-.7.4-.2.7-.3 1.1-.3.5-.1 1-.1 1.4-.1.6 0 1.3 0 1.9.1.4.1.8.3 1.1.6.2.2.3.5.3.8 0 .3 0 .7-.1 1l-1 3.1c-.1.3-.1.5-.2.8 0 .2 0 .5.1.7H70V36.5c-.4.3-.8.5-1.3.7-.6.2-1.2.3-1.8.3-.8 0-1.4-.2-1.7-.6-.3-.4-.4-.9-.2-1.4.2-.5.4-1 .9-1.3.6-.4 1.3-.7 2-.8 1.1-.2 1.8-.3 2.1-.4.3-.1.7-.2 1.1-.3.1-.2.1-.5 0-.7-.2-.2-.4-.2-.7-.2-.4 0-.7.1-1.1.2-.2.1-.4.3-.6.5m-8-2.2h2.5l-.3 1.1c.3-.4.7-.7 1.1-1 .3-.2.7-.3 1.1-.3.4 0 .8.1 1.2.4l-1.4 1.9c-.2-.1-.4-.2-.7-.2-.4 0-.7.2-1 .4-.4.4-.8 1.2-1.1 2.3l-.7 2.4h-2.7l2-7zm-7.2 1.4h.7c.5 0 .9-.1 1.3-.3.3-.2.5-.4.6-.8.1-.3.1-.5-.1-.8-.1-.2-.5-.3-1.1-.3H54l-.5 2.2zm-1.7-4.1h5c1.1 0 1.8.3 2.2.8.4.5.4 1.3.1 2.2-.3.9-.8 1.7-1.6 2.3-.9.6-1.9.9-3 .8h-1.7l-1.1 3.6h-3l3.1-9.7zM132.7 34.4h2.8l-.8 2.6h-2.8m-5.4-3.4c-.2.6-.2 1.1 0 1.4.2.3.5.5.8.4.4 0 .8-.2 1.1-.4.4-.4.7-.8.8-1.4.2-.6.2-1 0-1.3-.2-.3-.5-.5-.8-.4-.4 0-.8.2-1.1.4-.3.4-.6.9-.8 1.3m-2.6.1c.3-1 1-1.9 1.9-2.6.9-.7 2.1-1 3.2-1 1.4 0 2.3.4 2.8 1.2.4.6.4 1.4.1 2.4-.3 1-1 2-1.9 2.6-.9.7-2.1 1-3.3 1-1.1 0-1.9-.3-2.4-.8-.6-.8-.8-1.7-.4-2.8m-4.4.7h2.8l-.8 2.6h-2.8l.8-2.6zm-3.6-4.2h2.5l-.3 1.1c.3-.4.6-.7 1.1-1 .3-.2.7-.3 1-.3.4 0 .8.1 1.2.4l-1.4 1.9c-.2-.1-.4-.2-.7-.2-.4 0-.7.2-.9.4-.4.4-.8 1.2-1.1 2.3l-.7 2.3h-2.7l2-6.9zm-5.7 4.2h2.8l-.8 2.6h-2.8l.8-2.6zm-8.9.8 2.7-.2c0 .2.1.5.3.7.2.1.5.2.7.2.3 0 .6-.1.9-.2l.4-.4-.2-.4c-.3-.1-.7-.2-1.1-.3-.6-.1-1.2-.2-1.8-.4-.3-.1-.6-.4-.7-.7-.1-.4-.2-.7 0-1.1.1-.5.4-.9.8-1.2.4-.3.8-.6 1.3-.7.6-.2 1.3-.3 2-.2.6 0 1.2 0 1.8.2.3.1.6.3.8.6.2.3.3.7.3 1.1l-2.6.2c0-.2 0-.4-.2-.5-.2-.1-.4-.2-.7-.2-.2 0-.5 0-.7.2l-.3.1.1.4c.3.1.7.2 1.1.2.6 0 1.3.2 1.8.4.3.1.6.4.8.8.1.3.1.7 0 1.1-.1.4-.4.8-.7 1.2-.4.4-.9.7-1.4.9-.7.2-1.5.4-2.2.3-1.3 0-2.1-.2-2.5-.5-.6-.5-.8-1-.7-1.6"/><path d="M17.8 6.3h6.4l-1.4 4.4h-.4l.1.1c8.1 8.6 11.7 18.5 7.7 21.1-3.5 2.3-10.8-1.1-18.1-7.9H7.5l1.1-3.6C1.1 12-2.1 4.4 1.4 1.1c2.9-2.7 9.7-.4 16.4 5.2m4 4.3.4.4c7.2 7.7 10.4 16.4 6.8 18.7-3.1 2-9.4-.9-15.7-6.7l3.9-12.5h4.6zM3.4 2.5c2.4-2.3 7.9-.6 13.5 3.7H7.4L6 10.6h5.7l-2.5 8.2C2.9 11.7.4 5.3 3.4 2.5" style="fill-rule:evenodd;clip-rule:evenodd;fill:#10191c"/><path class="st1" d="M35.4 18.8h-10c-.2.8-.1 1.4.1 1.8.3.6.8.8 1.6.8.5 0 1-.1 1.5-.4.4-.2.8-.5 1.1-.8l4.8.4c-1 1.2-2.2 2.1-3.6 2.8-1.2.6-2.8.8-4.8.8-1.7 0-3-.2-3.8-.7-.9-.5-1.5-1.3-1.7-2.3-.3-1-.3-2.3.2-3.7.6-2 1.8-3.7 3.5-4.9 1.7-1.3 3.8-1.9 6-1.9 1.9 0 3.2.3 4.1.8.9.5 1.5 1.4 1.7 2.4.2 1.1.1 2.4-.4 4.1m-4.6-1.6c.2-1 .1-1.6-.1-2.1-.4-.4-.9-.7-1.5-.6-.8 0-1.6.3-2.2.9-.5.5-.9 1.1-1.1 1.7l4.9.1z"/></svg>