<svg version="1.1" id="Layer_1" xmlns="http://www.w3.org/2000/svg" x="0" y="0" viewBox="0 0 141 40" style="enable-background:new 0 0 141 40" xml:space="preserve"><style>.st0{fill:#ed1c24}.st1{fill:#0053a1}</style><path id="XMLID_71_" class="st0" d="M1.2.6h28.7v6.2c-2-1.7-6.4-2.4-10.9-2.4v17c0 2.5.2 3.2 1.2 4.5H11c1-1.3 1.2-2 1.2-4.5v-17c-4.6 0-8.9.7-10.9 2.4-.1.1-.1-6.2-.1-6.2zm42.3 21.6c2.9 0 7.9-.7 9.8-2.4V26H32.4c1-1.2 1.2-2 1.2-4.4V5c0-2.4-.2-3.2-1.2-4.4h19.8v6.2c-1.9-1.7-6.8-2.4-9.8-2.4h-2.3v6.8h1.7c1.7 0 4.2 0 6-.7v5c-1.7-.6-4.3-.7-6-.7h-1.7v7.3l3.4.1zm27.4-11.8c5 .7 9.1 2.4 9.1 7.9 0 6.4-6 8.4-12.5 8.4-4.5 0-8.4-.4-11.2-1.6v-5.8c4 2.6 8.2 3.4 11.2 3.4 3.1 0 6.1-.7 6.1-3.1s-2.7-3-8.2-3.8c-4.8-.7-9.1-2.7-9.1-7.5C56.3 2 62.3 0 68 0c3.7 0 7.3.4 10.6 1.5v6.1c-2.7-2.4-6.9-3.8-10.9-3.8-2.7 0-5.3.9-5.3 2.9-.1 2.7 3.8 3 8.5 3.7zM99.3 0c3 0 5.6.3 7.6.9v6.4c-2-2.1-4.4-3.4-7.6-3.4-5.8 0-9.6 4-9.6 9.4s3.8 9.4 9.6 9.4c3.1 0 5.6-1.3 7.6-3.4v6.3c-2.1.5-4.6.9-7.6.9-10 0-17.2-5-17.2-13.3S89.3 0 99.3 0z"/><path id="XMLID_68_" class="st0" d="M124.9 0c-10.3 0-16.2 6-16.2 13.2 0 7.2 5.9 13.2 16.2 13.2 10.3 0 16.2-6 16.2-13.2S135.2 0 124.9 0zm0 22.7c-5.2 0-8.6-4.3-8.6-9.4 0-5.2 3.4-9.4 8.6-9.4 5.2 0 8.6 4.2 8.6 9.4-.1 5.1-3.5 9.4-8.6 9.4z"/><path id="XMLID_67_" class="st1" d="M123.4 32.9h17.3v.1c-2 .9-4.7 3.7-4.7 3.7-2 1.9-3.5 3.1-6.7 3.1h-16.5l-.1-.1v-.1c1.8-1 4.5-3.8 4.5-3.8 1.2-1.2 3.4-2.9 6.2-2.9"/><path id="XMLID_66_" class="st1" d="M95.3 32.9h17.3v.1c-2 .9-4.7 3.7-4.7 3.7-2 1.9-3.5 3.1-6.7 3.1H84.6l-.1-.1v-.1c1.8-1 4.5-3.8 4.5-3.8 1.2-1.2 3.4-2.9 6.3-2.9"/><path id="XMLID_65_" class="st1" d="M67.1 32.9h17.3v.1c-2 .9-4.7 3.7-4.7 3.7-2 1.9-3.5 3.1-6.7 3.1H56.5l-.1-.1v-.1c1.8-1 4.5-3.8 4.5-3.8 1.2-1.2 3.4-2.9 6.2-2.9"/><path id="XMLID_58_" class="st1" d="M38.9 32.9h17.3v.1c-2 .9-4.7 3.7-4.7 3.7-2 1.9-3.5 3.1-6.7 3.1H28.3l-.1-.1v-.1c1.8-1 4.5-3.8 4.5-3.8 1.2-1.2 3.4-2.9 6.2-2.9"/><path id="XMLID_57_" class="st1" d="M10.7 32.9H28v.1c-2 .9-4.7 3.7-4.7 3.7-2 1.9-3.5 3.1-6.7 3.1H.1l-.1-.1v-.1c1.8-1 4.5-3.8 4.5-3.8 1.2-1.2 3.4-2.9 6.2-2.9"/></svg>