<svg width="137" height="40" viewBox="0 0 137 40" fill="none" xmlns="http://www.w3.org/2000/svg">
<path d="M2.44629 1.64698H29.5522V7.52934C27.6228 5.92934 23.5286 5.27051 19.1992 5.27051V21.3646C19.1992 23.7646 19.3875 24.4235 20.3286 25.647H11.6698C12.611 24.4235 12.7992 23.7646 12.7992 21.3646V5.31757C8.42276 5.31757 4.3757 5.97639 2.44629 7.57639V1.64698ZM42.4934 22.0705C45.2698 22.0705 49.9286 21.4117 51.7169 19.8117V25.694H31.9992C32.9404 24.5646 33.1286 23.8117 33.1286 21.5058V5.83522C33.1286 3.52933 32.9404 2.77639 31.9992 1.64698H50.7287V7.52934C48.8934 5.92934 44.2816 5.27051 41.5051 5.27051H39.2934V11.6705H40.8934C42.4934 11.6705 44.8934 11.6235 46.5404 11.0117V15.7646C44.9404 15.1999 42.4934 15.1058 40.8934 15.1058H39.2934V22.0235H42.4934V22.0705ZM68.3757 10.9176C73.0816 11.5764 76.9875 13.2235 76.9875 18.3529C76.9875 24.3764 71.2934 26.2588 65.1286 26.2588C60.8463 26.2117 57.2228 25.8352 54.5404 24.7529V19.294C58.3522 21.7882 62.2581 22.5411 65.1286 22.5411C68.0934 22.5411 70.8698 21.8352 70.8698 19.5764C70.8698 17.3176 68.3287 16.7529 63.1051 15.9529C58.5875 15.247 54.5404 13.3646 54.4934 8.89404C54.4463 2.91757 60.1404 1.08228 65.5522 1.08228C69.0345 1.08228 72.4698 1.5058 75.5757 2.5411V8.32934C72.9875 6.02345 69.0816 4.70581 65.2698 4.70581C62.6816 4.70581 60.2816 5.55286 60.2816 7.43522C60.2816 9.92934 63.9051 10.2587 68.3757 10.9176ZM95.1992 1.12933C98.0228 1.12933 100.47 1.45875 102.399 1.97639V7.99992C100.47 6.02345 98.211 4.79992 95.2463 4.79992C89.7875 4.79992 86.1639 8.61169 86.1639 13.694C86.1639 18.7764 89.7875 22.5882 95.2463 22.5882C98.211 22.5882 100.517 21.3646 102.399 19.3882V25.3646C100.423 25.8823 98.0228 26.2588 95.1992 26.2588C85.7404 26.2588 78.9169 21.5529 78.9169 13.694C78.9169 5.83522 85.7875 1.12933 95.1992 1.12933Z" fill="#ED1C24"/>
<path d="M119.435 1.12939C109.694 1.12939 104.141 6.77645 104.141 13.647C104.141 20.4706 109.694 26.1647 119.435 26.1647C129.176 26.1647 134.729 20.4706 134.729 13.647C134.729 6.82351 129.176 1.12939 119.435 1.12939ZM119.435 22.5882C114.541 22.5882 111.341 18.5412 111.341 13.6941C111.341 8.79998 114.541 4.79998 119.435 4.79998C124.329 4.79998 127.529 8.79998 127.529 13.6941C127.529 18.4941 124.329 22.5882 119.435 22.5882Z" fill="#ED1C24"/>
<path d="M118.071 32.2351H134.447H134.494C134.541 32.2822 134.541 32.3292 134.494 32.3763C134.494 32.3763 134.447 32.3763 134.447 32.4233H134.4C132.518 33.2704 129.977 35.9528 129.977 35.9528C128.094 37.741 126.635 38.9175 123.624 38.9175H108.047C108 38.9175 108 38.8704 107.953 38.8233C107.953 38.7763 107.953 38.7763 108 38.7292L108.047 38.6822C109.741 37.741 112.33 35.0586 112.33 35.0586C113.318 33.8351 115.435 32.2351 118.071 32.2351Z" fill="#0053A1"/>
<path d="M91.4352 32.2351H107.765H107.812C107.859 32.2822 107.859 32.3292 107.812 32.3763C107.812 32.3763 107.765 32.3763 107.765 32.4233H107.718C105.835 33.2704 103.294 35.9528 103.294 35.9528C101.412 37.741 99.9529 38.9175 96.9411 38.9175H81.3646C81.3176 38.9175 81.3176 38.8704 81.2705 38.8233C81.2705 38.7763 81.2705 38.7763 81.3176 38.7292L81.3646 38.6822C83.0587 37.741 85.647 35.0586 85.647 35.0586C86.6823 33.8351 88.7529 32.2351 91.4352 32.2351Z" fill="#0053A1"/>
<path d="M64.7993 32.2351H81.1758H81.2228C81.2699 32.2822 81.2699 32.3292 81.2228 32.3763C81.2228 32.3763 81.1758 32.3763 81.1758 32.4233H81.1287C79.2463 33.2704 76.7052 35.9528 76.7052 35.9528C74.8228 37.741 73.364 38.9175 70.3522 38.9175H54.7758C54.7287 38.9175 54.7287 38.8704 54.6816 38.8233C54.6816 38.7763 54.6816 38.7763 54.7287 38.7292L54.7758 38.6822C56.4699 37.741 59.0581 35.0586 59.0581 35.0586C60.0463 33.8351 62.1169 32.2351 64.7993 32.2351Z" fill="#0053A1"/>
<path d="M38.1178 32.2351H54.4943H54.5414C54.5884 32.2822 54.5884 32.3292 54.5414 32.3763C54.5414 32.3763 54.4943 32.3763 54.4943 32.4233H54.4472C52.5649 33.2704 50.0237 35.9528 50.0237 35.9528C48.1414 37.741 46.6825 38.9175 43.6708 38.9175H28.0472C28.0002 38.9175 28.0002 38.8704 27.9531 38.8233C27.9531 38.7763 27.9531 38.7763 28.0002 38.7292L28.0472 38.6822C29.7414 37.741 32.3296 35.0586 32.3296 35.0586C33.3649 33.8351 35.4825 32.2351 38.1178 32.2351Z" fill="#0053A1"/>
<path d="M11.4821 32.2351H27.8586H27.9056C27.9527 32.2822 27.9527 32.3292 27.9056 32.3763C27.9056 32.3763 27.8586 32.3763 27.8586 32.4233H27.8115C25.9291 33.2704 23.388 35.9528 23.388 35.9528C21.5056 37.741 20.0468 38.9175 17.035 38.9175H1.4115C1.36444 38.9175 1.36444 38.8704 1.31738 38.8233C1.31738 38.7763 1.31738 38.7763 1.36444 38.7292L1.4115 38.6822C3.10562 37.741 5.69385 35.0586 5.69385 35.0586C6.72915 33.8351 8.79974 32.2351 11.4821 32.2351Z" fill="#0053A1"/>
</svg>
