<svg width="51" height="60" viewBox="0 0 51 60" fill="none" xmlns="http://www.w3.org/2000/svg">
<g clip-path="url(#clip0_1267:16914)">
<path d="M7.50215 49.5726C3.241 46.0839 0.990234 41.062 0.990234 35.0642V6.55329C7.71912 2.98628 15.8669 1.17847 25.2085 1.17847C34.55 1.17847 42.6987 2.98628 49.4267 6.55329V35.0642C49.4267 41.062 47.1759 46.0803 42.9148 49.5726C39.0165 52.7678 26.6301 58.2029 25.2076 58.8214C23.7869 58.2029 11.4005 52.7687 7.50215 49.5726Z" fill="#330000"/>
<path d="M48.1007 6.21841C44.9874 5.92942 41.7535 5.73855 38.4593 5.73855C26.2421 5.73855 13.1445 8.36475 2.31649 18.296V35.2713C2.31649 40.8001 4.36108 45.4168 8.2459 48.5832C11.6761 51.3742 22.2322 56.1548 25.2086 57.4683C28.1472 56.1746 38.6763 51.457 42.1667 48.5832C46.0759 45.3619 48.1007 40.8523 48.1007 35.2713V6.21841ZM4.55465 33.5049V19.7185H8.93824V33.6994C8.93824 34.9436 9.23894 36.7856 11.2493 36.7856C11.9779 36.8151 12.6987 36.627 13.32 36.2454V19.7185H17.6982V38.7456C15.7209 39.9797 13.4192 40.5931 11.09 40.5066C6.7505 40.5066 4.55015 38.1514 4.55015 33.5049H4.55465ZM24.3407 49.4178H19.9544V20.8349C21.7287 19.7451 23.7848 19.2024 25.8658 19.2747C31.1011 19.2747 33.9776 23.2468 33.9776 29.6399C33.9776 36.033 31.1866 40.4309 26.3159 40.4309C25.6493 40.4429 24.9843 40.359 24.3416 40.1816L24.3407 49.4178ZM24.3407 36.5974C24.7961 36.768 25.2778 36.8576 25.7641 36.8621C28.2849 36.8621 29.4931 34.5456 29.4931 29.7497C29.4931 24.8367 28.4389 22.8048 25.8919 22.8048C25.3575 22.8003 24.8282 22.908 24.338 23.1208L24.3407 36.5974ZM34.9715 24.9907C34.999 23.4541 35.6331 21.9906 36.7355 20.9198C37.8379 19.8489 39.3191 19.2575 40.8559 19.2747C42.5761 19.1835 44.2754 19.6863 45.6689 20.6989V24.5135C44.6361 23.4359 43.2315 22.792 41.7409 22.7129C40.4976 22.7021 39.2038 23.2486 39.1615 24.8079C39.1192 26.4042 40.4102 27.0344 42.0425 27.9941C45.7058 30.1477 46.4144 32.0833 46.3298 34.6411C46.246 37.4455 44.3131 40.5084 39.9799 40.5084C38.2807 40.4893 36.617 40.0196 35.1588 39.1471V35.1074C36.3172 36.1542 37.7931 36.7825 39.3506 36.8918C40.9594 36.8999 42.0182 35.978 41.9804 34.4484C41.9471 33.0718 41.1701 32.3237 39.2407 31.1902C35.6242 29.0691 34.9742 27.3234 34.9679 24.9907H34.9715ZM6.7784 50.3712C2.3408 46.7367 0 41.514 0 35.2713V5.5945C7.00348 1.88164 15.4853 0 25.2086 0C34.9319 0 43.4137 1.88164 50.4171 5.5945V35.2713C50.4171 41.514 48.0763 46.7367 43.6387 50.3721C39.582 53.6979 26.6887 59.3545 25.2086 59.9982C23.7285 59.3545 10.8352 53.6979 6.7784 50.3712ZM41.2997 56.5914V59.1672H41.7643V58.0923H41.83C41.8651 58.1445 42.5296 59.1672 42.5296 59.1672H43.0923C43.0923 59.1672 42.3864 58.1346 42.3144 58.0373C42.4753 58.0099 42.6212 57.9259 42.7257 57.8004C42.8301 57.675 42.8864 57.5163 42.8843 57.3531C42.8864 57.2443 42.8649 57.1364 42.8212 57.0367C42.7774 56.9371 42.7125 56.8482 42.631 56.7761C42.5494 56.7041 42.4532 56.6507 42.3489 56.6195C42.2447 56.5884 42.1349 56.5804 42.0272 56.5959L41.2997 56.5914ZM41.9768 56.9678C42.372 56.9678 42.4269 57.1613 42.4269 57.3279C42.4269 57.5692 42.3234 57.7321 41.8255 57.7321H41.7652V56.966L41.9768 56.9678ZM43.7954 57.8861C43.7947 58.2308 43.6918 58.5675 43.4999 58.8538C43.3079 59.14 43.0354 59.363 42.7168 59.4945C42.3982 59.626 42.0477 59.6601 41.7097 59.5926C41.3717 59.525 41.0613 59.3588 40.8177 59.115C40.5741 58.8711 40.4083 58.5605 40.3411 58.2225C40.2739 57.8844 40.3084 57.534 40.4402 57.2155C40.572 56.8971 40.7952 56.6248 41.0817 56.4331C41.3682 56.2414 41.705 56.1389 42.0497 56.1386C42.2792 56.1384 42.5064 56.1834 42.7184 56.2712C42.9305 56.3589 43.1231 56.4877 43.2853 56.65C43.4474 56.8123 43.576 57.0051 43.6635 57.2172C43.751 57.4293 43.7959 57.6566 43.7954 57.8861ZM42.0443 55.7659C41.6259 55.7664 41.2171 55.8909 40.8695 56.1236C40.5218 56.3564 40.251 56.6869 40.0911 57.0735C39.9312 57.4601 39.8894 57.8854 39.9711 58.2957C40.0528 58.7061 40.2542 59.0829 40.55 59.3788C40.8458 59.6747 41.2226 59.8763 41.6329 59.9582C42.0431 60.0401 42.4685 59.9985 42.8551 59.8388C43.2418 59.679 43.5724 59.4083 43.8053 59.0607C44.0382 58.7132 44.1629 58.3044 44.1636 57.8861C44.1629 57.3241 43.9394 56.7854 43.5421 56.388C43.1449 55.9905 42.6062 55.7668 42.0443 55.7659Z" fill="#FFBE00"/>
</g>
<defs>
<clipPath id="clip0_1267:16914">
<rect width="50.4171" height="60" fill="white"/>
</clipPath>
</defs>
</svg>
