<svg xmlns="http://www.w3.org/2000/svg" viewBox="0 0 245.3 50" style="enable-background:new 0 0 245.3 50" xml:space="preserve"><path d="M86.8 50H90V0h-3.1v50zm5.9 0h3.1V0h-3.1v50z" style="fill:#21d75f"/><path d="M55.8 7c-1.7-.2-3.2 1-3.4 2.6v30.1c-.2 1.7 1 3.2 2.6 3.4h21.8c1.5 0 2.7-1.2 2.7-2.7 0-1.5-1.2-2.7-2.7-2.7H59.4v-9.4h14.3c1.5 0 2.7-1.2 2.7-2.7 0-1.5-1.2-2.7-2.7-2.7H59.4V12.4h16.8c1.5 0 2.7-1.2 2.7-2.7S77.7 7 76.2 7H55.8zm-11.1-.2c-1.6 0-3.1 1.2-3.3 2.8l-6.6 25.8h-.1l-6.1-24.6c-.7-2.7-2.4-3.9-4.6-3.9-2.3 0-4.3 1.6-4.6 3.9l-6 24.6h-.1L6.8 9.6c-.2-1.7-1.7-2.9-3.4-2.8-2.7 0-4 2.1-3.2 5.1L8 39.1c.5 2.4 2.6 4.1 5 4 2.5.2 4.7-1.5 5.1-4L24 16.4l6 22.8c.4 2.5 2.6 4.2 5.1 4 2.5 0 4.2-1.3 5-4L48 12c.8-2.9-.4-5.2-3.3-5.2m67.9 7.1h4.9c6.7 0 10.1 3.6 10.1 10.9S124.2 36 117.5 36h-4.9V13.9zm6 24.6c7.6 0 12.3-5 12.3-13.7s-4.7-13.3-12.2-13.3h-9.2v27h9.1zM106.7 9.4h12.4c9.1 0 14.7 5.7 14.7 15.5 0 4.8-1.4 8.7-4 11.6s-6.2 4.2-10.7 4.2h-12.4V9.4zM119.9 43c5.2 0 9.4-1.7 12.6-5.1 3.2-3.6 4.9-8.3 4.8-13.1.2-4.8-1.6-9.4-4.8-13-3.1-3.3-7.3-4.9-12.4-4.9h-16.3V43h16.1zm56.9-18c0 8.4-6.2 16.1-17 16.1s-16.4-7.4-16.4-16S149.2 8.8 160 8.8c9.9 0 16.8 7.2 16.8 16.2m3.2-.1c0-10.4-8.3-18.8-20-18.8-12.7 0-19.8 9.4-19.8 18.9.2 10.5 8.9 18.9 19.4 18.8h.1c12.8 0 20.2-9.2 20.3-18.9"/><path d="M160.2 11.1c-8.8 0-14.1 6.4-14.1 14.1-.1 7.6 6 13.7 13.5 13.8h.2c7.6 0 14.2-4.8 14.2-14.1 0-6.2-4.7-13.9-13.8-13.8m-.3 25.2c-6 0-10.6-4.6-10.6-11.2s4.1-11.3 10.8-11.3c6.7 0 10.7 5.7 10.7 11.2 0 7.2-4.7 11.3-10.9 11.3m84 4c-.8 0-1.5.7-1.5 1.5s.7 1.5 1.5 1.5 1.5-.7 1.5-1.5c-.1-.8-.7-1.5-1.5-1.5m-7.1-7.2V43h2.7v-4.4c0-2.1 1.2-2.8 2.9-2.8h.3v-2.7c-1.8 0-2.8.4-3.4 1.7l-.3-1.6-2.2-.1zm-8.5 4.1c.1-1.2 1.2-2.1 2.4-2 1.4 0 1.9 1 2 2h-4.4zm-2.7.9c-.1 2.7 2 5 4.8 5.1h.5c1.3 0 2.6-.3 3.8-.8l-.9-2c-.9.4-1.8.6-2.8.6-1.2.2-2.4-.7-2.5-2h6.7c.1-.4.1-.8.1-1.2 0-2.7-1.5-5-4.6-5-3.2 0-5 2.2-5.1 5.3m-9.7-5.1 3.5 10h2.6l3.6-10h-2.7l-2.2 7h-.1l-2-7h-2.7zm-2.5-4.2c-.8.2-1.3 1-1.2 1.8s1 1.3 1.8 1.2c.8-.2 1.3-1 1.2-1.8-.2-.9-1-1.4-1.8-1.2m-2.2 4.2v1.8l1.2.4V43h2.6V33h-3.8zm-4.4-4v12c-.1 1 .6 1.9 1.6 2h.3c.6 0 1.3-.1 1.9-.3v-2.1h-.9c-.2 0-.3-.1-.3-.3V29h-2.6zm-8.5 8.2c.1-1.2 1.2-2.1 2.4-2 1.4 0 1.9 1 2 2h-4.4zm-2.7.9c-.1 2.7 2 5 4.8 5.1h.5c1.3 0 2.6-.3 3.8-.8l-.9-2c-.9.4-1.8.6-2.8.6-1.2.2-2.4-.7-2.5-2h6.6c.1-.4.1-.8.1-1.2 0-2.7-1.5-5-4.6-5-3.1 0-5 2.2-5 5.3m-6.5-3c1.6 0 2.8 1.3 2.8 2.9 0 1.5-1.3 2.8-2.8 2.8-1.4 0-2.6-1.1-2.6-2.5V38c0-1.9 1.1-2.9 2.6-2.9m2.3-6.2V34c-.7-.8-1.8-1.2-2.9-1.2-2.8.3-4.9 2.8-4.7 5.6.2 2.5 2.2 4.5 4.7 4.7 1.2.1 2.3-.5 3-1.4l.3 1.2h2V29c.1 0-2.4-.1-2.4-.1z"/></svg>