
<svg width="227" height="80" viewBox="0 0 227 80" fill="none" xmlns="http://www.w3.org/2000/svg">
<rect y="-6.10352e-05" width="227" height="80" fill="#BA1B02"/>
<g clip-path="url(#clip0)">
<path fill-rule="evenodd" clip-rule="evenodd" d="M47.0381 36.5188L46.1242 36.9568L45.211 36.5188L32.4564 30.1851L38.5047 27.8638L51.5884 34.2512L47.0381 36.5188ZM59.8089 30.1851L55.2424 32.4141L42.0074 26.4958L46.1242 24.897L59.8089 30.1851ZM30.1651 45.942L30.5825 46.7107L45.2856 59.9928L45.7468 56.9487L32.6801 45.1272L30.853 29.7625L28.0859 28.694L30.1651 45.942ZM61.3961 29.7625L59.5836 45.1197L46.4985 56.9333L46.9773 59.9928L61.6651 46.7107L62.084 45.942L64.1662 28.694L61.3961 29.7625ZM45.6461 20.8002L28.8899 27.3028L31.2412 29.2014L46.1211 23.4059L61.0056 29.2014L63.3553 27.3028L46.6192 20.8002H45.6461ZM181.567 35.0427C182.489 35.446 183.283 36.0951 183.863 36.9185C184.466 37.8683 184.774 38.9754 184.748 40.1004V50.9997H181.314V40.1312C181.289 39.5092 181.022 38.9217 180.57 38.4941C180.115 38.0811 179.557 37.7973 178.956 37.6718C178.335 37.5194 177.69 37.4852 177.057 37.5716C176.478 37.6349 175.918 37.8153 175.411 38.1019V50.9997H171.946V35.4578C172.251 35.4168 172.552 35.3526 172.847 35.2657C173.216 35.1504 173.781 34.9659 174.538 34.7046C175.452 34.4326 176.401 34.2905 177.355 34.282C177.428 34.2665 177.504 34.2665 177.577 34.282C177.866 34.268 178.157 34.2731 178.445 34.2974C179.521 34.356 180.578 34.6084 181.564 35.0427H181.567ZM171.388 35.4886L165.944 50.9997H162.272L156.828 35.4886C158.006 35.4958 159.161 35.1594 160.151 34.5203L163.443 44.1128L163.981 47.387H164.234L164.772 44.1128L168.064 34.5203C169.055 35.1591 170.209 35.4954 171.388 35.4886V35.4886ZM114.889 41.9146C115.679 42.2285 116.373 42.7453 116.899 43.4132C117.465 44.2164 117.754 45.1826 117.722 46.165C117.751 47.2998 117.393 48.4108 116.709 49.3164C116.051 50.1202 115.17 50.7113 114.177 51.0151C113.124 51.3472 112.011 51.4416 110.917 51.2917C109.783 51.1313 108.701 50.716 107.751 50.0772C106.765 49.4144 105.982 48.4914 105.489 47.4102L108.085 45.7191C108.48 46.4144 109.046 46.9968 109.731 47.4102C110.342 47.791 111.037 48.0177 111.756 48.0712C112.367 48.1428 112.984 48.0105 113.511 47.6947C113.753 47.5346 113.951 47.3162 114.087 47.0597C114.223 46.8032 114.292 46.5167 114.288 46.2265C114.292 46.0498 114.257 45.8743 114.186 45.7124C114.115 45.5504 114.01 45.4056 113.877 45.2886C113.593 45.0335 113.258 44.8401 112.895 44.72C112.493 44.6047 112.099 44.4972 111.709 44.4127C111.072 44.2989 110.442 44.1448 109.824 43.9514C109.162 43.7486 108.528 43.459 107.941 43.0905C107.34 42.7297 106.835 42.2287 106.469 41.6301C106.121 41.0288 105.931 40.3491 105.915 39.6545V39.5933C105.905 39.504 105.901 39.4141 105.901 39.3242C105.866 38.2648 106.208 37.2272 106.865 36.3957C107.473 35.6545 108.272 35.0938 109.176 34.774C110.084 34.4458 111.043 34.2842 112.009 34.2974C112.945 34.3051 113.87 34.4982 114.731 34.866C115.709 35.2939 116.6 35.8986 117.358 36.6494L115.269 38.9399C114.797 38.48 114.229 38.1283 113.607 37.9097C112.996 37.6689 112.348 37.5388 111.691 37.5254C111.137 37.511 110.588 37.6353 110.093 37.8868C109.894 37.9953 109.723 38.1485 109.593 38.3342C109.463 38.5199 109.378 38.7331 109.345 38.9572C109.311 39.1813 109.33 39.4103 109.399 39.626C109.469 39.8417 109.588 40.0384 109.746 40.2006C110.082 40.5052 110.482 40.7309 110.917 40.8615C111.368 41.0211 111.835 41.1344 112.31 41.1997C113.197 41.3276 114.063 41.568 114.889 41.9146V41.9146ZM122.248 29.0705C122.657 29.5065 122.878 30.0866 122.863 30.6847C122.871 31.2654 122.65 31.8262 122.248 32.2452C122.041 32.4581 121.792 32.6253 121.517 32.7365C121.242 32.8476 120.946 32.9003 120.65 32.8907C120.363 32.8961 120.078 32.8416 119.813 32.7305C119.548 32.6193 119.31 32.454 119.113 32.2452C118.909 32.0397 118.749 31.7958 118.64 31.528C118.532 31.2602 118.477 30.9736 118.48 30.6847C118.474 30.3872 118.526 30.0914 118.635 29.8143C118.743 29.5373 118.906 29.2844 119.113 29.0705C119.315 28.8695 119.555 28.7106 119.818 28.6024C120.082 28.4943 120.365 28.4392 120.65 28.4403C120.945 28.4352 121.237 28.4883 121.512 28.5964C121.786 28.7046 122.036 28.8655 122.248 29.0705ZM131.126 47.8561V28.4711H134.613V41.1689L136.243 39.355L136.259 39.3242L140.499 34.5357H144.851L138.015 42.1222L144.82 50.9997H140.737L135.578 44.2588L134.613 45.2425V50.9997L131.274 51.1303H131.09C131.016 51.1293 130.942 51.1242 130.868 51.1149L130.687 51.0995C128.461 50.9381 126.889 50.4387 125.971 49.6009C125.417 49.0695 124.983 48.425 124.699 47.7116C124.416 46.9982 124.288 46.2322 124.326 45.4654V28.4711H127.807V45.4654C127.792 45.7807 127.845 46.0956 127.962 46.3887C128.079 46.6818 128.258 46.9462 128.487 47.164C129.284 47.6405 130.201 47.8807 131.13 47.8561H131.126ZM122.474 50.9997H118.993V34.4816H122.474V50.9997V50.9997ZM99.5417 33.498H96.1236L98.3703 29.7779H102.66L99.5417 33.498ZM197.758 36.6802C197.13 35.8679 196.293 35.2408 195.337 34.866C194.354 34.4801 193.306 34.2871 192.251 34.2974C191.195 34.2743 190.146 34.4623 189.164 34.8506C188.064 35.3048 187.084 36.0075 186.3 36.9031L188.326 38.7632C188.838 38.2369 189.467 37.839 190.162 37.6023C190.861 37.3761 191.598 37.295 192.329 37.364C193.009 37.4144 193.658 37.6631 194.198 38.079C194.749 38.5153 195.12 39.1388 195.242 39.8313V40.8307C194.285 40.4361 193.268 40.2098 192.235 40.1619C191.201 40.1113 190.167 40.2707 189.196 40.6307C188.185 40.9698 187.31 41.627 186.703 42.5038C186.095 43.3807 185.787 44.4301 185.825 45.4962C185.79 46.6779 186.098 47.8446 186.711 48.8552C187.247 49.6921 188.024 50.3462 188.94 50.7306C189.923 51.1473 190.976 51.3743 192.044 51.3994C193.193 51.4513 194.344 51.3765 195.477 51.1765C196.577 50.9818 197.657 50.6884 198.705 50.3001V39.7393C198.731 38.6434 198.398 37.5691 197.756 36.6802H197.758ZM195.24 48.0712C194.589 48.2591 193.921 48.3827 193.246 48.4401C192.576 48.4985 191.902 48.4492 191.248 48.2941C190.663 48.1714 190.135 47.861 189.743 47.4102C189.345 46.8563 189.166 46.1745 189.239 45.4962C189.247 45.1993 189.319 44.9078 189.45 44.6412C189.581 44.3746 189.768 44.1394 189.998 43.9514C190.476 43.5892 191.047 43.3704 191.644 43.3209C192.287 43.244 192.937 43.2596 193.574 43.3671C194.15 43.4376 194.711 43.5985 195.236 43.8437V48.0712H195.24ZM156.641 38.2096C156.489 37.6998 156.248 37.2211 155.928 36.7954C155.315 35.9568 154.49 35.296 153.538 34.8813C152.571 34.4733 151.534 34.257 150.484 34.2437C150.235 34.246 149.987 34.2638 149.74 34.2974C148.918 34.3665 148.112 34.5634 147.351 34.8813C146.782 35.1287 146.258 35.4691 145.8 35.8883C145.48 36.1554 145.194 36.46 144.946 36.7954C144.295 37.7155 143.957 38.8201 143.98 39.9469V45.7037C143.955 46.8403 144.293 47.9554 144.946 48.886C145.254 49.3033 145.616 49.6782 146.022 50.0006C146.431 50.3144 146.877 50.575 147.351 50.7768C148.112 51.0985 148.918 51.3033 149.74 51.384C149.984 51.4071 150.231 51.4148 150.484 51.4148C151.535 51.409 152.573 51.192 153.538 50.7768C154.492 50.3757 155.318 49.722 155.928 48.886C156.58 47.9548 156.918 46.8401 156.894 45.7037V39.9469C156.889 39.359 156.804 38.7744 156.641 38.2096V38.2096ZM153.413 45.7037C153.417 46.1892 153.254 46.6616 152.951 47.0413C152.651 47.4036 152.273 47.6929 151.844 47.8869C151.412 48.0628 150.949 48.1538 150.483 48.1556C150.233 48.1559 149.984 48.1328 149.739 48.0865C149.501 48.0406 149.268 47.9739 149.042 47.8869C148.604 47.6936 148.215 47.4047 147.904 47.0413C147.611 46.6574 147.455 46.1865 147.46 45.7037V39.9469C147.452 39.4777 147.609 39.0205 147.904 38.6554C148.212 38.3125 148.605 38.0555 149.042 37.9097C149.267 37.8217 149.5 37.7573 149.739 37.7175C149.984 37.6738 150.233 37.6535 150.483 37.6564C150.948 37.6566 151.41 37.7423 151.844 37.9097C152.272 38.0562 152.654 38.3136 152.951 38.6554C153.256 39.0162 153.42 39.4749 153.413 39.9469V45.7037ZM103.623 36.6802C102.995 35.8676 102.158 35.2403 101.202 34.866C100.219 34.4799 99.1715 34.287 98.1159 34.2974C97.1345 34.2756 96.1578 34.4373 95.2358 34.774C95.1653 34.7945 95.0964 34.8198 95.0298 34.8506C93.9295 35.3044 92.9493 36.0071 92.1659 36.9031L94.192 38.7632C94.5005 38.4509 94.852 38.1841 95.2358 37.9713C95.4882 37.8254 95.7528 37.702 96.0267 37.6023C96.7257 37.3762 97.4635 37.295 98.195 37.364C98.8743 37.4148 99.5238 37.6634 100.064 38.079C100.614 38.5157 100.986 39.1391 101.107 39.8313V40.8307C100.151 40.4365 99.1333 40.2101 98.0997 40.1619C97.1283 40.1117 96.1563 40.2474 95.2358 40.5616C95.1712 40.5847 95.1136 40.6076 95.0621 40.6307C94.0507 40.9699 93.176 41.6271 92.5683 42.5038C91.9607 43.3806 91.6527 44.4301 91.6901 45.4962C91.6926 46.1585 91.783 46.8179 91.9591 47.4564H80.1376L92.6086 30.8768L91.4857 28.4865H75.8648V32.0992H87.6248L75.2022 48.5861L76.183 50.9997H92.1513V47.9942C92.3175 48.4038 92.5298 48.7934 92.7839 49.1551C92.9607 49.3889 93.1569 49.6075 93.3703 49.8085C93.7914 50.1992 94.279 50.5114 94.81 50.7306C94.9468 50.7921 95.089 50.8536 95.2373 50.9074C96.0968 51.2127 96.9996 51.3788 97.9114 51.3994C99.0609 51.4513 100.213 51.3765 101.346 51.1765C102.446 50.9815 103.526 50.6882 104.574 50.3001V39.7393C104.599 38.6433 104.266 37.5689 103.624 36.6802H103.623ZM101.108 48.0712C100.456 48.2592 99.7863 48.3828 99.1097 48.4401C98.4415 48.4981 97.7684 48.4488 97.1159 48.2941C96.5315 48.1717 96.0034 47.8613 95.6124 47.4102C95.44 47.1965 95.311 46.9511 95.2327 46.6878C95.1221 46.3009 95.0795 45.8976 95.1067 45.4962C95.1226 45.2842 95.1649 45.075 95.2327 44.8735C95.3416 44.5071 95.5632 44.1846 95.8661 43.9514C96.3437 43.5894 96.9145 43.3705 97.5117 43.3209C98.154 43.244 98.8039 43.2596 99.4417 43.3671C100.018 43.4376 100.579 43.5985 101.104 43.8437V48.0712H101.108Z" fill="white"/>
<path fill-rule="evenodd" clip-rule="evenodd" d="M45.3764 38.3248L46.0367 55.0504L34.1037 44.2588L32.4265 30.3619L45.3764 38.3248Z" fill="#DEDEDE"/>
<path fill-rule="evenodd" clip-rule="evenodd" d="M55.6031 32.9523L59.826 30.3619L58.1634 44.2588L46.2158 55.0658L46.8745 38.3248L52.1158 35.0889L51.7707 43.298L55.0343 40.9921L55.6031 32.9523Z" fill="#B4B4B4"/>
</g>
<defs>
<clipPath id="clip0">
<rect width="170.636" height="39.2001" fill="white" transform="translate(28.082 20.8002)"/>
</clipPath>
</defs>
</svg>
