<svg width="136" height="30" viewBox="0 0 136 30" fill="none" xmlns="http://www.w3.org/2000/svg"><path d="M22.697 18.325V4.146c0-1.465.834-2.321 2.164-2.321h4.778c4.824 0 7.529 2.14 7.529 6.175 0 4.058-2.57 6.154-7.529 6.154h-2.772v4.147c0 1.195-.631 1.893-1.803 1.893h-.631c-1.082.023-1.736-.63-1.736-1.87zm4.125-7.28h2.772c2.277 0 3.494-1.06 3.494-2.998 0-1.916-1.217-2.953-3.516-2.953h-2.75v5.95zm11.72-9.039C38.542.766 39.4 0 40.774 0c1.397 0 2.231.744 2.231 2.006 0 1.262-.856 2.029-2.231 2.029s-2.232-.744-2.232-2.029zm.226 16.319V8.114c0-1.443.766-1.917 1.78-1.917h.429c1.06 0 1.78.451 1.78 1.916v10.21c0 1.443-.743 1.894-1.735 1.894h-.428c-1.06 0-1.826-.406-1.826-1.893zm6.649 0V.925c0-.159.699-.452 1.488-.452 1.194 0 2.479.631 2.479 3.2v14.652c0 1.442-.744 1.893-1.758 1.893h-.406c-1.037 0-1.803-.406-1.803-1.893zm16.07-.27c-.969 1.419-2.366 2.433-4.53 2.433-3.606 0-5.116-2.547-5.116-5.702V8.114c0-1.442.744-1.916 1.758-1.916h.428c1.037 0 1.803.451 1.803 1.916v6.063c0 1.826.924 2.953 2.615 2.953 1.33 0 2.389-.744 2.953-1.803V8.114c0-1.442.743-1.916 1.78-1.916h.383c1.06 0 1.803.451 1.803 1.916v11.653c0 .135-.676.45-1.487.45-.97 0-2.074-.405-2.39-2.163zm6.47.27V.925c0-.159.698-.452 1.487-.452 1.195 0 2.48.631 2.48 3.2v14.652c0 1.442-.744 1.893-1.759 1.893h-.405c-1.037 0-1.803-.406-1.803-1.893zm6.558 0V.925c0-.159.7-.452 1.488-.452 1.195 0 2.48.631 2.48 3.2v8.634l3.876-4.892c.654-.924 1.488-1.262 2.209-1.262 1.262 0 2.231 1.15 2.119 1.353l-4.35 5.386 4.913 6.018c.113.203-.901 1.353-2.164 1.353-.743 0-1.555-.316-2.254-1.262l-4.304-5.23v4.553c0 1.443-.744 1.894-1.759 1.894h-.428c-1.104 0-1.826-.406-1.826-1.893zm13.254-1.871c0-3.178 2.817-4.598 8.858-4.688h.45c0-1.781-.991-2.75-2.817-2.75-1.916 0-2.908 1.037-3.404 2.118 0 .068-2.569.136-2.569-1.69 0-1.713 2.029-3.403 6.243-3.403 4.35 0 6.492 1.983 6.492 5.68v8.114c0 .203-.744.45-1.488.45-1.262 0-2.119-.676-2.344-2.163-.992 1.442-2.75 2.276-4.778 2.276-2.885.023-4.643-1.6-4.643-3.944zm9.33-1.736v-.789l-.743.023c-3.133.09-4.778.721-4.778 2.209 0 1.014.834 1.668 2.141 1.668 1.984 0 3.38-1.308 3.38-3.11zm5.974 3.72v-.384c0-1.24.631-1.87 1.871-1.87h.496c1.307 0 1.915.63 1.915 1.87v.383c0 1.24-.631 1.871-1.915 1.871h-.496c-1.217 0-1.871-.631-1.871-1.87zm5.77-5.207c0-4.17 3.043-7.168 7.258-7.168s5.86 2.39 5.86 3.72c0 1.6-2.119 1.892-2.209 1.757-.541-1.33-1.555-2.276-3.494-2.276-2.163 0-3.764 1.668-3.764 3.99 0 2.366 1.578 4.056 3.764 4.056 1.894 0 2.953-.969 3.494-2.276.068-.18 2.209.09 2.209 1.78 0 1.308-1.758 3.697-5.86 3.697-4.283-.023-7.258-3.02-7.258-7.28zm14.042 5.477v-.226c0-.901.248-1.194.879-1.893l6.153-7.168h-5.341c-1.105 0-1.601-.45-1.601-1.442v-.203c0-.924.496-1.442 1.601-1.442h8.858c1.059 0 1.532.676 1.532 1.397v.203c0 .856-.248 1.15-.879 1.826l-6.333 7.28h5.837c1.105 0 1.601.45 1.601 1.442v.18c0 .97-.496 1.466-1.601 1.466h-9.241c-1.037-.023-1.465-.722-1.465-1.42z" fill="#E6007E"/><path d="M15.597 8.407h-3.561V4.621c0-1.533-1.262-2.773-2.795-2.773a2.775 2.775 0 00-2.795 2.773v3.786H2.772C1.217 8.407 0 9.67 0 11.202a2.775 2.775 0 002.772 2.795h3.674v3.449c0 1.532 1.262 2.772 2.795 2.772s2.795-1.24 2.795-2.772v-3.449h3.584c1.533 0 2.772-1.262 2.772-2.795-.022-1.532-1.262-2.795-2.795-2.795zm7.258 20.894v-4.057c0-.36.18-.54.495-.54h.18c.339 0 .52.18.52.54v3.674h1.96c.36 0 .563.18.563.496v.045c0 .338-.18.518-.563.518h-2.524c-.406-.045-.631-.27-.631-.676zm6.063 0V25.38c0-.428.225-.653.63-.653h2.93c.361 0 .564.18.564.496v.045c0 .338-.18.496-.563.496h-2.344V26.8h1.713c.383 0 .563.18.563.474v.045c0 .315-.18.473-.563.473h-1.713v1.15h2.389c.36 0 .563.157.563.473v.045c0 .316-.18.518-.563.518H29.57c-.428-.045-.653-.27-.653-.676zm2.276-6.378a.727.727 0 01.406-.136c.293 0 .518.203.518.451 0 .226-.158.474-.383.609-.631.383-1.397.36-1.465.27-.068-.113.383-.879.924-1.194zm4.26 6.514v-4.215c0-.361.18-.541.496-.541h.18c.338 0 .519.18.519.54v1.871l1.713-2.028c.225-.293.45-.383.653-.383.451 0 .699.428.654.473l-1.758 2.119 1.825 2.231c.046.068-.225.473-.698.473-.226 0-.451-.09-.654-.36L36.65 27.52v1.915c0 .361-.18.541-.519.541h-.18c-.316 0-.496-.18-.496-.54zm9.805-.835h-1.916l-.316.834c-.157.429-.383.564-.653.564-.338 0-.654-.248-.632-.36l1.804-4.621c.067-.226.225-.36.766-.36.564 0 .699.134.766.36l1.826 4.598c.045.09-.293.36-.654.36-.248 0-.518-.135-.698-.563l-.293-.812zm-1.668-.878h1.442l-.721-1.894-.721 1.894zm1.104-4.801a.727.727 0 01.406-.136c.293 0 .518.203.518.451 0 .226-.157.474-.383.609-.63.383-1.397.36-1.465.27-.045-.113.406-.879.924-1.194zm7.213 6.559l-1.127-1.42h-.45v1.352c0 .338-.181.54-.52.54h-.18c-.315 0-.495-.224-.495-.653v-3.944c0-.428.225-.654.63-.654h1.556c1.352 0 2.073.564 2.073 1.623 0 .834-.473 1.42-1.352 1.555l1.352 1.646c.045.067-.18.45-.698.45-.338 0-.541-.135-.79-.495zm-1.578-2.277h.902c.63 0 .946-.293.946-.789 0-.496-.315-.789-.969-.789h-.879v1.578zm5.5 2.232v-4.17c0-.383.203-.586.518-.586h.158c.315 0 .428.112.608.338l2.254 3.11v-2.907c0-.361.18-.541.496-.541h.113c.338 0 .496.18.496.54v4.17c0 .384-.203.586-.496.586h-.09c-.316 0-.406-.09-.586-.293l-2.367-3.223v2.976c0 .36-.18.54-.518.54h-.113c-.293 0-.473-.18-.473-.54zm10.436-.835H64.35l-.316.834c-.158.429-.383.564-.654.564-.338 0-.653-.248-.63-.36l1.802-4.621c.068-.226.226-.36.767-.36.563 0 .698.134.766.36l1.826 4.598c.045.09-.293.36-.654.36-.248 0-.518-.135-.699-.563l-.293-.812zm-1.691-.878h1.442l-.72-1.894-.722 1.894z" fill="#4EAD33"/></svg>