<svg width="137" height="40" viewBox="0 0 137 40" fill="none" xmlns="http://www.w3.org/2000/svg"><path d="M2.446 1.647h27.106v5.882c-1.93-1.6-6.023-2.258-10.353-2.258v16.094c0 2.4.188 3.059 1.13 4.282h-8.66c.942-1.223 1.13-1.882 1.13-4.282V5.318c-4.376 0-8.423.658-10.353 2.258V1.647zm40.047 20.424c2.777 0 7.436-.66 9.224-2.26v5.883H31.999c.941-1.13 1.13-1.882 1.13-4.188V5.836c0-2.307-.189-3.06-1.13-4.189h18.73v5.882c-1.836-1.6-6.447-2.258-9.224-2.258h-2.212v6.4h1.6c1.6 0 4-.047 5.647-.66v4.754c-1.6-.565-4.047-.66-5.647-.66h-1.6v6.918h3.2v.047zm25.883-11.153c4.706.658 8.611 2.306 8.611 7.435 0 6.023-5.694 7.906-11.858 7.906-4.283-.047-7.906-.424-10.589-1.506v-5.459c3.812 2.494 7.718 3.247 10.589 3.247 2.964 0 5.74-.706 5.74-2.965 0-2.258-2.54-2.823-7.764-3.623-4.517-.706-8.565-2.588-8.612-7.059-.047-5.976 5.647-7.812 11.06-7.812 3.481 0 6.917.424 10.023 1.46v5.787c-2.588-2.306-6.494-3.623-10.306-3.623-2.588 0-4.988.847-4.988 2.73 0 2.493 3.623 2.823 8.094 3.482zm26.823-9.789c2.824 0 5.271.33 7.2.847V8c-1.929-1.977-4.188-3.2-7.153-3.2-5.459 0-9.082 3.812-9.082 8.894 0 5.082 3.623 8.894 9.082 8.894 2.965 0 5.271-1.223 7.153-3.2v5.977c-1.976.517-4.376.894-7.2.894-9.459 0-16.282-4.706-16.282-12.565 0-7.859 6.87-12.565 16.282-12.565zm24.236.001c-9.741 0-15.294 5.646-15.294 12.517 0 6.824 5.553 12.518 15.294 12.518s15.294-5.694 15.294-12.518c0-6.823-5.553-12.518-15.294-12.518zm0 21.458c-4.894 0-8.094-4.047-8.094-8.894 0-4.894 3.2-8.894 8.094-8.894 4.894 0 8.094 4 8.094 8.894 0 4.8-3.2 8.894-8.094 8.894z" fill="#ED1C24"/><path d="M118.071 32.235h16.423c.047.047.047.094 0 .141 0 0-.047 0-.047.047h-.047c-1.882.847-4.423 3.53-4.423 3.53-1.883 1.788-3.342 2.964-6.353 2.964h-15.577c-.047 0-.047-.047-.094-.094 0-.047 0-.047.047-.094l.047-.047c1.694-.941 4.283-3.623 4.283-3.623.988-1.224 3.105-2.824 5.741-2.824zm-26.636 0h16.377c.047.047.047.094 0 .141 0 0-.047 0-.047.047h-.047c-1.883.847-4.424 3.53-4.424 3.53-1.882 1.788-3.341 2.964-6.353 2.964H81.365c-.047 0-.047-.047-.094-.094 0-.047 0-.047.047-.094l.047-.047c1.694-.941 4.282-3.623 4.282-3.623 1.035-1.224 3.106-2.824 5.788-2.824zm-26.635 0h16.422c.047.047.047.094 0 .141 0 0-.047 0-.047.047h-.047c-1.883.847-4.424 3.53-4.424 3.53-1.882 1.788-3.341 2.964-6.353 2.964H54.776c-.047 0-.047-.047-.094-.094 0-.047 0-.047.047-.094l.047-.047c1.694-.941 4.282-3.623 4.282-3.623.988-1.224 3.059-2.824 5.741-2.824zm-26.682 0H54.54c.047.047.047.094 0 .141 0 0-.047 0-.047.047h-.047c-1.882.847-4.423 3.53-4.423 3.53-1.883 1.788-3.342 2.964-6.353 2.964H28.047c-.047 0-.047-.047-.094-.094 0-.047 0-.047.047-.094l.047-.047c1.694-.941 4.283-3.623 4.283-3.623 1.035-1.224 3.153-2.824 5.788-2.824zm-26.636 0h16.424c.047.047.047.094 0 .141 0 0-.047 0-.047.047h-.048c-1.882.847-4.423 3.53-4.423 3.53-1.882 1.788-3.341 2.964-6.353 2.964H1.412c-.048 0-.048-.047-.095-.094 0-.047 0-.047.047-.094l.047-.047c1.695-.941 4.283-3.623 4.283-3.623 1.035-1.224 3.106-2.824 5.788-2.824z" fill="#0053A1"/></svg>