<svg width="51" height="60" viewBox="0 0 51 60" fill="none" xmlns="http://www.w3.org/2000/svg"><g clip-path="url(#clip0_1267:16914)"><path d="M7.502 49.573C3.241 46.083.99 41.062.99 35.064V6.554c6.73-3.568 14.877-5.376 24.218-5.376 9.342 0 17.49 1.808 24.219 5.375v28.511c0 5.998-2.251 11.016-6.512 14.509-3.898 3.195-16.285 8.63-17.707 9.248-1.421-.618-13.807-6.052-17.706-9.248z" fill="#300"/><path d="M48.1 6.218c-3.113-.289-6.346-.48-9.64-.48-12.218 0-25.316 2.627-36.144 12.558v16.975c0 5.53 2.045 10.146 5.93 13.312 3.43 2.791 13.986 7.572 16.963 8.885 2.938-1.293 13.467-6.011 16.958-8.885 3.909-3.221 5.934-7.73 5.934-13.312V6.218zM4.556 33.505V19.718h4.383V33.7c0 1.245.3 3.087 2.311 3.087.729.03 1.45-.159 2.071-.54v-16.53h4.378v19.028a11.663 11.663 0 01-6.608 1.76c-4.34 0-6.54-2.355-6.54-7.001h.005zM24.34 49.418h-4.387V20.835a10.592 10.592 0 015.912-1.56c5.235 0 8.112 3.972 8.112 10.365 0 6.393-2.791 10.79-7.662 10.79a6.95 6.95 0 01-1.974-.248l-.001 9.236zm0-12.82c.455.17.937.26 1.423.264 2.52 0 3.73-2.316 3.73-7.112 0-4.913-1.055-6.945-3.602-6.945a3.821 3.821 0 00-1.554.316l.003 13.476zM34.97 24.99a5.82 5.82 0 015.885-5.716 7.511 7.511 0 014.813 1.424v3.814a5.872 5.872 0 00-3.928-1.8c-1.243-.01-2.537.536-2.58 2.095-.042 1.596 1.25 2.226 2.881 3.186 3.664 2.154 4.372 4.09 4.288 6.647-.084 2.805-2.017 5.867-6.35 5.867a9.6 9.6 0 01-4.821-1.36v-4.04a6.981 6.981 0 004.192 1.784c1.608.008 2.667-.914 2.63-2.444-.034-1.376-.81-2.124-2.74-3.258-3.617-2.12-4.267-3.867-4.273-6.2h.003zM6.778 50.37C2.341 46.737 0 41.514 0 35.271V5.594C7.003 1.882 15.485 0 25.209 0c9.723 0 18.205 1.882 25.208 5.595V35.27c0 6.243-2.34 11.466-6.778 15.101-4.057 3.326-16.95 8.983-18.43 9.626-1.48-.643-14.374-6.3-18.43-9.627zM41.3 56.59v2.576h.464v-1.075h.066l.7 1.075h.562s-.706-1.032-.778-1.13a.685.685 0 00.57-.684.752.752 0 00-.857-.757l-.727-.005zm.677.377c.395 0 .45.193.45.36 0 .241-.104.404-.602.404h-.06v-.766l.212.002zm1.818.918a1.744 1.744 0 11-3.488-.007 1.744 1.744 0 013.488.007zm-1.75-2.12a2.116 2.116 0 10.004 4.233 2.116 2.116 0 00-.005-4.233z" fill="#FFBE00"/></g><defs><clipPath id="clip0_1267:16914"><path fill="#fff" d="M0 0h50.417v60H0z"/></clipPath></defs></svg>