<svg width="227" height="80" viewBox="0 0 227 80" fill="none" xmlns="http://www.w3.org/2000/svg"><path fill="#BA1B02" d="M0 0h227v80H0z"/><g clip-path="url(#clip0)" fill-rule="evenodd" clip-rule="evenodd"><path d="M47.038 36.519l-.914.438-.913-.438-12.755-6.334 6.049-2.321 13.083 6.387-4.55 2.268zm12.77-6.334l-4.566 2.23-13.235-5.92 4.117-1.598 13.685 5.288zM30.166 45.942l.418.769 14.703 13.282.46-3.044L32.68 45.127l-1.827-15.365-2.767-1.068 2.08 17.248zm31.231-16.18L59.584 45.12 46.498 56.933l.48 3.06L61.664 46.71l.419-.769 2.082-17.248-2.77 1.069zM45.646 20.8L28.89 27.303l2.35 1.897 14.88-5.795L61.006 29.2l2.35-1.898L46.618 20.8h-.973zm135.921 14.243a5.51 5.51 0 012.296 1.876 5.69 5.69 0 01.885 3.181V51h-3.434V40.13a2.385 2.385 0 00-.744-1.637 3.452 3.452 0 00-1.614-.822 5.086 5.086 0 00-1.899-.1 4.293 4.293 0 00-1.646.53V51h-3.465V35.458c.305-.041.606-.105.901-.192.369-.116.934-.3 1.691-.561a10.198 10.198 0 012.817-.423.536.536 0 01.222 0c.289-.014.58-.009.868.015a8.945 8.945 0 013.119.746h.003zm-10.179.446l-5.444 15.51h-3.672l-5.444-15.51a6.059 6.059 0 003.323-.969l3.292 9.593.538 3.274h.253l.538-3.274 3.292-9.593a6.068 6.068 0 003.324.969zm-56.499 6.426c.79.313 1.484.83 2.01 1.498.566.803.855 1.77.823 2.752a5.017 5.017 0 01-1.013 3.151 5.262 5.262 0 01-2.532 1.7 7.467 7.467 0 01-3.26.276 7.574 7.574 0 01-3.166-1.215 6.426 6.426 0 01-2.262-2.667l2.596-1.69a4.666 4.666 0 001.646 1.69 4.445 4.445 0 002.025.661 2.784 2.784 0 001.755-.376 1.737 1.737 0 00.777-1.468 1.212 1.212 0 00-.411-.938 2.773 2.773 0 00-.982-.569 18.668 18.668 0 00-1.186-.307 15.355 15.355 0 01-1.885-.462 7.89 7.89 0 01-1.883-.86 4.35 4.35 0 01-1.472-1.46 4.134 4.134 0 01-.554-1.977v-.06c-.01-.09-.014-.18-.014-.27a4.486 4.486 0 01.964-2.928 5.256 5.256 0 012.311-1.622 8.01 8.01 0 012.833-.477 7.079 7.079 0 012.722.569 8.674 8.674 0 012.627 1.783l-2.089 2.29a4.54 4.54 0 00-1.662-1.03 5.53 5.53 0 00-1.916-.384 3.336 3.336 0 00-1.598.362 1.469 1.469 0 00-.347 2.314c.336.304.736.53 1.171.66.451.16.918.273 1.393.339.887.128 1.753.368 2.579.715zm7.359-12.845c.409.436.63 1.017.615 1.615a2.21 2.21 0 01-.615 1.56 2.137 2.137 0 01-1.598.646 2.064 2.064 0 01-1.537-.646 2.187 2.187 0 01-.633-1.56 2.253 2.253 0 01.633-1.614 2.17 2.17 0 011.537-.63 2.247 2.247 0 011.598.63zm8.878 18.786V28.471h3.487V41.17l1.63-1.814.016-.03 4.24-4.79h4.352l-6.836 7.587L144.82 51h-4.083l-5.159-6.741-.965.983V51l-3.339.13h-.184a1.995 1.995 0 01-.222-.015l-.181-.016c-2.226-.16-3.798-.66-4.716-1.498a5.371 5.371 0 01-1.645-4.136V28.471h3.481v16.994a2.208 2.208 0 00.68 1.699 4.899 4.899 0 002.643.692h-.004zM122.474 51h-3.481V34.482h3.481V51zM99.542 33.498h-3.418l2.246-3.72h4.29l-3.118 3.72zm98.216 3.182a5.682 5.682 0 00-2.421-1.814 8.226 8.226 0 00-3.086-.569 7.922 7.922 0 00-3.087.554 7.725 7.725 0 00-2.864 2.052l2.026 1.86a4.656 4.656 0 011.836-1.16 5.391 5.391 0 012.167-.239c.68.05 1.329.3 1.869.715a2.87 2.87 0 011.044 1.752v1a8.978 8.978 0 00-3.007-.67 7.665 7.665 0 00-3.039.47 4.945 4.945 0 00-3.371 4.865 6.128 6.128 0 00.886 3.36 4.898 4.898 0 002.229 1.875 8.462 8.462 0 003.104.668c1.149.052 2.3-.023 3.433-.223 1.1-.194 2.18-.488 3.228-.876V39.74a5.02 5.02 0 00-.949-3.06h.002zm-2.518 11.391c-.651.188-1.319.312-1.994.37a6.333 6.333 0 01-1.998-.147 2.739 2.739 0 01-1.505-.884 2.772 2.772 0 01-.504-1.914 2.064 2.064 0 01.759-1.545 3.158 3.158 0 011.646-.63 6.769 6.769 0 011.93.046 5.51 5.51 0 011.662.477v4.227h.004zm-38.599-9.861a4.486 4.486 0 00-.713-1.415 5.86 5.86 0 00-2.39-1.914 8.12 8.12 0 00-3.054-.637 5.92 5.92 0 00-.744.053 7.918 7.918 0 00-2.389.584 5.611 5.611 0 00-1.551 1.007c-.32.267-.606.572-.854.907a5.27 5.27 0 00-.966 3.152v5.757a5.336 5.336 0 00.966 3.182c.308.417.67.792 1.076 1.115.409.313.855.574 1.329.776a8.194 8.194 0 002.389.607 7.835 7.835 0 003.798-.607 5.687 5.687 0 002.39-1.891 5.35 5.35 0 00.966-3.182v-5.757a6.464 6.464 0 00-.253-1.737zm-3.228 7.494c.004.485-.159.958-.462 1.337a3.09 3.09 0 01-1.107.846 3.65 3.65 0 01-1.361.269 3.98 3.98 0 01-1.441-.27 3.196 3.196 0 01-1.138-.845 2.168 2.168 0 01-.444-1.337v-5.757a2 2 0 01.444-1.292c.308-.343.701-.6 1.138-.745a3.973 3.973 0 011.441-.253c.465 0 .927.085 1.361.253.428.146.81.404 1.107.745.305.361.469.82.462 1.292v5.757zm-49.79-9.024a5.676 5.676 0 00-2.421-1.814 8.219 8.219 0 00-3.086-.569 7.885 7.885 0 00-2.88.477c-.07.02-.14.046-.206.077a7.709 7.709 0 00-2.864 2.052l2.026 1.86a4.61 4.61 0 011.044-.792c.252-.146.517-.269.79-.369a5.398 5.398 0 012.169-.238c.68.05 1.329.3 1.869.715a2.87 2.87 0 011.043 1.752v1a8.989 8.989 0 00-3.007-.67 7.644 7.644 0 00-2.864.4 2.4 2.4 0 00-.174.07 4.95 4.95 0 00-3.372 4.865 7.48 7.48 0 00.27 1.96H80.137l12.47-16.58-1.122-2.39h-15.62V32.1h11.76L75.202 48.586 76.183 51h15.968v-3.006c.166.41.379.8.633 1.161a4.822 4.822 0 002.026 1.576c.137.061.279.123.427.176.86.306 1.763.472 2.674.492a15.69 15.69 0 003.435-.223c1.1-.195 2.18-.488 3.228-.876V39.74a5.028 5.028 0 00-.95-3.06h-.001zm-2.515 11.391c-.652.188-1.322.312-1.998.37a6.286 6.286 0 01-1.994-.147 2.73 2.73 0 01-1.504-.884 2.107 2.107 0 01-.38-.722 3.48 3.48 0 01-.125-1.192 2.55 2.55 0 01.126-.623 1.82 1.82 0 01.633-.922 3.157 3.157 0 011.646-.63 6.77 6.77 0 011.93.046c.576.07 1.137.232 1.662.477v4.227h.004z" fill="#fff"/><path d="M45.376 38.325l.66 16.725-11.931-10.79-1.678-13.897 12.95 7.963z" fill="#DEDEDE"/><path d="M55.603 32.952l4.223-2.59-1.663 13.897-11.947 10.807.658-16.741 5.242-3.236-.345 8.209 3.263-2.306.57-8.04z" fill="#B4B4B4"/></g><defs><clipPath id="clip0"><path fill="#fff" transform="translate(28.082 20.8)" d="M0 0h170.636v39.2H0z"/></clipPath></defs></svg>