<?xml version="1.0" encoding="utf-8"?>
<!-- Generator: Adobe Illustrator 25.4.1, SVG Export Plug-In . SVG Version: 6.00 Build 0)  -->
<svg version="1.1" id="Vrstva_1" xmlns="http://www.w3.org/2000/svg" xmlns:xlink="http://www.w3.org/1999/xlink" x="0px" y="0px"
	 viewBox="0 0 101 49" enable-background="new 0 0 101 49" xml:space="preserve">
<path fill="#B6CD1E" d="M24.8,1.9c-12.7,0-23,10.2-23,22.6c0,12.5,10.3,22.6,23,22.6h50.8c12.7,0,23-10.2,23-22.6
	c0-12.5-10.3-22.6-23-22.6H24.8z"/>
<path fill="#28367B" d="M24.8,1.9c-12.7,0-23,10.2-23,22.6s10.3,22.6,23,22.6h50.8c12.7,0,23-10.2,23-22.6S88.3,1.9,75.6,1.9H24.8z
	 M75.6,49H24.8C11.1,49,0,38,0,24.5C0,11,11.1,0,24.8,0h50.8c13.7,0,24.8,11,24.8,24.5C100.4,38,89.3,49,75.6,49z"/>
<path fill="#28367B" d="M55.4,18.7c-1.5,0-2.6,0.6-3.3,1.9c-0.9-1.4-1.7-1.9-3.4-1.9c-1.6,0-2.7,0.5-3.5,2.1V19h-3v11.9h3.2v-7.2
	c0-1.5,0.7-2.3,1.9-2.3c1.4,0,1.9,0.5,1.9,2.4v7.2h3.2v-7.1c0-1.4,0.9-2.5,2-2.5c1.1,0,1.9,1,1.9,2.4v7.2h3.1v-8.2
	C59.5,20.4,57.8,18.7,55.4,18.7z"/>
<path fill="#28367B" d="M67.8,28.7c-1.5,0-2.7-1.4-2.7-3.4c0-2.6,0.9-3.9,2.7-3.9c1.9,0,2.7,1.2,2.7,3.7
	C70.5,27.2,69.4,28.7,67.8,28.7z M68.8,18.7c-1.5,0-2.7,0.6-3.6,1.9v-5.9h-3.1v16.2h3.1l0-1.4c0.8,1.2,1.9,1.8,3.4,1.8
	c3,0,5.2-2.4,5.2-6.4C73.7,21.2,71.9,18.7,68.8,18.7z"/>
<path fill="#28367B" d="M80.4,21.2c1.3,0,2.4,0.8,2.5,2.6h-4.9C78,22.2,79.1,21.2,80.4,21.2z M80.5,28.7c-1.6,0-2.6-1.2-2.7-2.9h8.3
	c0-4.7-2-7.1-5.7-7.1c-3.7,0-5.8,2.4-5.8,6c0,4.3,2,6.5,6,6.5c2.6,0,4.6-1.4,5.3-3.8h-3.3C82.5,28.2,81.6,28.7,80.5,28.7z"/>
<path fill="#28367B" d="M27.4,12.6l-13.1,2l0.4,2.8l4.8-0.7l2,13.1l3.4-0.5l-2-13.1l4.9-0.7L27.4,12.6z"/>
<path fill="#28367B" d="M35.8,26.6c-0.3,1.5-1.4,2.5-3,2.2c-1.3-0.3-1.8-1.1-1.5-2.6l1.5-7.2l-3.1-0.6L28.1,26
	c-0.5,2.6,0.8,4.6,3.1,5.1c1.6,0.3,3,0,4.1-1.2l-0.3,1.6c-0.5,2.1-2.6,3.5-4.8,3.1c-1.3-0.3-2.4-1.1-2.9-2.4l-2.8,1.1
	c0.9,2.1,2.8,3.7,5.1,4.1c3.8,0.8,7.5-1.6,8.3-5.4l2.4-11.6l-3.1-0.6L35.8,26.6z"/>
</svg>
