<svg width="129" height="26" viewBox="0 0 129 26" fill="none" xmlns="http://www.w3.org/2000/svg">
<path d="M29.7939 13.0121V10.0654H39.1948V13.0121H29.7939Z" fill="#28367B"/>
<path d="M48.7449 10.5938C48.6372 9.54481 48.09 8.91223 46.5647 8.91223C45.2632 8.91223 44.6331 9.38466 44.6331 9.99322C44.6331 10.6018 45.3958 10.9861 46.5149 11.2744C47.9489 11.5547 49.3531 11.9622 50.7097 12.4915C51.3712 12.7364 51.9342 13.1795 52.3161 13.7559C52.6981 14.3323 52.8788 15.0117 52.8319 15.6945C52.8319 18.2248 51.0827 19.9304 46.946 19.9304C42.8093 19.9304 40.4716 18.1688 40.3887 15.4383H44.4176C44.4176 16.4632 45.3129 17.1919 46.9792 17.1919C48.09 17.1919 48.9936 16.8556 48.9936 15.9828C48.9936 15.3021 48.4216 15.0699 47.2196 14.7736C45.8645 14.5261 44.5414 14.1368 43.2736 13.6126C42.5617 13.3384 41.9521 12.8631 41.5247 12.2487C41.0972 11.6343 40.8717 10.9096 40.8778 10.1694C40.8778 8.06344 42.3783 6.32584 46.6807 6.32584C50.6019 6.32584 52.293 7.7992 52.4837 10.5858L48.7449 10.5938ZM45.0725 4.86049L41.6736 1.44934L43 0L46.6227 2.97074L50.2703 0L51.605 1.44934L48.1729 4.86049H45.0725Z" fill="#28367B"/>
<path d="M62.1743 19.6099L59.5629 14.0607L58.2531 15.462V19.6099H54.2988V1.94556H58.2697V11.09L61.9173 6.67793H66.7338L62.4064 11.4103L66.626 19.6099H62.1743Z" fill="#28367B"/>
<path d="M67.7451 13.148C67.7451 9.04024 70.4062 6.33374 74.7087 6.33374C79.0112 6.33374 81.5976 9.01622 81.5976 13.148C81.5976 17.2798 78.9283 19.9543 74.7087 19.9543C70.3316 19.9543 67.7451 17.1677 67.7451 13.148ZM77.6184 13.148C77.6184 10.6737 76.6734 9.56873 74.7087 9.56873C72.744 9.56873 71.7989 10.6737 71.7989 13.148C71.7989 15.6223 72.7522 16.8154 74.7087 16.8154C76.6651 16.8154 77.6184 15.6143 77.6184 13.148Z" fill="#28367B"/>
<path d="M83.3145 19.6099V1.94556H87.2605V19.6099H83.3145Z" fill="#28367B"/>
<path d="M92.8474 14.1169C92.9552 15.7184 93.9914 16.9275 95.4836 16.9275C95.9079 16.9725 96.3362 16.8878 96.708 16.6852C97.0798 16.4827 97.3764 16.1725 97.5561 15.7985H101.61C101.26 17.0413 100.48 18.1311 99.4005 18.8871C98.3209 19.643 97.006 20.0196 95.6743 19.9543C91.1562 19.9543 88.9014 17.5521 88.9014 12.9078C88.9014 8.90411 91.2972 6.33374 95.4339 6.33374C99.5705 6.33374 101.776 8.784 101.776 13.5404V14.0929L92.8474 14.1169ZM97.8214 11.8268C97.7136 10.1212 96.7271 9.36053 95.3344 9.36053C93.9417 9.36053 93.0215 10.2013 92.8888 11.8268H97.8214Z" fill="#28367B"/>
<path d="M111.831 19.6101V11.6027C111.831 10.0012 111.209 9.44871 109.792 9.44871C108.241 9.44871 107.454 10.2494 107.454 11.8509V19.6581H103.508V6.67815H107.263V8.27963C108.026 6.96642 109.327 6.30981 111.292 6.30981C113.903 6.30981 115.81 7.91129 115.81 10.4416V19.6101H111.831Z" fill="#28367B"/>
<path d="M119.21 5.04483L118.314 3.4994L123.918 0.424561L125.278 2.73069L119.21 5.04483ZM118.961 19.6103V6.67833H122.907V19.6103H118.961Z" fill="#28367B"/>
<path d="M14.151 0.28833L0 2.36224L0.497397 5.64527L5.55427 4.90859L7.61847 18.5452L11.6308 17.9606L9.56661 4.31605L14.6484 3.57136L14.151 0.28833Z" fill="#28367B"/>
<path d="M28.2271 7.20667L24.5298 6.46999L23.1454 13.2122C22.7392 15.2141 21.9765 16.1669 20.36 15.8466C19.1082 15.5904 18.5693 14.8297 18.8512 13.4444L20.4512 5.66925L16.729 4.92456L14.9632 13.5165C14.8255 14.0673 14.807 14.6397 14.9089 15.1977C15.0108 15.7558 15.2309 16.2875 15.5554 16.7596C15.8799 17.2317 16.3019 17.6339 16.7948 17.9412C17.2878 18.2484 17.8411 18.454 18.4201 18.5451C19.1366 18.7448 19.8969 18.7456 20.6138 18.5473C21.3307 18.349 21.9754 17.9598 22.4739 17.4241L22.1589 18.9455C21.983 19.8586 21.5058 20.6921 20.7987 21.3214C20.0915 21.9507 19.1925 22.3419 18.2359 22.4366C17.2794 22.5312 16.3169 22.3242 15.4924 21.8464C14.6678 21.3687 14.0256 20.6459 13.6617 19.7863L10.3457 21.1636C10.8454 22.3415 11.6352 23.3838 12.6464 24.2001C13.6576 25.0164 14.8598 25.582 16.1487 25.8479C16.3228 25.8479 16.4969 25.9119 16.6709 25.9279C18.7232 26.1987 20.8047 25.6972 22.485 24.5273C24.1653 23.3573 25.3158 21.6084 25.6987 19.6421L28.2271 7.20667Z" fill="#28367B"/>
</svg>
