<?xml version="1.0" standalone="no"?>
<!DOCTYPE svg PUBLIC "-//W3C//DTD SVG 20010904//EN"
 "http://www.w3.org/TR/2001/REC-SVG-20010904/DTD/svg10.dtd">
<svg version="1.0" xmlns="http://www.w3.org/2000/svg"
 width="512.000000pt" height="512.000000pt" viewBox="0 0 512.000000 512.000000"
 preserveAspectRatio="xMidYMid meet">
<metadata>
Created by potrace 1.14, written by Peter Selinger 2001-2017
</metadata>
<g transform="translate(0.000000,512.000000) scale(0.100000,-0.100000)"
fill="#000000" stroke="none">
<path d="M1113 3799 c-559 -66 -1015 -504 -1098 -1056 -54 -354 52 -719 288
-990 186 -215 431 -357 727 -420 80 -17 172 -18 1525 -18 1577 0 1497 -3 1693
61 663 216 1025 920 808 1569 -145 434 -490 736 -960 843 -63 14 -224 16
-1491 18 -781 1 -1452 -2 -1492 -7z m3030 -121 c214 -59 392 -162 542 -312
146 -147 249 -325 302 -523 24 -89 27 -115 27 -283 0 -168 -3 -194 -27 -283
-53 -197 -156 -375 -302 -522 -150 -151 -322 -250 -543 -313 l-97 -27 -1435
-3 c-1235 -2 -1448 -1 -1530 12 -455 72 -827 407 -947 851 -24 92 -27 116 -27
285 0 169 3 193 27 285 102 379 389 682 767 809 168 56 113 54 1690 53 l1455
-2 98 -27z"/>
<path d="M1065 3117 c-181 -27 -332 -51 -334 -53 -4 -4 16 -134 21 -140 4 -3
183 21 224 31 19 4 22 -10 70 -321 27 -179 51 -330 54 -334 3 -5 42 -3 88 3
68 9 82 14 82 28 0 10 -20 152 -45 316 -25 164 -46 307 -48 318 -2 17 9 21
116 36 65 10 121 19 123 22 4 4 -14 140 -19 143 -1 0 -150 -21 -332 -49z"/>
<path d="M3160 2645 l0 -415 80 0 80 0 0 37 c0 37 0 37 16 15 63 -90 260 -83
341 12 98 115 110 331 27 459 -72 110 -234 137 -336 56 l-38 -30 0 141 0 140
-85 0 -85 0 0 -415z m367 49 c45 -29 58 -62 58 -154 0 -98 -16 -139 -68 -170
-96 -59 -197 24 -196 160 0 61 18 121 45 151 35 38 111 45 161 13z"/>
<path d="M1510 2874 c0 -1 -21 -100 -46 -221 -49 -235 -50 -267 -12 -335 56
-99 216 -133 310 -66 l31 21 -7 -39 c-28 -158 -179 -237 -308 -161 -26 15 -55
41 -65 57 -9 17 -23 30 -30 30 -12 0 -123 -46 -131 -55 -9 -8 48 -93 83 -124
20 -17 59 -43 88 -59 47 -24 62 -27 157 -27 100 0 108 1 168 34 74 40 126 94
157 165 13 28 51 181 84 341 34 160 63 299 66 310 4 19 -4 22 -73 37 -42 9
-80 13 -83 9 -4 -3 -24 -89 -45 -190 -33 -160 -42 -189 -67 -218 -37 -42 -83
-51 -134 -27 -67 33 -68 48 -27 246 19 95 38 189 41 208 l5 36 -81 15 c-45 9
-81 15 -81 13z"/>
<path d="M2445 2855 c-5 -2 -22 -6 -37 -9 -15 -4 -43 -22 -63 -41 l-35 -36 0
36 0 35 -80 0 -80 0 0 -305 0 -305 84 0 85 0 3 219 c3 197 5 221 22 239 42 47
136 35 155 -20 7 -18 11 -115 11 -234 l0 -204 85 0 85 0 0 208 c0 218 3 232
50 269 19 15 65 16 91 3 43 -24 49 -57 49 -275 l0 -206 83 3 82 3 0 235 c0
221 -1 237 -21 275 -25 45 -45 66 -90 89 -79 39 -169 28 -233 -29 l-38 -34
-33 34 c-43 44 -124 67 -175 50z"/>
<path d="M4023 2850 c-158 -33 -245 -184 -215 -376 28 -176 119 -255 297 -256
82 -1 129 12 184 51 31 22 75 84 86 119 6 22 5 22 -76 22 -78 0 -85 -2 -104
-26 -15 -19 -33 -27 -68 -31 -80 -9 -135 29 -152 105 l-7 32 213 0 212 0 -6
73 c-11 133 -61 223 -150 266 -49 23 -153 34 -214 21z m154 -152 c16 -13 43
-68 43 -88 0 -6 -45 -10 -121 -10 l-121 0 6 32 c13 64 76 102 144 87 18 -4 40
-13 49 -21z"/>
</g>
</svg>
