<?xml version="1.0" encoding="utf-8"?>
<!-- Generator: Adobe Illustrator 26.0.1, SVG Export Plug-In . SVG Version: 6.00 Build 0)  -->
<svg version="1.1" id="Vrstva_1" xmlns="http://www.w3.org/2000/svg" xmlns:xlink="http://www.w3.org/1999/xlink" x="0px" y="0px"
	 viewBox="0 0 28 28" style="enable-background:new 0 0 28 28;" xml:space="preserve">
<circle fill="#D5E0F9" cx="14" cy="14" r="14"/>
<path fill="#28367B" fill-rule="evenodd" clip-rule="evenodd" d="M14,28c7.7,0,14-6.3,14-14c0-7.7-6.3-14-14-14C6.3,0,0,6.3,0,14C0,21.7,6.3,28,14,28z M14.1,3.2
	C14,3.3,14,3.4,14,3.6v10.1c0,0.1,0,0.2,0,0.3c0,0.1-0.1,0.1-0.2,0.2L5,19.2c-0.2,0.1-0.3,0.2-0.3,0.3c0,0.1,0,0.2,0.2,0.4
	c0.9,1.5,2.2,2.7,3.7,3.6c1.7,1,3.5,1.5,5.4,1.5s3.8-0.5,5.4-1.5c1.7-1,3-2.3,4-4c1-1.7,1.5-3.5,1.5-5.4s-0.5-3.8-1.5-5.4
	c-1-1.7-2.3-3-4-4c-1.5-0.9-3.2-1.4-4.9-1.4C14.3,3.1,14.2,3.1,14.1,3.2z"/>
</svg>
