<?xml version="1.0" encoding="utf-8"?>
<!-- Generator: Adobe Illustrator 25.4.1, SVG Export Plug-In . SVG Version: 6.00 Build 0)  -->
<svg version="1.1" id="Vrstva_1" xmlns="http://www.w3.org/2000/svg" xmlns:xlink="http://www.w3.org/1999/xlink" x="0px" y="0px"
	 viewBox="0 0 15.6 16" style="enable-background:new 0 0 15.6 16;" xml:space="preserve">
<path fill-rule="evenodd" clip-rule="evenodd" fill="currentColor" d="M7.8,0C7.4,0,7.1,0.3,7.1,0.7v1.1H4c-0.6,0-1,0.4-1,1v6.4H1c-0.6,0-1,0.4-1,1V15c0,0.6,0.4,1,1,1h3h7.7h3
	c0.6,0,1-0.4,1-1v-4.7c0-0.6-0.4-1-1-1h-2V2.9c0-0.6-0.4-1-1-1H8.6V0.7C8.6,0.3,8.2,0,7.8,0z M5.8,3.7c-0.6,0-1,0.4-1,1v9.4h1.9
	v-2.2c0-0.6,0.5-1.1,1.1-1.1c0.6,0,1.1,0.5,1.1,1.1v2.2h1.9V4.7c0-0.6-0.4-1-1-1H5.8z M7.8,5.6c-0.6,0-1.1,0.5-1.1,1.1
	c0,0.6,0.5,1.1,1.1,1.1c0.6,0,1.1-0.5,1.1-1.1C8.9,6.1,8.4,5.6,7.8,5.6z"/>
</svg>
