<?xml version="1.0" encoding="utf-8"?>
<!-- Generator: Adobe Illustrator 25.4.1, SVG Export Plug-In . SVG Version: 6.00 Build 0)  -->
<svg version="1.1" id="Vrstva_1" xmlns="http://www.w3.org/2000/svg" xmlns:xlink="http://www.w3.org/1999/xlink" x="0px" y="0px"
	 viewBox="0 0 24 24" style="enable-background:new 0 0 24 24;" xml:space="preserve">
<path fill="currentColor" d="M12,23c-0.8,0-1.6-0.1-2.4-0.3c-1.4-0.3-2.7-0.9-3.9-1.7c-1.2-0.8-2.2-1.9-3-3.1c-0.8-1.2-1.3-2.6-1.6-4
	C0.9,12.5,0.9,11,1.3,9.6C1.6,8.2,2.2,6.9,3,5.7c0.8-1.2,1.9-2.2,3.1-3c1.2-0.8,2.6-1.3,4-1.6c1.4-0.3,2.9-0.2,4.3,0.1
	c1.4,0.3,2.7,0.9,3.9,1.7c1.2,0.8,2.2,1.9,3,3.1c0.8,1.2,1.3,2.6,1.6,4c0.3,1.4,0.2,2.9-0.1,4.3c-0.3,1.4-0.9,2.7-1.7,3.9
	c-0.8,1.2-1.9,2.2-3.1,3c-1.2,0.8-2.6,1.3-4,1.6C13.3,22.9,12.6,23,12,23z M12,3c-0.5,0-1,0-1.6,0.1C9.3,3.3,8.2,3.8,7.2,4.4
	C6.2,5,5.3,5.9,4.6,6.8c-0.7,1-1.2,2.1-1.4,3.2c-0.3,1.2-0.3,2.3-0.1,3.5c0.2,1.2,0.6,2.3,1.3,3.3c0.6,1,1.5,1.9,2.4,2.5
	c1,0.7,2.1,1.2,3.2,1.4c1.2,0.3,2.3,0.3,3.5,0.1l0,0c1.2-0.2,2.3-0.6,3.3-1.3c1-0.6,1.9-1.5,2.5-2.4c0.7-1,1.2-2.1,1.4-3.2
	c0.3-1.2,0.3-2.3,0.1-3.5c-0.2-1.2-0.6-2.3-1.3-3.3c-0.6-1-1.5-1.9-2.4-2.5s-2.1-1.2-3.2-1.4C13.3,3.1,12.7,3,12,3z"/>
<rect x="11" y="11" fill="currentColor" width="2" height="8"/>
<rect x="11" y="5" fill="currentColor" width="2" height="3"/>
</svg>
