<?xml version="1.0" encoding="utf-8"?>
<!-- Generator: Adobe Illustrator 25.4.1, SVG Export Plug-In . SVG Version: 6.00 Build 0)  -->
<svg version="1.1" id="Vrstva_1" xmlns="http://www.w3.org/2000/svg" xmlns:xlink="http://www.w3.org/1999/xlink" x="0px" y="0px"
	 viewBox="0 0 14 14" style="enable-background:new 0 0 14 14;" xml:space="preserve">
<path fill="currentColor" d="M7,1.3c1.9,0,2.1,0,2.8,0c1.9,0.1,2.8,1,2.9,2.9c0,0.7,0,1,0,2.8c0,1.9,0,2.1,0,2.8c-0.1,1.9-1,2.8-2.9,2.9
	c-0.7,0-1,0-2.8,0c-1.9,0-2.1,0-2.8,0c-1.9-0.1-2.8-1-2.9-2.9c0-0.7,0-1,0-2.8c0-1.9,0-2.1,0-2.8c0.1-1.9,1-2.8,2.9-2.9
	C4.9,1.3,5.1,1.3,7,1.3z M7,0C5.1,0,4.9,0,4.1,0C1.6,0.2,0.2,1.6,0,4.1c0,0.7,0,1,0,2.9s0,2.1,0,2.9c0.1,2.5,1.5,4,4.1,4.1
	c0.7,0,1,0,2.9,0s2.1,0,2.9,0c2.5-0.1,4-1.5,4.1-4.1c0-0.7,0-1,0-2.9s0-2.1,0-2.9c-0.1-2.5-1.5-4-4.1-4.1C9.1,0,8.9,0,7,0z M7,3.4
	C5,3.4,3.4,5,3.4,7c0,2,1.6,3.6,3.6,3.6c2,0,3.6-1.6,3.6-3.6C10.6,5,9,3.4,7,3.4z M7,9.3c-1.3,0-2.3-1-2.3-2.3c0-1.3,1-2.3,2.3-2.3
	s2.3,1,2.3,2.3C9.3,8.3,8.3,9.3,7,9.3z M10.7,2.4c-0.5,0-0.8,0.4-0.8,0.8s0.4,0.8,0.8,0.8c0.5,0,0.8-0.4,0.8-0.8S11.2,2.4,10.7,2.4z
	"/>
</svg>
