<?xml version="1.0" encoding="utf-8"?>
<!-- Generator: Adobe Illustrator 25.4.1, SVG Export Plug-In . SVG Version: 6.00 Build 0)  -->
<svg version="1.1" id="Vrstva_1" xmlns="http://www.w3.org/2000/svg" xmlns:xlink="http://www.w3.org/1999/xlink" x="0px" y="0px"
	 viewBox="0 0 14 14" style="enable-background:new 0 0 14 14;" xml:space="preserve">
<path fill="currentColor" d="M13,0H1C0.4,0,0,0.5,0,1v12c0,0.6,0.4,1,1,1h12c0.6,0,1-0.5,1-1V1C14,0.5,13.6,0,13,0z M4.2,12H2.2V5.3h2.1
	L4.2,12L4.2,12z M3.2,4.4C2.5,4.4,2,3.9,2,3.2C2,2.5,2.5,2,3.2,2c0.7,0,1.2,0.5,1.2,1.2C4.4,3.9,3.9,4.4,3.2,4.4z M12,12H9.9V8.8
	C9.9,8,9.9,7,8.9,7C7.8,7,7.6,7.8,7.6,8.7V12H5.5V5.3h2v0.9h0c0.3-0.5,1-1.1,2-1.1c2.1,0,2.5,1.4,2.5,3.2V12z"/>
</svg>
