<?xml version="1.0" encoding="utf-8"?>
<!-- Generator: Adobe Illustrator 25.4.1, SVG Export Plug-In . SVG Version: 6.00 Build 0)  -->
<svg version="1.1" id="Vrstva_1" xmlns="http://www.w3.org/2000/svg" xmlns:xlink="http://www.w3.org/1999/xlink" x="0px" y="0px"
	 viewBox="0 0 16 14" style="enable-background:new 0 0 16 14;" xml:space="preserve">
<path fill-rule="evenodd" clip-rule="evenodd" fill="currentColor" d="M0.9,0.9C0,1.8,0,3.2,0,6v2c0,2.8,0,4.2,0.9,5.1C1.8,14,3.2,14,6,14h4c2.8,0,4.2,0,5.1-0.9
	C16,12.2,16,10.8,16,8V6c0-2.8,0-4.2-0.9-5.1C14.2,0,12.8,0,10,0H6C3.2,0,1.8,0,0.9,0.9z M2.9,4C2.7,3.9,2.4,3.9,2.2,4.2
	C2.1,4.4,2.2,4.7,2.4,4.9l4.8,3.1c0.5,0.3,1.1,0.3,1.6,0l4.8-3.1c0.2-0.1,0.3-0.5,0.2-0.7c-0.1-0.2-0.5-0.3-0.7-0.2L8.3,7.1
	c-0.2,0.1-0.4,0.1-0.5,0L2.9,4z"/>
</svg>
