<?xml version="1.0" encoding="utf-8"?>
<!-- Generator: Adobe Illustrator 26.0.1, SVG Export Plug-In . SVG Version: 6.00 Build 0)  -->
<svg version="1.1" id="Vrstva_1" xmlns="http://www.w3.org/2000/svg" xmlns:xlink="http://www.w3.org/1999/xlink" x="0px" y="0px"
	 viewBox="0 0 28 29" style="enable-background:new 0 0 28 29;" xml:space="preserve">
<rect x="6" y="5" fill="#D5E0F9" width="15" height="24"/>
<path fill-rule="evenodd" clip-rule="evenodd" fill="#28367B" d="M13.7,0c-0.6,0-1,0.4-1,1v2.4H6.3c-0.6,0-1,0.4-1,1v12.5H1c-0.6,0-1,0.4-1,1V28c0,0.6,0.4,1,1,1h5.3h0h15.3h0
	H27c0.6,0,1-0.4,1-1V17.9c0-0.6-0.4-1-1-1h-4.3V4.4c0-0.6-0.4-1-1-1h-6.3V1c0-0.6-0.4-1-1-1H13.7z M9.7,6.7c-0.6,0-1,0.4-1,1v17.9
	H12v-4.1c0-1.1,0.9-2,2-2s2,0.9,2,2v4.1h3.3V7.7c0-0.6-0.4-1-1-1H9.7z M14,10.1c-1.1,0-2,0.9-2,2v0c0,1.1,0.9,2,2,2s2-0.9,2-2v0
	C16,11,15.1,10.1,14,10.1z"/>
</svg>
