<?xml version="1.0" encoding="utf-8"?>
<!-- Generator: Adobe Illustrator 25.4.1, SVG Export Plug-In . SVG Version: 6.00 Build 0)  -->
<svg version="1.1" id="Vrstva_1" xmlns="http://www.w3.org/2000/svg" xmlns:xlink="http://www.w3.org/1999/xlink" x="0px" y="0px"
	 viewBox="0 0 14 11.4" style="enable-background:new 0 0 14 11.4;" xml:space="preserve">
<path fill="currentColor" d="M14,1.3c-0.5,0.2-1.1,0.4-1.6,0.5c0.6-0.4,1-0.9,1.3-1.6c-0.6,0.3-1.2,0.6-1.8,0.7C11.3,0.3,10.5,0,9.7,0
	C7.8,0,6.5,1.7,6.9,3.5C4.5,3.4,2.4,2.3,1,0.5c-0.8,1.3-0.4,3,0.9,3.8C1.4,4.3,0.9,4.2,0.6,4c0,1.3,0.9,2.6,2.3,2.9
	C2.5,7,2,7,1.6,6.9c0.4,1.1,1.4,2,2.7,2C3,9.8,1.5,10.3,0,10.1c1.3,0.8,2.8,1.3,4.4,1.3c5.3,0,8.3-4.5,8.2-8.5
	C13.1,2.4,13.6,1.9,14,1.3z"/>
</svg>
