<svg width="129" height="26" viewBox="0 0 129 26" fill="none" xmlns="http://www.w3.org/2000/svg"><path d="M29.794 13.012v-2.947h9.4v2.947h-9.4zm18.951-2.418c-.108-1.05-.655-1.682-2.18-1.682-1.302 0-1.932.473-1.932 1.081 0 .609.763.993 1.882 1.281 1.434.28 2.838.688 4.195 1.218a3.295 3.295 0 011.606 1.264c.382.576.563 1.256.516 1.938 0 2.53-1.75 4.236-5.886 4.236-4.137 0-6.474-1.761-6.557-4.492h4.029c0 1.025.895 1.754 2.561 1.754 1.111 0 2.015-.336 2.015-1.21 0-.68-.572-.912-1.774-1.208a19.495 19.495 0 01-3.946-1.161 3.782 3.782 0 01-1.75-1.364 3.586 3.586 0 01-.646-2.08c0-2.106 1.5-3.843 5.803-3.843 3.92 0 5.612 1.473 5.803 4.26l-3.74.008zM45.073 4.86l-3.4-3.41L43 0l3.623 2.97L50.27 0l1.335 1.45-3.432 3.41h-3.1zm17.101 14.75l-2.611-5.55-1.31 1.402v4.148H54.3V1.946h3.97v9.144l3.648-4.412h4.817l-4.328 4.732 4.22 8.2h-4.452zm5.571-6.462c0-4.108 2.661-6.814 6.964-6.814 4.302 0 6.889 2.682 6.889 6.814s-2.67 6.806-6.89 6.806c-4.376 0-6.963-2.786-6.963-6.806zm9.873 0c0-2.474-.945-3.58-2.91-3.58-1.964 0-2.91 1.106-2.91 3.58s.954 3.667 2.91 3.667c1.957 0 2.91-1.2 2.91-3.667zm5.696 6.462V1.946h3.947V19.61h-3.947zm9.533-5.493c.108 1.601 1.144 2.81 2.637 2.81a2.1 2.1 0 001.224-.242c.372-.202.668-.512.848-.886h4.054a5.648 5.648 0 01-2.21 3.088 5.992 5.992 0 01-3.726 1.067c-4.518 0-6.773-2.402-6.773-7.046 0-4.004 2.396-6.574 6.533-6.574 4.136 0 6.342 2.45 6.342 7.206v.553l-8.929.024zm4.974-2.29c-.107-1.706-1.094-2.466-2.487-2.466-1.392 0-2.313.84-2.445 2.466h4.932zm14.01 7.783v-8.007c0-1.602-.622-2.154-2.039-2.154-1.551 0-2.338.8-2.338 2.402v7.807h-3.946V6.678h3.755V8.28c.763-1.314 2.064-1.97 4.029-1.97 2.611 0 4.518 1.601 4.518 4.132v9.168h-3.979zm7.379-14.565l-.896-1.546 5.604-3.074 1.36 2.306-6.068 2.314zm-.249 14.565V6.678h3.946V19.61h-3.946zM14.151.288L0 2.362l.497 3.283 5.057-.736 2.064 13.636 4.013-.584L9.567 4.316l5.081-.745-.497-3.283z" fill="#28367B"/><path d="M28.227 7.207L24.53 6.47l-1.385 6.742c-.406 2.002-1.168 2.955-2.785 2.635-1.252-.257-1.79-1.017-1.509-2.403l1.6-7.775-3.722-.744-1.766 8.591a3.98 3.98 0 00-.054 1.682c.102.558.322 1.09.646 1.562.325.472.747.874 1.24 1.181a4.353 4.353 0 001.625.604c.717.2 1.477.2 2.194.002a3.993 3.993 0 001.86-1.123l-.315 1.521a4.263 4.263 0 01-1.36 2.376 4.58 4.58 0 01-5.306.525 4.345 4.345 0 01-1.831-2.06l-3.316 1.378a7.845 7.845 0 002.3 3.036 8.219 8.219 0 003.503 1.648c.174 0 .348.064.522.08a8.292 8.292 0 005.814-1.4 7.784 7.784 0 003.214-4.886l2.528-12.435z" fill="#28367B"/></svg>