<svg xmlns="http://www.w3.org/2000/svg" viewBox="0 0 101 49"><path fill="#FFF" d="M24.8 1.9c-12.7 0-23 10.2-23 22.6 0 12.5 10.3 22.6 23 22.6h50.8c12.7 0 23-10.2 23-22.6 0-12.5-10.3-22.6-23-22.6H24.8z"/><path fill="#28367B" d="M24.8 1.9c-12.7 0-23 10.2-23 22.6s10.3 22.6 23 22.6h50.8c12.7 0 23-10.2 23-22.6S88.3 1.9 75.6 1.9H24.8zM75.6 49H24.8C11.1 49 0 38 0 24.5S11.1 0 24.8 0h50.8c13.7 0 24.8 11 24.8 24.5S89.3 49 75.6 49z"/><path fill="#28367B" d="M55.4 18.7c-1.5 0-2.6.6-3.3 1.9-.9-1.4-1.7-1.9-3.4-1.9-1.6 0-2.7.5-3.5 2.1V19h-3v11.9h3.2v-7.2c0-1.5.7-2.3 1.9-2.3 1.4 0 1.9.5 1.9 2.4V31h3.2v-7.1c0-1.4.9-2.5 2-2.5s1.9 1 1.9 2.4V31h3.1v-8.2c.1-2.4-1.6-4.1-4-4.1zm12.4 10c-1.5 0-2.7-1.4-2.7-3.4 0-2.6.9-3.9 2.7-3.9 1.9 0 2.7 1.2 2.7 3.7 0 2.1-1.1 3.6-2.7 3.6zm1-10c-1.5 0-2.7.6-3.6 1.9v-5.9h-3.1v16.2h3.1v-1.4c.8 1.2 1.9 1.8 3.4 1.8 3 0 5.2-2.4 5.2-6.4-.1-3.7-1.9-6.2-5-6.2zm11.6 2.5c1.3 0 2.4.8 2.5 2.6H78c0-1.6 1.1-2.6 2.4-2.6zm.1 7.5c-1.6 0-2.6-1.2-2.7-2.9h8.3c0-4.7-2-7.1-5.7-7.1s-5.8 2.4-5.8 6c0 4.3 2 6.5 6 6.5 2.6 0 4.6-1.4 5.3-3.8h-3.3c-.1.8-1 1.3-2.1 1.3zM27.4 12.6l-13.1 2 .4 2.8 4.8-.7 2 13.1 3.4-.5-2-13.1 4.9-.7-.4-2.9zm8.4 14c-.3 1.5-1.4 2.5-3 2.2-1.3-.3-1.8-1.1-1.5-2.6l1.5-7.2-3.1-.6-1.6 7.6c-.5 2.6.8 4.6 3.1 5.1 1.6.3 3 0 4.1-1.2l-.3 1.6c-.5 2.1-2.6 3.5-4.8 3.1-1.3-.3-2.4-1.1-2.9-2.4l-2.8 1.1c.9 2.1 2.8 3.7 5.1 4.1 3.8.8 7.5-1.6 8.3-5.4l2.4-11.6-3.1-.6-1.4 6.8z"/></svg>