<?xml version="1.0" encoding="UTF-8"?><!DOCTYPE svg PUBLIC "-//W3C//DTD SVG 1.1//EN" "http://www.w3.org/Graphics/SVG/1.1/DTD/svg11.dtd"><svg xmlns="http://www.w3.org/2000/svg" xmlns:xlink="http://www.w3.org/1999/xlink"><symbol id="icon-angle-down" viewBox="0 0 10 6.4"><path fill="currentColor" d="M5 5l-.7.7.7.7.7-.7L5 5zM0 1.4l4.3 4.3 1.4-1.4L1.4 0 0 1.4zm5.7 4.3L10 1.4 8.6 0 4.3 4.3l1.4 1.4z"/></symbol><symbol id="icon-angle-top" viewBox="0 0 10 6.4"><path d="M5 1.4l.7-.7L5 0l-.7.7.7.7zM10 5L5.7.7 4.3 2.1l4.3 4.3L10 5zM4.3.7L0 5l1.4 1.4 4.3-4.3L4.3.7z" fill="#a2ba02"/></symbol><symbol id="icon-arr-down" viewBox="0 0 13.4 17.4"><path fill="currentColor" d="M6.7 16l-.7.7.7.7.7-.7-.7-.7zm1-15c0-.6-.4-1-1-1s-1 .4-1 1h2zM0 10.7l6 6 1.4-1.4-6-6L0 10.7zm7.4 6l6-6L12 9.3l-6 6 1.4 1.4zm.3-.7V1h-2v15h2z"/></symbol><symbol id="icon-arr-left" viewBox="0 0 11.7 9.1"><path fill="currentColor" d="M.7 4.6l-.3-.4-.4.4.4.4.3-.4zm10.5.5c.3 0 .5-.2.5-.5s-.2-.5-.5-.5v1zM4.6 0L.4 4.2l.7.7L5.3.7 4.6 0zM.4 4.9l4.2 4.2.7-.7-4.2-4.2-.7.7zm.3.2h10.5v-1H.7v1z"/></symbol><symbol id="icon-arr-right" viewBox="0 0 11.7 9.1"><path fill="currentColor" d="M11 4.6l.4.4.4-.4-.4-.4-.4.4zM.5 4.1c-.3 0-.5.2-.5.5s.2.5.5.5v-1zm6.7 5l4.2-4.2-.7-.7-4.3 4.2.8.7zm4.2-4.9L7.2 0l-.8.7 4.2 4.2.8-.7zm-.4-.1H.5v1H11v-1z"/></symbol><symbol id="icon-building" viewBox="0 0 17.3 18"><path d="M2.3 2c0-1.1.9-2 2-2h8.8c1.1 0 2 .9 2 2v15.1h1.8c.2 0 .5.2.5.5 0 .2-.2.5-.5.5H.4c-.2-.1-.4-.3-.4-.6 0-.2.2-.5.4-.5h1.8V2zm3.4.9c-.6 0-1 .4-1 1v.9c0 .6.4 1 1 1h.9c.6 0 1-.4 1-1v-.9c0-.6-.4-1-1-1h-.9zm-1 5.8c0-.6.4-1 1-1h.9c.6 0 1 .4 1 1v.9c0 .6-.4 1-1 1h-.9c-.6 0-1-.4-1-1v-.9zm5.8-1c-.6 0-1 .4-1 1v.9c0 .6.4 1 1 1h.9c.6 0 1-.4 1-1v-.9c0-.6-.4-1-1-1h-.9zm-1-3.8c0-.6.4-1 1-1h.9c.6 0 1 .4 1 1v.9c0 .6-.4 1-1 1h-.9c-.6 0-1-.4-1-1v-.9zm-2.6 8.5c-.6 0-1 .4-1 1v3.7h5.6v-3.7c0-.6-.4-1-1-1H6.9z" fill-rule="evenodd" clip-rule="evenodd"/></symbol><symbol id="icon-chart" viewBox="0 0 28 28"><circle fill="#D5E0F9" cx="14" cy="14" r="14"/><path fill="#28367B" fill-rule="evenodd" clip-rule="evenodd" d="M14 28c7.7 0 14-6.3 14-14S21.7 0 14 0 0 6.3 0 14s6.3 14 14 14zm.1-24.8c-.1.1-.1.2-.1.4V14c0 .1-.1.1-.2.2l-8.8 5c-.2.1-.3.2-.3.3 0 .1 0 .2.2.4.9 1.5 2.2 2.7 3.7 3.6 1.7 1 3.5 1.5 5.4 1.5s3.8-.5 5.4-1.5c1.7-1 3-2.3 4-4 1-1.7 1.5-3.5 1.5-5.4s-.5-3.8-1.5-5.4c-1-1.7-2.3-3-4-4-1.5-.9-3.2-1.4-4.9-1.4-.2-.2-.3-.2-.4-.1z"/></symbol><symbol id="icon-chat" viewBox="0 0 15 15"><path fill-rule="evenodd" clip-rule="evenodd" fill="currentColor" d="M0 7.5C0 3.6 3.2 0 7.5 0S15 3.5 15 7.5c0 4.6-3.8 7.5-7.5 7.5-1.2 0-2.6-.3-3.7-1-.4-.2-.7-.4-1.1-.3l-1.5.5c-.4.1-.7-.2-.6-.6l.5-1.7c.1-.2.1-.5-.1-.7-.6-1.1-1-2.4-1-3.7zm6.5 0c0 .5.4 1 1 1 .5 0 1-.4 1-1 0-.5-.4-1-1-1-.5 0-1 .5-1 1zm3.5 0c0 .5.4 1 1 1s1-.4 1-1c0-.5-.4-1-1-1s-1 .5-1 1zm-6 1c-.5 0-1-.4-1-1 0-.5.4-1 1-1s1 .4 1 1c0 .5-.4 1-1 1z"/></symbol><symbol id="icon-check" viewBox="0 0 512 381.8"><path d="M173.9 374.3L7.5 207.9c-10-10-10-26.2 0-36.2l36.2-36.2c10-10 26.2-10 36.2 0L192 247.6 432.1 7.5c10-10 26.2-10 36.2 0l36.2 36.2c10 10 10 26.2 0 36.2L210.1 374.3c-10 10-26.2 10-36.2 0z"/></symbol><symbol id="icon-clock" viewBox="0 0 13 13"><path fill-rule="evenodd" clip-rule="evenodd" fill="currentColor" d="M6.5 13c3.6 0 6.5-2.9 6.5-6.5S10.1 0 6.5 0 0 2.9 0 6.5 2.9 13 6.5 13zm.6-10.5c0-.3-.3-.5-.6-.5s-.6.2-.6.5v4.1c0 .5.4.8.8.8h1.9c.3 0 .6-.2.6-.6 0-.3-.2-.6-.6-.6H7.1V2.5z"/></symbol><symbol id="icon-company" viewBox="0 0 15.6 16"><path fill-rule="evenodd" clip-rule="evenodd" fill="currentColor" d="M7.8 0c-.4 0-.7.3-.7.7v1.1H4c-.6 0-1 .4-1 1v6.4H1c-.6 0-1 .4-1 1V15c0 .6.4 1 1 1h13.7c.6 0 1-.4 1-1v-4.7c0-.6-.4-1-1-1h-2V2.9c0-.6-.4-1-1-1H8.6V.7c0-.4-.4-.7-.8-.7zm-2 3.7c-.6 0-1 .4-1 1v9.4h1.9v-2.2c0-.6.5-1.1 1.1-1.1.6 0 1.1.5 1.1 1.1v2.2h1.9V4.7c0-.6-.4-1-1-1h-4zm2 1.9c-.6 0-1.1.5-1.1 1.1 0 .6.5 1.1 1.1 1.1.6 0 1.1-.5 1.1-1.1 0-.6-.5-1.1-1.1-1.1z"/></symbol><symbol id="icon-facebook" viewBox="0 0 14 14"><path fill="currentColor" d="M13.2 0H.8C.3 0 0 .3 0 .8v12.5c0 .4.3.7.8.7h6.7V8.6H5.7V6.5h1.8V4.9c0-1.8 1.1-2.8 2.7-2.8.8 0 1.4.1 1.6.1v1.9h-1.1c-.9 0-1 .4-1 1v1.3h2.1l-.3 2.1H9.7V14h3.6c.4 0 .8-.3.8-.8V.8c-.1-.5-.4-.8-.9-.8z"/></symbol><symbol id="icon-happy" viewBox="0 0 28 28"><circle fill="#D5E0F9" cx="14" cy="14" r="14"/><path fill="#28367B" d="M14 28C6.3 28 0 21.7 0 14S6.3 0 14 0s14 6.3 14 14-6.3 14-14 14zm0-26C7.4 2 2 7.4 2 14s5.4 12 12 12 12-5.4 12-12S20.6 2 14 2z"/><path fill="#28367B" d="M14 21.3c-1.1 0-2.2-.2-3.2-.4-1.1-.3-2-.8-2.7-1.4-.4-.4-.5-1-.1-1.4.4-.4 1-.5 1.4-.1.5.4 1.1.7 2 1 1.6.5 3.7.5 5.3 0 .8-.2 1.5-.6 2-1 .4-.4 1-.3 1.4.1.4.4.3 1-.1 1.4-.7.6-1.6 1.1-2.7 1.4-1.1.3-2.2.4-3.3.4zM10 9.5c-1 0-1.8.8-1.8 1.8s.8 1.8 1.8 1.8 1.8-.8 1.8-1.8S11 9.5 10 9.5zM18 9.5c-1 0-1.8.8-1.8 1.8s.8 1.8 1.8 1.8 1.8-.8 1.8-1.8S19 9.5 18 9.5z"/></symbol><symbol id="icon-info" viewBox="0 0 24 24"><path fill="currentColor" d="M12 23c-.8 0-1.6-.1-2.4-.3-1.4-.3-2.7-.9-3.9-1.7-1.2-.8-2.2-1.9-3-3.1-.8-1.2-1.3-2.6-1.6-4-.2-1.4-.2-2.9.2-4.3.3-1.4.9-2.7 1.7-3.9.8-1.2 1.9-2.2 3.1-3 1.2-.8 2.6-1.3 4-1.6 1.4-.3 2.9-.2 4.3.1 1.4.3 2.7.9 3.9 1.7 1.2.8 2.2 1.9 3 3.1.8 1.2 1.3 2.6 1.6 4 .3 1.4.2 2.9-.1 4.3-.3 1.4-.9 2.7-1.7 3.9-.8 1.2-1.9 2.2-3.1 3-1.2.8-2.6 1.3-4 1.6-.7.1-1.4.2-2 .2zm0-20c-.5 0-1 0-1.6.1-1.1.2-2.2.7-3.2 1.3-1 .6-1.9 1.5-2.6 2.4-.7 1-1.2 2.1-1.4 3.2-.3 1.2-.3 2.3-.1 3.5.2 1.2.6 2.3 1.3 3.3.6 1 1.5 1.9 2.4 2.5 1 .7 2.1 1.2 3.2 1.4 1.2.3 2.3.3 3.5.1 1.2-.2 2.3-.6 3.3-1.3 1-.6 1.9-1.5 2.5-2.4.7-1 1.2-2.1 1.4-3.2.3-1.2.3-2.3.1-3.5-.2-1.2-.6-2.3-1.3-3.3-.6-1-1.5-1.9-2.4-2.5S15 3.4 13.9 3.2c-.6-.1-1.2-.2-1.9-.2z"/><path fill="currentColor" d="M11 11h2v8h-2zM11 5h2v3h-2z"/></symbol><symbol id="icon-instagram" viewBox="0 0 14 14"><path fill="currentColor" d="M7 1.3h2.8c1.9.1 2.8 1 2.9 2.9v5.6c-.1 1.9-1 2.8-2.9 2.9H4.2c-1.9-.1-2.8-1-2.9-2.9V7 4.2c.1-1.9 1-2.8 2.9-2.9H7zM7 0H4.1C1.6.2.2 1.6 0 4.1v5.8c.1 2.5 1.5 4 4.1 4.1h5.8c2.5-.1 4-1.5 4.1-4.1V7 4.1c-.1-2.5-1.5-4-4.1-4.1H7zm0 3.4C5 3.4 3.4 5 3.4 7S5 10.6 7 10.6 10.6 9 10.6 7 9 3.4 7 3.4zm0 5.9c-1.3 0-2.3-1-2.3-2.3 0-1.3 1-2.3 2.3-2.3s2.3 1 2.3 2.3c0 1.3-1 2.3-2.3 2.3zm3.7-6.9c-.5 0-.8.4-.8.8s.4.8.8.8c.5 0 .8-.4.8-.8s-.3-.8-.8-.8z"/></symbol><symbol id="icon-linkedin" viewBox="0 0 14 14"><path fill="currentColor" d="M13 0H1C.4 0 0 .5 0 1v12c0 .6.4 1 1 1h12c.6 0 1-.5 1-1V1c0-.5-.4-1-1-1zM4.2 12h-2V5.3h2.1L4.2 12zm-1-7.6C2.5 4.4 2 3.9 2 3.2S2.5 2 3.2 2s1.2.5 1.2 1.2-.5 1.2-1.2 1.2zM12 12H9.9V8.8c0-.8 0-1.8-1-1.8-1.1 0-1.3.8-1.3 1.7V12H5.5V5.3h2v.9c.3-.5 1-1.1 2-1.1 2.1 0 2.5 1.4 2.5 3.2V12z"/></symbol><symbol id="icon-location" viewBox="0 0 14 16"><path fill-rule="evenodd" clip-rule="evenodd" fill="currentColor" d="M7.4 15.9C8.9 15.1 14 12.1 14 7c0-3.9-3.1-7-7-7S0 3.2 0 7c0 5 5.1 8.1 6.6 8.9.3.1.5.1.8 0zM7 10.1c1.7 0 3-1.4 3-3S8.7 4 7 4 4 5.4 4 7s1.3 3.1 3 3.1z"/></symbol><symbol id="icon-message" viewBox="0 0 16 14"><path fill-rule="evenodd" clip-rule="evenodd" fill="currentColor" d="M.9.9C0 1.8 0 3.2 0 6v2c0 2.8 0 4.2.9 5.1.9.9 2.3.9 5.1.9h4c2.8 0 4.2 0 5.1-.9.9-.9.9-2.3.9-5.1V6c0-2.8 0-4.2-.9-5.1C14.2 0 12.8 0 10 0H6C3.2 0 1.8 0 .9.9zm2 3.1c-.2-.1-.5-.1-.7.2-.1.2 0 .5.2.7L7.2 8c.5.3 1.1.3 1.6 0l4.8-3.1c.2-.1.3-.5.2-.7-.1-.2-.5-.3-.7-.2L8.3 7.1c-.2.1-.4.1-.5 0L2.9 4z"/></symbol><symbol id="icon-person" viewBox="0 0 24.3 32.2"><path fill="#D5E0F9" d="M18.9 8.1c0-3.7-3-6.8-6.8-6.8s-6.8 3-6.8 6.8 3 6.8 6.8 6.8 6.8-3 6.8-6.8z"/><path fill="#2D3B77" d="M12.1 2.7c-3 0-5.5 2.4-5.5 5.5 0 3 2.4 5.5 5.5 5.5 3 0 5.5-2.4 5.5-5.5s-2.4-5.5-5.5-5.5zm0 13.5C7.7 16.2 4 12.6 4 8.1S7.7 0 12.1 0c4.5 0 8.1 3.6 8.1 8.1.1 4.5-3.6 8.1-8.1 8.1z"/><path fill="#D5E0F9" d="M1.3 30.9l10.8-12 10.8 12"/><path fill="#2D3B77" d="M4.3 29.5H20l-7.8-8.7-7.9 8.7zM23 32.2H1.3c-.5 0-1-.3-1.2-.8-.2-.5-.1-1 .2-1.4l10.8-12c.3-.3.6-.4 1-.4s.7.2 1 .4l10.8 12c.4.4.4 1 .2 1.4-.1.5-.6.8-1.1.8z"/></symbol><symbol id="icon-phone" viewBox="0 0 14.5 14.5"><path fill="currentColor" d="M1.8.3c.4-.4 1.1-.4 1.5-.1l2.1 2.1c.4.4.4 1 0 1.4L3.9 5.4c-.3.2-.4.6-.2 1 1 1.9 2.5 3.5 4.5 4.5.3.2.7.1 1-.2l1.5-1.5c.4-.4 1-.4 1.4 0l2.1 2.1c.4.4.4 1 0 1.4l-.1.1c-2.1 2.1-5.5 2.3-7.8.6l-.3-.3c-1.7-1.3-3.3-2.9-4.6-4.6l-.2-.3C-.6 5.8-.4 2.5 1.8.3z"/></symbol><symbol id="icon-places" viewBox="0 0 28 29"><path fill="#D5E0F9" d="M6 5h15v24H6z"/><path fill-rule="evenodd" clip-rule="evenodd" fill="#28367B" d="M13.7 0c-.6 0-1 .4-1 1v2.4H6.3c-.6 0-1 .4-1 1v12.5H1c-.6 0-1 .4-1 1V28c0 .6.4 1 1 1h26c.6 0 1-.4 1-1V17.9c0-.6-.4-1-1-1h-4.3V4.4c0-.6-.4-1-1-1h-6.3V1c0-.6-.4-1-1-1h-.7zm-4 6.7c-.6 0-1 .4-1 1v17.9H12v-4.1c0-1.1.9-2 2-2s2 .9 2 2v4.1h3.3V7.7c0-.6-.4-1-1-1H9.7zm4.3 3.4c-1.1 0-2 .9-2 2s.9 2 2 2 2-.9 2-2-.9-2-2-2z"/></symbol><symbol id="icon-questionmark" viewBox="0 0 16 16"><path fill-rule="evenodd" clip-rule="evenodd" fill="currentColor" d="M8 16c4.4 0 8-3.6 8-8s-3.6-8-8-8-8 3.6-8 8 3.6 8 8 8zm-.8-7.9c-.1.3-.2.7-.2 1.3h1.5V9c0-.4.2-.7.5-1l.5-.5c.4-.4.6-.7.8-1 .1-.3.2-.6.2-.9 0-.7-.2-1.3-.7-1.7-.4-.3-1-.5-1.9-.5-.8 0-1.4.2-1.9.6-.5.4-.7 1-.7 1.7H7c0-.3.1-.5.2-.7.2-.2.4-.3.7-.3.6 0 .9.3.9 1 0 .2-.1.4-.2.6 0 .2-.3.5-.6.8-.4.3-.6.7-.8 1zm-.1 2.4c-.2.2-.3.4-.3.6 0 .3.1.5.3.6.2.2.4.3.7.3s.5-.1.7-.3c.2-.2.3-.4.3-.6 0-.3-.1-.5-.3-.6-.2-.2-.4-.3-.7-.3s-.5.2-.7.3z"/></symbol><symbol id="icon-twitter" viewBox="0 0 14 11.4"><path fill="currentColor" d="M14 1.3c-.5.2-1.1.4-1.6.5.6-.4 1-.9 1.3-1.6-.6.3-1.2.6-1.8.7-.6-.6-1.4-.9-2.2-.9-1.9 0-3.2 1.7-2.8 3.5-2.4-.1-4.5-1.2-5.9-3-.8 1.3-.4 3 .9 3.8-.5 0-1-.1-1.3-.3 0 1.3.9 2.6 2.3 2.9-.4.1-.9.1-1.3 0C2 8 3 8.9 4.3 8.9 3 9.8 1.5 10.3 0 10.1c1.3.8 2.8 1.3 4.4 1.3 5.3 0 8.3-4.5 8.2-8.5.5-.5 1-1 1.4-1.6z"/></symbol><symbol id="icon-user" viewBox="0 0 16 16"><path d="M0 8c0-3.8 0-5.7 1.2-6.8C2.3 0 4.2 0 8 0s5.7 0 6.8 1.2C16 2.3 16 4.2 16 8s0 5.7-1.2 6.8C13.7 16 11.8 16 8 16s-5.7 0-6.8-1.2C0 13.7 0 11.8 0 8zm4.8 3.8c.9-.7 2.1-1.1 3.2-1.1s2.3.4 3.2 1.1c.9.7 1.6 1.7 1.9 2.8.1.3-.1.5-.4.6-.3.1-.5-.1-.6-.4-.2-.9-.8-1.7-1.5-2.3-.7-.5-1.7-.8-2.6-.8s-1.9.3-2.6.9c-.8.6-1.3 1.4-1.5 2.3-.1.3-.3.4-.6.4-.3-.1-.4-.3-.4-.6.3-1.2.9-2.2 1.9-2.9zm1.3-6.2c0-1 .9-1.9 1.9-1.9s1.9.9 1.9 1.9S9 7.5 8 7.5s-1.9-.9-1.9-1.9zM8 2.7C6.4 2.7 5.1 4 5.1 5.6c0 1.6 1.3 2.9 2.9 2.9 1.6 0 2.9-1.3 2.9-2.9C10.9 4 9.6 2.7 8 2.7z" fill-rule="evenodd" clip-rule="evenodd"/></symbol><symbol id="icon-work" viewBox="0 0 17.33 15.75"><path d="M9.55 1.5H7.77a.5.5 0 00-.5.5v.17h2.78V2a.5.5 0 00-.5-.5z" fill="none"/><path d="M9.25 14H8.08a1.5 1.5 0 01-1.5-1.5V12H1v2.8a1 1 0 001 1h13.4a1 1 0 001-1V12h-5.65v.58A1.5 1.5 0 019.25 14zM15.83 2.17h-4.28V2a2 2 0 00-2-2H7.77a2 2 0 00-2 2v.17H1.5A1.5 1.5 0 000 3.67v5.69a1.5 1.5 0 001.5 1.5h5.08v-.58a1.5 1.5 0 011.5-1.5h1.17a1.5 1.5 0 011.5 1.5v.58h5.08a1.5 1.5 0 001.5-1.5V3.67a1.5 1.5 0 00-1.5-1.5zm-5.78 0H7.27V2a.5.5 0 01.5-.5h1.78a.5.5 0 01.5.5z" fill="currentColor"/><rect x="7.58" y="9.78" width="2.17" height="3.26" rx=".5" fill="currentColor"/><path d="M9.25 8.78H8.08a1.5 1.5 0 00-1.5 1.5v2.25A1.5 1.5 0 008.08 14h1.17a1.5 1.5 0 001.5-1.5v-2.22a1.5 1.5 0 00-1.5-1.5zm0 4.25H8.08a.5.5 0 01-.5-.5v-2.25a.5.5 0 01.5-.5h1.17a.5.5 0 01.5.5v2.25a.5.5 0 01-.5.47z" fill="none"/></symbol></svg>